<svg width="222" height="324" viewBox="0 0 222 324" fill="none" xmlns="http://www.w3.org/2000/svg">
<g clip-path="url(#clip0_3_1517)">
<rect width="222" height="324" rx="10" fill="white"/>
<path d="M27.5879 58.3197C27.5879 58.3197 32.2924 54.556 32.2924 49.3384C32.2924 46.2839 29.5806 41.2129 23.3112 41.2129C17.0417 41.2129 14.3299 46.2859 14.3299 49.3384C14.3299 54.556 19.0345 58.3197 19.0345 58.3197C13.8089 54.249 4.49292 57.0281 4.49292 65.1636C4.49292 69.2362 7.82078 73.7169 13.0463 73.7169C19.3158 73.7169 22.0276 66.873 22.0276 66.873C22.0276 66.873 22.8239 74.6737 18.1787 78.8494H28.4436C23.7985 74.6757 24.5948 66.873 24.5948 66.873C24.5948 66.873 27.3066 73.7169 33.576 73.7169C38.8035 73.7169 42.1294 69.2342 42.1294 65.1636C42.1294 57.0281 32.8134 54.249 27.5879 58.3197Z" fill="black"/>
<path d="M195.312 264.987C195.312 264.987 190.607 268.751 190.607 273.968C190.607 277.023 193.319 282.094 199.588 282.094C205.858 282.094 208.57 277.021 208.57 273.968C208.57 268.751 203.865 264.987 203.865 264.987C209.09 269.058 218.406 266.279 218.406 258.143C218.406 254.07 215.079 249.59 209.853 249.59C203.584 249.59 200.872 256.434 200.872 256.434C200.872 256.434 200.076 248.633 204.721 244.457H194.456C199.101 248.631 198.305 256.434 198.305 256.434C198.305 256.434 195.593 249.59 189.323 249.59C184.096 249.59 180.77 254.072 180.77 258.143C180.77 266.279 190.086 269.058 195.312 264.987Z" fill="black"/>
<path d="M76.7638 33.4667C76.7638 33.4667 84.7203 27.1015 84.7203 18.2773C84.7203 13.1114 80.134 4.53516 69.5309 4.53516C58.9279 4.53516 54.3416 13.1148 54.3416 18.2773C54.3416 27.1015 62.2981 33.4667 62.2981 33.4667C53.4605 26.5822 37.705 31.2824 37.705 45.0413C37.705 51.9291 43.3331 59.507 52.1707 59.507C62.7738 59.507 67.3601 47.9324 67.3601 47.9324C67.3601 47.9324 68.7068 61.1251 60.8508 68.1871H78.2111C70.3551 61.1285 71.7018 47.9324 71.7018 47.9324C71.7018 47.9324 76.2881 59.507 86.8912 59.507C95.7321 59.507 101.357 51.9257 101.357 45.0413C101.357 31.2824 85.6014 26.5822 76.7638 33.4667Z" fill="black"/>
<path d="M76.1472 124.268C76.1472 124.268 84.1037 117.902 84.1037 109.078C84.1037 103.912 79.5174 95.3362 68.9144 95.3362C58.3113 95.3362 53.725 103.916 53.725 109.078C53.725 117.902 61.6815 124.268 61.6815 124.268C52.8439 117.383 37.0884 122.083 37.0884 135.842C37.0884 142.73 42.7166 150.308 51.5541 150.308C62.1572 150.308 66.7435 138.733 66.7435 138.733C66.7435 138.733 68.0902 151.926 60.2342 158.988H77.5945C69.7385 151.929 71.0852 138.733 71.0852 138.733C71.0852 138.733 75.6715 150.308 86.2746 150.308C95.1155 150.308 100.74 142.727 100.74 135.842C100.74 122.083 84.9848 117.383 76.1472 124.268Z" fill="black"/>
<path d="M162.077 33.235C162.077 33.235 170.034 26.8698 170.034 18.0456C170.034 12.8797 165.447 4.30347 154.844 4.30347C144.241 4.30347 139.655 12.8831 139.655 18.0456C139.655 26.8698 147.611 33.235 147.611 33.235C138.774 26.3505 123.018 31.0507 123.018 44.8096C123.018 51.6974 128.646 59.2753 137.484 59.2753C148.087 59.2753 152.673 47.7007 152.673 47.7007C152.673 47.7007 154.02 60.8934 146.164 67.9554H163.524C155.668 60.8968 157.015 47.7007 157.015 47.7007C157.015 47.7007 161.601 59.2753 172.205 59.2753C181.045 59.2753 186.67 51.694 186.67 44.8096C186.67 31.0507 170.915 26.3505 162.077 33.235Z" fill="black"/>
<path d="M162.077 124.036C162.077 124.036 170.034 117.671 170.034 108.847C170.034 103.681 165.447 95.1045 154.844 95.1045C144.241 95.1045 139.655 103.684 139.655 108.847C139.655 117.671 147.611 124.036 147.611 124.036C138.774 117.152 123.018 121.852 123.018 135.611C123.018 142.498 128.646 150.076 137.484 150.076C148.087 150.076 152.673 138.502 152.673 138.502C152.673 138.502 154.02 151.694 146.164 158.756H163.524C155.668 151.698 157.015 138.502 157.015 138.502C157.015 138.502 161.601 150.076 172.205 150.076C181.045 150.076 186.67 142.495 186.67 135.611C186.67 121.852 170.915 117.152 162.077 124.036Z" fill="black"/>
<path d="M119.436 79.0414C119.436 79.0414 127.392 72.6762 127.392 63.852C127.392 58.6861 122.806 50.1099 112.203 50.1099C101.6 50.1099 97.0134 58.6895 97.0134 63.852C97.0134 72.6762 104.97 79.0414 104.97 79.0414C96.1324 72.1569 80.3768 76.8571 80.3768 90.616C80.3768 97.5038 86.005 105.082 94.8426 105.082C105.446 105.082 110.032 93.5071 110.032 93.5071C110.032 93.5071 111.379 106.7 103.523 113.762H120.883C113.027 106.703 114.374 93.5071 114.374 93.5071C114.374 93.5071 118.96 105.082 129.563 105.082C138.404 105.082 144.029 97.5004 144.029 90.616C144.029 76.8571 128.273 72.1569 119.436 79.0414Z" fill="black"/>
<path d="M146.75 290.403C146.75 290.403 138.794 296.768 138.794 305.592C138.794 310.758 143.38 319.334 153.983 319.334C164.586 319.334 169.172 310.755 169.172 305.592C169.172 296.768 161.216 290.403 161.216 290.403C170.053 297.287 185.809 292.587 185.809 278.828C185.809 271.94 180.181 264.362 171.343 264.362C160.74 264.362 156.154 275.937 156.154 275.937C156.154 275.937 154.807 262.744 162.663 255.682H145.303C153.159 262.741 151.812 275.937 151.812 275.937C151.812 275.937 147.226 264.362 136.623 264.362C127.782 264.362 122.157 271.944 122.157 278.828C122.157 292.587 137.913 297.287 146.75 290.403Z" fill="black"/>
<path d="M147.611 199.602C147.611 199.602 139.655 205.967 139.655 214.791C139.655 219.957 144.241 228.533 154.844 228.533C165.447 228.533 170.033 219.954 170.033 214.791C170.033 205.967 162.077 199.602 162.077 199.602C170.914 206.486 186.67 201.786 186.67 188.027C186.67 181.139 181.042 173.561 172.204 173.561C161.601 173.561 157.015 185.136 157.015 185.136C157.015 185.136 155.668 171.943 163.524 164.881H146.164C154.02 171.94 152.673 185.136 152.673 185.136C152.673 185.136 148.087 173.561 137.484 173.561C128.643 173.561 123.018 181.143 123.018 188.027C123.018 201.786 138.773 206.486 147.611 199.602Z" fill="black"/>
<path d="M61.4369 290.634C61.4369 290.634 53.4804 296.999 53.4804 305.823C53.4804 310.989 58.0667 319.566 68.6697 319.566C79.2728 319.566 83.8591 310.986 83.8591 305.823C83.8591 296.999 75.9026 290.634 75.9026 290.634C84.7402 297.519 100.496 292.818 100.496 279.059C100.496 272.172 94.8676 264.594 86.03 264.594C75.4269 264.594 70.8406 276.168 70.8406 276.168C70.8406 276.168 69.4939 262.976 77.3499 255.914H59.9896C67.8456 262.972 66.4989 276.168 66.4989 276.168C66.4989 276.168 61.9126 264.594 51.3095 264.594C42.4686 264.594 36.8438 272.175 36.8438 279.059C36.8438 292.818 52.5993 297.519 61.4369 290.634Z" fill="black"/>
<path d="M61.6815 199.834C61.6815 199.834 53.725 206.199 53.725 215.023C53.725 220.189 58.3113 228.765 68.9144 228.765C79.5174 228.765 84.1037 220.185 84.1037 215.023C84.1037 206.199 76.1472 199.834 76.1472 199.834C84.9848 206.718 100.74 202.018 100.74 188.259C100.74 181.371 95.1122 173.793 86.2746 173.793C75.6715 173.793 71.0852 185.368 71.0852 185.368C71.0852 185.368 69.7385 172.175 77.5945 165.113H60.2342C68.0902 172.172 66.7435 185.368 66.7435 185.368C66.7435 185.368 62.1572 173.793 51.5541 173.793C42.7132 173.793 37.0884 181.374 37.0884 188.259C37.0884 202.018 52.8439 206.718 61.6815 199.834Z" fill="black"/>
<path d="M22.3384 21.5613C22.3384 18.1308 23.2967 14.8947 25.2134 11.853C27.13 8.79743 29.262 7.26965 31.6092 7.26965C33.4564 7.26965 35.1092 7.97799 36.5675 9.39465C38.0398 10.7974 39.1509 12.6377 39.9009 14.9155C40.6509 17.1933 41.0259 19.5752 41.0259 22.0613C41.0259 25.853 40.1717 29.1724 38.4634 32.0197C37.3384 33.9085 35.9634 35.2349 34.3384 35.9988C33.505 36.3738 32.6439 36.5613 31.755 36.5613C30.0745 36.5613 28.512 35.8808 27.0675 34.5197C25.6231 33.1447 24.4703 31.4433 23.6092 29.4155C22.762 27.3738 22.3384 25.4016 22.3384 23.4988V21.5613ZM31.8175 35.3322C35.7064 35.3322 37.6509 31.2974 37.6509 23.228C37.6509 19.853 37.5814 17.5822 37.4425 16.4155C37.1509 13.971 36.6023 12.1099 35.7967 10.8322C34.7967 9.2766 33.3592 8.49882 31.4842 8.49882C27.9564 8.49882 26.0467 12.0613 25.755 19.1863C25.7134 20.2141 25.6925 21.4502 25.6925 22.8947C25.6925 26.6863 26.1023 29.6238 26.9217 31.7072C27.88 34.1238 29.512 35.3322 31.8175 35.3322Z" fill="black"/>
<path d="M8.37504 14.5613C8.27782 14.5613 8.13893 14.3808 7.95837 14.0197C7.95837 13.978 8.20837 13.7974 8.70837 13.478C9.20837 13.1447 10.2014 12.3183 11.6875 10.9988C13.1737 9.67938 14.4028 8.43632 15.375 7.26965H16.5417C16.7223 7.26965 16.8334 7.29743 16.875 7.35299C16.9167 7.40854 16.9375 7.51271 16.9375 7.66549V33.0822C16.9375 33.9572 17.0278 34.4502 17.2084 34.5613C17.8889 34.9641 19.2709 35.1655 21.3542 35.1655C21.4653 35.1655 21.5209 35.221 21.5209 35.3322V35.8322C21.5209 35.9433 21.4653 35.9988 21.3542 35.9988H8.81254C8.70143 35.9988 8.64587 35.9433 8.64587 35.8322V35.3322C8.64587 35.221 8.70143 35.1655 8.81254 35.1655C9.50699 35.1238 10.1112 35.096 10.625 35.0822C11.1389 35.0544 11.6806 35.0127 12.25 34.9572C12.8195 34.9016 13.2153 34.8113 13.4375 34.6863C13.6737 34.5613 13.8125 34.3738 13.8542 34.1238C13.8959 33.8738 13.9167 33.5474 13.9167 33.1447V10.9572C13.9306 10.9294 13.7778 11.0405 13.4584 11.2905C11.6528 12.7349 10 13.8183 8.50004 14.5405L8.37504 14.5613Z" fill="black"/>
<path d="M104.093 245.25C104.093 245.25 96.1366 251.615 96.1366 260.44C96.1366 265.605 100.723 274.182 111.326 274.182C121.929 274.182 126.515 265.602 126.515 260.44C126.515 251.615 118.559 245.25 118.559 245.25C127.396 252.135 143.152 247.435 143.152 233.676C143.152 226.788 137.524 219.21 128.686 219.21C118.083 219.21 113.497 230.785 113.497 230.785C113.497 230.785 112.15 217.592 120.006 210.53H102.646C110.502 217.588 109.155 230.785 109.155 230.785C109.155 230.785 104.569 219.21 93.9657 219.21C85.1248 219.21 79.5 226.791 79.5 233.676C79.5 247.435 95.2555 252.135 104.093 245.25Z" fill="black"/>
<path d="M201.662 302.967C201.662 306.398 200.703 309.634 198.787 312.676C196.87 315.731 194.738 317.259 192.391 317.259C190.544 317.259 188.891 316.551 187.432 315.134C185.96 313.731 184.849 311.891 184.099 309.613C183.349 307.336 182.974 304.954 182.974 302.467C182.974 298.676 183.828 295.356 185.537 292.509C186.662 290.62 188.037 289.294 189.662 288.53C190.495 288.155 191.356 287.967 192.245 287.967C193.926 287.967 195.488 288.648 196.932 290.009C198.377 291.384 199.53 293.086 200.391 295.113C201.238 297.155 201.662 299.127 201.662 301.03V302.967ZM192.182 289.197C188.294 289.197 186.349 293.231 186.349 301.301C186.349 304.676 186.419 306.947 186.557 308.113C186.849 310.558 187.398 312.419 188.203 313.697C189.203 315.252 190.641 316.03 192.516 316.03C196.044 316.03 197.953 312.467 198.245 305.342C198.287 304.315 198.307 303.079 198.307 301.634C198.307 297.842 197.898 294.905 197.078 292.822C196.12 290.405 194.488 289.197 192.182 289.197Z" fill="black"/>
<path d="M215.625 309.967C215.722 309.967 215.861 310.148 216.042 310.509C216.042 310.551 215.792 310.731 215.292 311.051C214.792 311.384 213.799 312.211 212.312 313.53C210.826 314.849 209.597 316.092 208.625 317.259H207.458C207.278 317.259 207.167 317.231 207.125 317.176C207.083 317.12 207.062 317.016 207.062 316.863V291.447C207.062 290.572 206.972 290.079 206.792 289.967C206.111 289.565 204.729 289.363 202.646 289.363C202.535 289.363 202.479 289.308 202.479 289.197V288.697C202.479 288.586 202.535 288.53 202.646 288.53H215.187C215.299 288.53 215.354 288.586 215.354 288.697V289.197C215.354 289.308 215.299 289.363 215.187 289.363C214.493 289.405 213.889 289.433 213.375 289.447C212.861 289.474 212.319 289.516 211.75 289.572C211.181 289.627 210.785 289.717 210.562 289.842C210.326 289.967 210.187 290.155 210.146 290.405C210.104 290.655 210.083 290.981 210.083 291.384V313.572C210.069 313.599 210.222 313.488 210.542 313.238C212.347 311.794 214 310.711 215.5 309.988L215.625 309.967Z" fill="black"/>
</g>
<defs>
<clipPath id="clip0_3_1517">
<rect width="222" height="324" fill="white"/>
</clipPath>
</defs>
</svg>
