<svg width="222" height="324" viewBox="0 0 222 324" fill="none" xmlns="http://www.w3.org/2000/svg">
<g clip-path="url(#clip0_3_1568)">
<rect width="222" height="324" rx="10" fill="white"/>
<path d="M29.0109 49.6765C24.8421 44.0367 22.6242 38.3049 22.6242 38.3049C22.6242 38.3049 20.4062 44.0367 16.2374 49.6765C12.0666 55.3143 6.87048 58.9816 6.87048 58.9816C6.87048 58.9816 12.0666 62.647 16.2374 68.2887C20.4062 73.9266 22.6242 79.6583 22.6242 79.6583C22.6242 79.6583 24.8421 73.9266 29.0109 68.2887C33.1817 62.647 38.3778 58.9816 38.3778 58.9816C38.3778 58.9816 33.1817 55.3143 29.0109 49.6765Z" fill="#DF0000"/>
<path d="M207.215 255.366C203.046 249.726 200.828 243.995 200.828 243.995C200.828 243.995 198.61 249.726 194.441 255.366C190.27 261.004 185.074 264.671 185.074 264.671C185.074 264.671 190.27 268.337 194.441 273.978C198.61 279.616 200.828 285.348 200.828 285.348C200.828 285.348 203.046 279.616 207.215 273.978C211.385 268.337 216.582 264.671 216.582 264.671C216.582 264.671 211.385 261.004 207.215 255.366Z" fill="#DF0000"/>
<path d="M83.3646 264.912C76.0587 255.029 72.1717 244.984 72.1717 244.984C72.1717 244.984 68.2847 255.029 60.9788 264.912C53.6694 274.793 44.5632 281.22 44.5632 281.22C44.5632 281.22 53.6694 287.643 60.9788 297.531C68.2847 307.411 72.1717 317.456 72.1717 317.456C72.1717 317.456 76.0587 307.411 83.3646 297.531C90.6739 287.643 99.7801 281.22 99.7801 281.22C99.7801 281.22 90.6739 274.793 83.3646 264.912Z" fill="#DF0000"/>
<path d="M83.3646 25.852C76.0587 15.9682 72.1717 5.92334 72.1717 5.92334C72.1717 5.92334 68.2847 15.9682 60.9788 25.852C53.6694 35.7324 44.5632 42.1594 44.5632 42.1594C44.5632 42.1594 53.6694 48.583 60.9788 58.4702C68.2847 68.3506 72.1717 78.3955 72.1717 78.3955C72.1717 78.3955 76.0587 68.3506 83.3646 58.4702C90.6739 48.583 99.7801 42.1594 99.7801 42.1594C99.7801 42.1594 90.6739 35.7324 83.3646 25.852Z" fill="#DF0000"/>
<path d="M83.3646 185.27C76.0587 175.386 72.1717 165.341 72.1717 165.341C72.1717 165.341 68.2847 175.386 60.9788 185.27C53.6694 195.15 44.5632 201.577 44.5632 201.577C44.5632 201.577 53.6694 208 60.9788 217.888C68.2847 227.768 72.1717 237.813 72.1717 237.813C72.1717 237.813 76.0587 227.768 83.3646 217.888C90.6739 208 99.7801 201.577 99.7801 201.577C99.7801 201.577 90.6739 195.15 83.3646 185.27Z" fill="#DF0000"/>
<path d="M83.3646 105.495C76.0587 95.6108 72.1717 85.5659 72.1717 85.5659C72.1717 85.5659 68.2847 95.6108 60.9788 105.495C53.6694 115.375 44.5632 121.802 44.5632 121.802C44.5632 121.802 53.6694 128.226 60.9788 138.113C68.2847 147.993 72.1717 158.038 72.1717 158.038C72.1717 158.038 76.0587 147.993 83.3646 138.113C90.6739 128.226 99.7801 121.802 99.7801 121.802C99.7801 121.802 90.6739 115.375 83.3646 105.495Z" fill="#DF0000"/>
<path d="M161.721 264.912C154.415 255.029 150.528 244.984 150.528 244.984C150.528 244.984 146.641 255.029 139.335 264.912C132.026 274.793 122.919 281.22 122.919 281.22C122.919 281.22 132.026 287.643 139.335 297.531C146.641 307.411 150.528 317.456 150.528 317.456C150.528 317.456 154.415 307.411 161.721 297.531C169.03 287.643 178.136 281.22 178.136 281.22C178.136 281.22 169.03 274.793 161.721 264.912Z" fill="#DF0000"/>
<path d="M161.721 25.852C154.415 15.9682 150.528 5.92334 150.528 5.92334C150.528 5.92334 146.641 15.9682 139.335 25.852C132.026 35.7324 122.919 42.1594 122.919 42.1594C122.919 42.1594 132.026 48.583 139.335 58.4702C146.641 68.3506 150.528 78.3955 150.528 78.3955C150.528 78.3955 154.415 68.3506 161.721 58.4702C169.03 48.583 178.136 42.1594 178.136 42.1594C178.136 42.1594 169.03 35.7324 161.721 25.852Z" fill="#DF0000"/>
<path d="M161.721 185.27C154.415 175.386 150.528 165.341 150.528 165.341C150.528 165.341 146.641 175.386 139.335 185.27C132.026 195.15 122.919 201.577 122.919 201.577C122.919 201.577 132.026 208 139.335 217.888C146.641 227.768 150.528 237.813 150.528 237.813C150.528 237.813 154.415 227.768 161.721 217.888C169.03 208 178.136 201.577 178.136 201.577C178.136 201.577 169.03 195.15 161.721 185.27Z" fill="#DF0000"/>
<path d="M161.721 105.495C154.415 95.6108 150.528 85.5659 150.528 85.5659C150.528 85.5659 146.641 95.6108 139.335 105.495C132.026 115.375 122.919 121.802 122.919 121.802C122.919 121.802 132.026 128.226 139.335 138.113C146.641 147.993 150.528 158.038 150.528 158.038C150.528 158.038 154.415 147.993 161.721 138.113C169.03 128.226 178.136 121.802 178.136 121.802C178.136 121.802 169.03 115.375 161.721 105.495Z" fill="#DF0000"/>
<path d="M122.144 66.1313C114.838 56.2475 110.951 46.2026 110.951 46.2026C110.951 46.2026 107.064 56.2475 99.7583 66.1313C92.449 76.0117 83.3428 82.4387 83.3428 82.4387C83.3428 82.4387 92.449 88.8623 99.7583 98.7495C107.064 108.63 110.951 118.675 110.951 118.675C110.951 118.675 114.838 108.63 122.144 98.7495C129.453 88.8623 138.56 82.4387 138.56 82.4387C138.56 82.4387 129.453 76.0117 122.144 66.1313Z" fill="#DF0000"/>
<path d="M121.87 224.81C114.564 214.926 110.677 204.881 110.677 204.881C110.677 204.881 106.79 214.926 99.4845 224.81C92.1752 234.69 83.069 241.117 83.069 241.117C83.069 241.117 92.1752 247.541 99.4845 257.428C106.79 267.309 110.677 277.353 110.677 277.353C110.677 277.353 114.564 267.309 121.87 257.428C129.18 247.541 138.286 241.117 138.286 241.117C138.286 241.117 129.18 234.69 121.87 224.81Z" fill="#DF0000"/>
<path d="M22.3384 20.064C22.3384 16.6335 23.2967 13.3973 25.2134 10.3557C27.13 7.30012 29.262 5.77234 31.6092 5.77234C33.4564 5.77234 35.1092 6.48067 36.5675 7.89734C38.0398 9.30012 39.1509 11.1404 39.9009 13.4182C40.6509 15.696 41.0259 18.0779 41.0259 20.564C41.0259 24.3557 40.1717 27.6751 38.4634 30.5223C37.3384 32.4112 35.9634 33.7376 34.3384 34.5015C33.505 34.8765 32.6439 35.064 31.755 35.064C30.0745 35.064 28.512 34.3835 27.0675 33.0223C25.6231 31.6473 24.4703 29.946 23.6092 27.9182C22.762 25.8765 22.3384 23.9043 22.3384 22.0015V20.064ZM31.8175 33.8348C35.7064 33.8348 37.6509 29.8001 37.6509 21.7307C37.6509 18.3557 37.5814 16.0848 37.4425 14.9182C37.1509 12.4737 36.6023 10.6126 35.7967 9.33484C34.7967 7.77928 33.3592 7.00151 31.4842 7.00151C27.9564 7.00151 26.0467 10.564 25.755 17.689C25.7134 18.7168 25.6925 19.9529 25.6925 21.3973C25.6925 25.189 26.1023 28.1265 26.9217 30.2098C27.88 32.6265 29.512 33.8348 31.8175 33.8348Z" fill="#DF0000"/>
<path d="M8.37504 13.064C8.27782 13.064 8.13893 12.8835 7.95837 12.5223C7.95837 12.4807 8.20837 12.3001 8.70837 11.9807C9.20837 11.6473 10.2014 10.821 11.6875 9.50151C13.1737 8.18206 14.4028 6.93901 15.375 5.77234H16.5417C16.7223 5.77234 16.8334 5.80012 16.875 5.85567C16.9167 5.91123 16.9375 6.0154 16.9375 6.16817V31.5848C16.9375 32.4598 17.0278 32.9529 17.2084 33.064C17.8889 33.4668 19.2709 33.6682 21.3542 33.6682C21.4653 33.6682 21.5209 33.7237 21.5209 33.8348V34.3348C21.5209 34.4459 21.4653 34.5015 21.3542 34.5015H8.81254C8.70143 34.5015 8.64587 34.4459 8.64587 34.3348V33.8348C8.64587 33.7237 8.70143 33.6682 8.81254 33.6682C9.50699 33.6265 10.1112 33.5987 10.625 33.5848C11.1389 33.5571 11.6806 33.5154 12.25 33.4598C12.8195 33.4043 13.2153 33.314 13.4375 33.189C13.6737 33.064 13.8125 32.8765 13.8542 32.6265C13.8959 32.3765 13.9167 32.0501 13.9167 31.6473V9.45984C13.9306 9.43206 13.7778 9.54317 13.4584 9.79317C11.6528 11.2376 10 12.321 8.50004 13.0432L8.37504 13.064Z" fill="#DF0000"/>
<path d="M202.662 303.133C202.662 306.563 201.703 309.799 199.787 312.841C197.87 315.897 195.738 317.424 193.391 317.424C191.544 317.424 189.891 316.716 188.432 315.299C186.96 313.897 185.849 312.056 185.099 309.778C184.349 307.501 183.974 305.119 183.974 302.633C183.974 298.841 184.828 295.522 186.537 292.674C187.662 290.785 189.037 289.459 190.662 288.695C191.495 288.32 192.356 288.133 193.245 288.133C194.926 288.133 196.488 288.813 197.932 290.174C199.377 291.549 200.53 293.251 201.391 295.278C202.238 297.32 202.662 299.292 202.662 301.195V303.133ZM193.182 289.362C189.294 289.362 187.349 293.397 187.349 301.466C187.349 304.841 187.419 307.112 187.557 308.278C187.849 310.723 188.398 312.584 189.203 313.862C190.203 315.417 191.641 316.195 193.516 316.195C197.044 316.195 198.953 312.633 199.245 305.508C199.287 304.48 199.307 303.244 199.307 301.799C199.307 298.008 198.898 295.07 198.078 292.987C197.12 290.57 195.488 289.362 193.182 289.362Z" fill="#DF0000"/>
<path d="M216.625 310.133C216.722 310.133 216.861 310.313 217.042 310.674C217.042 310.716 216.792 310.897 216.292 311.216C215.792 311.549 214.799 312.376 213.312 313.695C211.826 315.015 210.597 316.258 209.625 317.424H208.458C208.278 317.424 208.167 317.397 208.125 317.341C208.083 317.285 208.062 317.181 208.062 317.028V291.612C208.062 290.737 207.972 290.244 207.792 290.133C207.111 289.73 205.729 289.528 203.646 289.528C203.535 289.528 203.479 289.473 203.479 289.362V288.862C203.479 288.751 203.535 288.695 203.646 288.695H216.187C216.299 288.695 216.354 288.751 216.354 288.862V289.362C216.354 289.473 216.299 289.528 216.187 289.528C215.493 289.57 214.889 289.598 214.375 289.612C213.861 289.64 213.319 289.681 212.75 289.737C212.181 289.792 211.785 289.883 211.562 290.008C211.326 290.133 211.187 290.32 211.146 290.57C211.104 290.82 211.083 291.147 211.083 291.549V313.737C211.069 313.765 211.222 313.653 211.542 313.403C213.347 311.959 215 310.876 216.5 310.153L216.625 310.133Z" fill="#DF0000"/>
</g>
<defs>
<clipPath id="clip0_3_1568">
<rect width="222" height="324" fill="white"/>
</clipPath>
</defs>
</svg>
