<svg width="222" height="324" viewBox="0 0 222 324" fill="none" xmlns="http://www.w3.org/2000/svg">
<g clip-path="url(#clip0_3_1625)">
<rect width="222" height="324" rx="10" fill="white"/>
<path d="M31.1097 43.0432C23.87 43.0432 22.9033 50.3078 22.9033 50.3078C22.9033 50.3078 21.9367 43.0432 14.697 43.0432C9.62944 43.0432 5.04407 46.3005 5.04407 52.4452C5.04407 60.5643 19.7314 68.729 22.9033 80.651C25.9216 68.739 40.7626 60.5643 40.7626 52.4452C40.7626 46.3005 36.1773 43.0432 31.1097 43.0432Z" fill="#DF0000"/>
<path d="M192.002 278.995C199.241 278.995 200.208 271.73 200.208 271.73C200.208 271.73 201.175 278.995 208.414 278.995C213.482 278.995 218.067 275.737 218.067 269.593C218.067 261.474 203.38 253.309 200.208 241.387C197.19 253.299 182.349 261.474 182.349 269.593C182.349 275.737 186.934 278.995 192.002 278.995Z" fill="#DF0000"/>
<path d="M86.3039 8.79443C74.2875 8.79443 72.683 20.8521 72.683 20.8521C72.683 20.8521 71.0786 8.79443 59.0622 8.79443C50.6511 8.79443 43.0403 14.2008 43.0403 24.3998C43.0403 37.8758 67.4183 51.4275 72.683 71.2157C77.6927 51.4441 102.326 37.8758 102.326 24.3998C102.326 14.2008 94.715 8.79443 86.3039 8.79443Z" fill="#DF0000"/>
<path d="M59.0622 314.952C71.0786 314.952 72.6831 302.894 72.6831 302.894C72.6831 302.894 74.2875 314.952 86.3039 314.952C94.715 314.952 102.326 309.546 102.326 299.347C102.326 285.871 77.9478 272.319 72.6831 252.531C67.6734 272.302 43.0403 285.871 43.0403 299.347C43.0403 309.546 50.6511 314.952 59.0622 314.952Z" fill="#DF0000"/>
<path d="M86.3039 95.7742C74.2875 95.7742 72.683 107.832 72.683 107.832C72.683 107.832 71.0786 95.7742 59.0622 95.7742C50.6511 95.7742 43.0403 101.181 43.0403 111.379C43.0403 124.856 67.4183 138.407 72.683 158.195C77.6927 138.424 102.326 124.856 102.326 111.379C102.326 101.181 94.715 95.7742 86.3039 95.7742Z" fill="#DF0000"/>
<path d="M59.0622 225.019C71.0786 225.019 72.6831 212.961 72.6831 212.961C72.6831 212.961 74.2875 225.019 86.3039 225.019C94.715 225.019 102.326 219.612 102.326 209.413C102.326 195.937 77.9478 182.385 72.6831 162.597C67.6734 182.369 43.0403 195.937 43.0403 209.413C43.0403 219.612 50.6511 225.019 59.0622 225.019Z" fill="#DF0000"/>
<path d="M162.942 9.59277C150.926 9.59277 149.321 21.6505 149.321 21.6505C149.321 21.6505 147.717 9.59277 135.7 9.59277C127.289 9.59277 119.678 14.9992 119.678 25.1981C119.678 38.6742 144.056 52.2259 149.321 72.0141C154.331 52.2425 178.964 38.6742 178.964 25.1981C178.964 14.9992 171.353 9.59277 162.942 9.59277Z" fill="#DF0000"/>
<path d="M135.7 315.75C147.717 315.75 149.321 303.693 149.321 303.693C149.321 303.693 150.926 315.75 162.942 315.75C171.353 315.75 178.964 310.344 178.964 300.145C178.964 286.669 154.586 273.117 149.321 253.329C144.311 273.101 119.678 286.669 119.678 300.145C119.678 310.344 127.289 315.75 135.7 315.75Z" fill="#DF0000"/>
<path d="M162.942 96.5725C150.926 96.5725 149.321 108.63 149.321 108.63C149.321 108.63 147.717 96.5725 135.7 96.5725C127.289 96.5725 119.678 101.979 119.678 112.178C119.678 125.654 144.056 139.206 149.321 158.994C154.331 139.222 178.964 125.654 178.964 112.178C178.964 101.979 171.353 96.5725 162.942 96.5725Z" fill="#DF0000"/>
<path d="M135.7 225.817C147.717 225.817 149.321 213.759 149.321 213.759C149.321 213.759 150.926 225.817 162.942 225.817C171.353 225.817 178.964 220.411 178.964 210.212C178.964 196.736 154.586 183.184 149.321 163.396C144.311 183.167 119.678 196.736 119.678 210.212C119.678 220.411 127.289 225.817 135.7 225.817Z" fill="#DF0000"/>
<path d="M124.572 52.3955C112.556 52.3955 110.951 64.4532 110.951 64.4532C110.951 64.4532 109.347 52.3955 97.3303 52.3955C88.9191 52.3955 81.3083 57.8019 81.3083 68.0008C81.3083 81.4769 105.686 95.0286 110.951 114.817C115.961 95.0452 140.594 81.4769 140.594 68.0008C140.594 57.8019 132.983 52.3955 124.572 52.3955Z" fill="#DF0000"/>
<path d="M96.7105 270.814C108.727 270.814 110.331 258.757 110.331 258.757C110.331 258.757 111.936 270.814 123.952 270.814C132.363 270.814 139.974 265.408 139.974 255.209C139.974 241.733 115.596 228.181 110.331 208.393C105.322 228.165 80.6886 241.733 80.6886 255.209C80.6886 265.408 88.2994 270.814 96.7105 270.814Z" fill="#DF0000"/>
<path d="M22.3384 23.5092C22.3384 20.0786 23.2967 16.8425 25.2134 13.8009C27.13 10.7453 29.262 9.21753 31.6092 9.21753C33.4564 9.21753 35.1092 9.92586 36.5675 11.3425C38.0398 12.7453 39.1509 14.5856 39.9009 16.8634C40.6509 19.1411 41.0259 21.5231 41.0259 24.0092C41.0259 27.8009 40.1717 31.1203 38.4634 33.9675C37.3384 35.8564 35.9634 37.1828 34.3384 37.9467C33.505 38.3217 32.6439 38.5092 31.755 38.5092C30.0745 38.5092 28.512 37.8286 27.0675 36.4675C25.6231 35.0925 24.4703 33.3911 23.6092 31.3634C22.762 29.3217 22.3384 27.3495 22.3384 25.4467V23.5092ZM31.8175 37.28C35.7064 37.28 37.6509 33.2453 37.6509 25.1759C37.6509 21.8009 37.5814 19.53 37.4425 18.3634C37.1509 15.9189 36.6023 14.0578 35.7967 12.78C34.7967 11.2245 33.3592 10.4467 31.4842 10.4467C27.9564 10.4467 26.0467 14.0092 25.755 21.1342C25.7134 22.162 25.6925 23.3981 25.6925 24.8425C25.6925 28.6342 26.1023 31.5717 26.9217 33.655C27.88 36.0717 29.512 37.28 31.8175 37.28Z" fill="#DF0000"/>
<path d="M8.37504 16.5092C8.27782 16.5092 8.13893 16.3286 7.95837 15.9675C7.95837 15.9259 8.20837 15.7453 8.70837 15.4259C9.20837 15.0925 10.2014 14.2661 11.6875 12.9467C13.1737 11.6273 14.4028 10.3842 15.375 9.21753H16.5417C16.7223 9.21753 16.8334 9.24531 16.875 9.30086C16.9167 9.35642 16.9375 9.46059 16.9375 9.61336V35.03C16.9375 35.905 17.0278 36.3981 17.2084 36.5092C17.8889 36.912 19.2709 37.1134 21.3542 37.1134C21.4653 37.1134 21.5209 37.1689 21.5209 37.28V37.78C21.5209 37.8911 21.4653 37.9467 21.3542 37.9467H8.81254C8.70143 37.9467 8.64587 37.8911 8.64587 37.78V37.28C8.64587 37.1689 8.70143 37.1134 8.81254 37.1134C9.50699 37.0717 10.1112 37.0439 10.625 37.03C11.1389 37.0023 11.6806 36.9606 12.25 36.905C12.8195 36.8495 13.2153 36.7592 13.4375 36.6342C13.6737 36.5092 13.8125 36.3217 13.8542 36.0717C13.8959 35.8217 13.9167 35.4953 13.9167 35.0925V12.905C13.9306 12.8773 13.7778 12.9884 13.4584 13.2384C11.6528 14.6828 10 15.7661 8.50004 16.4884L8.37504 16.5092Z" fill="#DF0000"/>
<path d="M201.662 298.174C201.662 301.604 200.703 304.841 198.787 307.882C196.87 310.938 194.738 312.466 192.391 312.466C190.544 312.466 188.891 311.757 187.432 310.341C185.96 308.938 184.849 307.098 184.099 304.82C183.349 302.542 182.974 300.16 182.974 297.674C182.974 293.882 183.828 290.563 185.537 287.716C186.662 285.827 188.037 284.5 189.662 283.736C190.495 283.361 191.356 283.174 192.245 283.174C193.926 283.174 195.488 283.854 196.932 285.216C198.377 286.591 199.53 288.292 200.391 290.32C201.238 292.361 201.662 294.334 201.662 296.236V298.174ZM192.182 284.403C188.294 284.403 186.349 288.438 186.349 296.507C186.349 299.882 186.419 302.153 186.557 303.32C186.849 305.764 187.398 307.625 188.203 308.903C189.203 310.459 190.641 311.236 192.516 311.236C196.044 311.236 197.953 307.674 198.245 300.549C198.287 299.521 198.307 298.285 198.307 296.841C198.307 293.049 197.898 290.111 197.078 288.028C196.12 285.611 194.488 284.403 192.182 284.403Z" fill="#DF0000"/>
<path d="M215.625 305.174C215.722 305.174 215.861 305.354 216.042 305.716C216.042 305.757 215.792 305.938 215.292 306.257C214.792 306.591 213.799 307.417 212.312 308.736C210.826 310.056 209.597 311.299 208.625 312.466H207.458C207.278 312.466 207.167 312.438 207.125 312.382C207.083 312.327 207.062 312.223 207.062 312.07V286.653C207.062 285.778 206.972 285.285 206.792 285.174C206.111 284.771 204.729 284.57 202.646 284.57C202.535 284.57 202.479 284.514 202.479 284.403V283.903C202.479 283.792 202.535 283.736 202.646 283.736H215.187C215.299 283.736 215.354 283.792 215.354 283.903V284.403C215.354 284.514 215.299 284.57 215.187 284.57C214.493 284.611 213.889 284.639 213.375 284.653C212.861 284.681 212.319 284.723 211.75 284.778C211.181 284.834 210.785 284.924 210.562 285.049C210.326 285.174 210.187 285.361 210.146 285.611C210.104 285.861 210.083 286.188 210.083 286.591V308.778C210.069 308.806 210.222 308.695 210.542 308.445C212.347 307 214 305.917 215.5 305.195L215.625 305.174Z" fill="#DF0000"/>
</g>
<defs>
<clipPath id="clip0_3_1625">
<rect width="222" height="324" fill="white"/>
</clipPath>
</defs>
</svg>
