<svg width="222" height="324" viewBox="0 0 222 324" fill="none" xmlns="http://www.w3.org/2000/svg">
<g clip-path="url(#clip0_3_1692)">
<rect width="222" height="324" rx="10" fill="white"/>
<path d="M38.6416 65.7946C38.1548 58.3334 23.0588 44.29 22.572 40.7773C22.0853 44.2882 6.98925 58.3316 6.50248 65.7946C6.16254 71.0692 9.9119 73.2559 13.3213 73.2559C17.0127 73.2162 20.0615 68.1051 21.1117 67.1114C21.5985 68.4282 17.8873 79.4003 16.7287 79.4003H28.4173C27.2587 79.4003 23.5476 68.4282 24.0344 67.1114C24.9539 68.0242 27.6492 73.1029 31.8268 73.2559C35.2342 73.254 38.9815 71.0692 38.6416 65.7946Z" fill="black"/>
<path d="M98.8949 52.3742C98.0403 39.2743 71.5358 14.618 70.6812 8.45068C69.8266 14.6148 43.3221 39.2711 42.4675 52.3742C41.8706 61.6348 48.4535 65.4741 54.4395 65.4741C60.9205 65.4044 66.2733 56.4307 68.1173 54.6861C68.9719 56.9981 62.4562 76.262 60.422 76.262H80.9439C78.9098 76.262 72.394 56.9981 73.2487 54.6861C74.8631 56.2886 79.5953 65.2055 86.93 65.4741C92.9124 65.4708 99.4918 61.6348 98.8949 52.3742Z" fill="black"/>
<path d="M184.231 258.352C184.717 265.813 199.813 279.857 200.3 283.369C200.787 279.859 215.883 265.815 216.37 258.352C216.71 253.078 212.96 250.891 209.551 250.891C205.859 250.931 202.811 256.042 201.76 257.035C201.274 255.719 204.985 244.746 206.143 244.746H194.455C195.613 244.746 199.325 255.719 198.838 257.035C197.918 256.123 195.223 251.044 191.045 250.891C187.638 250.893 183.891 253.078 184.231 258.352Z" fill="black"/>
<path d="M99.3334 136.284C98.4788 123.184 71.9743 98.5279 71.1197 92.3606C70.265 98.5247 43.7606 123.181 42.906 136.284C42.3091 145.545 48.892 149.384 54.878 149.384C61.359 149.314 66.7118 140.341 68.5558 138.596C69.4104 140.908 62.8946 160.172 60.8605 160.172H81.3824C79.3482 160.172 72.8325 140.908 73.6871 138.596C75.3016 140.199 80.0338 149.115 87.3684 149.384C93.3509 149.381 99.9302 145.545 99.3334 136.284Z" fill="black"/>
<path d="M43.5052 273.533C44.3599 286.632 70.8643 311.289 71.7189 317.456C72.5736 311.292 99.078 286.636 99.9327 273.533C100.53 264.272 93.9467 260.433 87.9606 260.433C81.4796 260.502 76.1268 269.476 74.2829 271.221C73.4282 268.909 79.944 249.645 81.9782 249.645H61.4562C63.4904 249.645 70.0061 268.909 69.1515 271.221C67.537 269.618 62.8048 260.701 55.4702 260.433C49.4877 260.436 42.9084 264.272 43.5052 273.533Z" fill="black"/>
<path d="M43.0669 191.756C43.9215 204.856 70.4259 229.512 71.2806 235.679C72.1352 229.515 98.6397 204.859 99.4943 191.756C100.091 182.495 93.5083 178.656 87.5223 178.656C81.0413 178.726 75.6884 187.699 73.8445 189.444C72.9899 187.132 79.5056 167.868 81.5398 167.868H61.0178C63.052 167.868 69.5678 187.132 68.7131 189.444C67.0987 187.841 62.3664 178.924 55.0318 178.656C49.0493 178.659 42.47 182.495 43.0669 191.756Z" fill="black"/>
<path d="M181.518 52.1235C180.663 39.0236 154.159 14.3673 153.304 8.19995C152.45 14.364 125.945 39.0203 125.091 52.1235C124.494 61.3841 131.077 65.2233 137.063 65.2233C143.544 65.1536 148.896 56.18 150.74 54.4354C151.595 56.7473 145.079 76.0113 143.045 76.0113H163.567C161.533 76.0113 155.017 56.7473 155.872 54.4354C157.486 56.0379 162.218 64.9548 169.553 65.2233C175.535 65.2201 182.115 61.3841 181.518 52.1235Z" fill="black"/>
<path d="M181.956 136.034C181.102 122.934 154.597 98.2774 153.743 92.1101C152.888 98.2742 126.384 122.931 125.529 136.034C124.932 145.294 131.515 149.133 137.501 149.133C143.982 149.064 149.335 140.09 151.179 138.346C152.033 140.657 145.518 159.921 143.484 159.921H164.005C161.971 159.921 155.456 140.657 156.31 138.346C157.925 139.948 162.657 148.865 169.991 149.133C175.974 149.13 182.553 145.294 181.956 136.034Z" fill="black"/>
<path d="M126.128 273.282C126.983 286.382 153.487 311.038 154.342 317.205C155.197 311.041 181.701 286.385 182.556 273.282C183.153 264.021 176.57 260.182 170.584 260.182C164.103 260.252 158.75 269.225 156.906 270.97C156.051 268.658 162.567 249.394 164.601 249.394H144.079C146.114 249.394 152.629 268.658 151.775 270.97C150.16 269.367 145.428 260.45 138.093 260.182C132.111 260.185 125.532 264.021 126.128 273.282Z" fill="black"/>
<path d="M125.69 191.505C126.545 204.605 153.049 229.261 153.904 235.429C154.758 229.265 181.263 204.608 182.117 191.505C182.714 182.245 176.131 178.405 170.145 178.405C163.664 178.475 158.312 187.449 156.468 189.193C155.613 186.881 162.129 167.617 164.163 167.617H143.641C145.675 167.617 152.191 186.881 151.336 189.193C149.722 187.591 144.99 178.674 137.655 178.405C131.673 178.409 125.093 182.245 125.69 191.505Z" fill="black"/>
<path d="M140.417 95.581C139.562 82.4811 113.057 57.8248 112.203 51.6575C111.348 57.8215 84.8437 82.4779 83.9891 95.581C83.3922 104.842 89.9751 108.681 95.9611 108.681C102.442 108.611 107.795 99.6375 109.639 97.8929C110.494 100.205 103.978 119.469 101.944 119.469H122.466C120.431 119.469 113.916 100.205 114.77 97.8929C116.385 99.4954 121.117 108.412 128.452 108.681C134.434 108.678 141.013 104.842 140.417 95.581Z" fill="black"/>
<path d="M84.4275 230.701C85.2821 243.801 111.787 268.457 112.641 274.625C113.496 268.46 140 243.804 140.855 230.701C141.452 221.44 134.869 217.601 128.883 217.601C122.402 217.671 117.049 226.644 115.205 228.389C114.35 226.077 120.866 206.813 122.9 206.813H102.378C104.413 206.813 110.928 226.077 110.074 228.389C108.459 226.787 103.727 217.87 96.3924 217.601C90.4099 217.604 83.8306 221.44 84.4275 230.701Z" fill="black"/>
<path d="M22.3384 22.5624C22.3384 19.1319 23.2967 15.8958 25.2134 12.8541C27.13 9.79853 29.262 8.27075 31.6092 8.27075C33.4564 8.27075 35.1092 8.97909 36.5675 10.3958C38.0398 11.7985 39.1509 13.6388 39.9009 15.9166C40.6509 18.1944 41.0259 20.5763 41.0259 23.0624C41.0259 26.8541 40.1717 30.1735 38.4634 33.0208C37.3384 34.9096 35.9634 36.236 34.3384 36.9999C33.505 37.3749 32.6439 37.5624 31.755 37.5624C30.0745 37.5624 28.512 36.8819 27.0675 35.5208C25.6231 34.1458 24.4703 32.4444 23.6092 30.4166C22.762 28.3749 22.3384 26.4027 22.3384 24.4999V22.5624ZM31.8175 36.3333C35.7064 36.3333 37.6509 32.2985 37.6509 24.2291C37.6509 20.8541 37.5814 18.5833 37.4425 17.4166C37.1509 14.9721 36.6023 13.111 35.7967 11.8333C34.7967 10.2777 33.3592 9.49992 31.4842 9.49992C27.9564 9.49992 26.0467 13.0624 25.755 20.1874C25.7134 21.2152 25.6925 22.4513 25.6925 23.8958C25.6925 27.6874 26.1023 30.6249 26.9217 32.7083C27.88 35.1249 29.512 36.3333 31.8175 36.3333Z" fill="black"/>
<path d="M8.37504 15.5624C8.27782 15.5624 8.13893 15.3819 7.95837 15.0208C7.95837 14.9791 8.20837 14.7985 8.70837 14.4791C9.20837 14.1458 10.2014 13.3194 11.6875 11.9999C13.1737 10.6805 14.4028 9.43742 15.375 8.27075H16.5417C16.7223 8.27075 16.8334 8.29853 16.875 8.35409C16.9167 8.40964 16.9375 8.51381 16.9375 8.66659V34.0833C16.9375 34.9583 17.0278 35.4513 17.2084 35.5624C17.8889 35.9652 19.2709 36.1666 21.3542 36.1666C21.4653 36.1666 21.5209 36.2221 21.5209 36.3333V36.8333C21.5209 36.9444 21.4653 36.9999 21.3542 36.9999H8.81254C8.70143 36.9999 8.64587 36.9444 8.64587 36.8333V36.3333C8.64587 36.2221 8.70143 36.1666 8.81254 36.1666C9.50699 36.1249 10.1112 36.0971 10.625 36.0833C11.1389 36.0555 11.6806 36.0138 12.25 35.9583C12.8195 35.9027 13.2153 35.8124 13.4375 35.6874C13.6737 35.5624 13.8125 35.3749 13.8542 35.1249C13.8959 34.8749 13.9167 34.5485 13.9167 34.1458V11.9583C13.9306 11.9305 13.7778 12.0416 13.4584 12.2916C11.6528 13.736 10 14.8194 8.50004 15.5416L8.37504 15.5624Z" fill="black"/>
<path d="M201.662 300.776C201.662 304.207 200.703 307.443 198.787 310.484C196.87 313.54 194.738 315.068 192.391 315.068C190.544 315.068 188.891 314.359 187.432 312.943C185.96 311.54 184.849 309.7 184.099 307.422C183.349 305.144 182.974 302.762 182.974 300.276C182.974 296.484 183.828 293.165 185.537 290.318C186.662 288.429 188.037 287.102 189.662 286.338C190.495 285.963 191.356 285.776 192.245 285.776C193.926 285.776 195.488 286.457 196.932 287.818C198.377 289.193 199.53 290.894 200.391 292.922C201.238 294.963 201.662 296.936 201.662 298.838V300.776ZM192.182 287.005C188.294 287.005 186.349 291.04 186.349 299.109C186.349 302.484 186.419 304.755 186.557 305.922C186.849 308.366 187.398 310.227 188.203 311.505C189.203 313.061 190.641 313.838 192.516 313.838C196.044 313.838 197.953 310.276 198.245 303.151C198.287 302.123 198.307 300.887 198.307 299.443C198.307 295.651 197.898 292.713 197.078 290.63C196.12 288.213 194.488 287.005 192.182 287.005Z" fill="black"/>
<path d="M215.625 307.776C215.722 307.776 215.861 307.957 216.042 308.318C216.042 308.359 215.792 308.54 215.292 308.859C214.792 309.193 213.799 310.019 212.312 311.338C210.826 312.658 209.597 313.901 208.625 315.068H207.458C207.278 315.068 207.167 315.04 207.125 314.984C207.083 314.929 207.062 314.825 207.062 314.672V289.255C207.062 288.38 206.972 287.887 206.792 287.776C206.111 287.373 204.729 287.172 202.646 287.172C202.535 287.172 202.479 287.116 202.479 287.005V286.505C202.479 286.394 202.535 286.338 202.646 286.338H215.187C215.299 286.338 215.354 286.394 215.354 286.505V287.005C215.354 287.116 215.299 287.172 215.187 287.172C214.493 287.213 213.889 287.241 213.375 287.255C212.861 287.283 212.319 287.325 211.75 287.38C211.181 287.436 210.785 287.526 210.562 287.651C210.326 287.776 210.187 287.963 210.146 288.213C210.104 288.463 210.083 288.79 210.083 289.193V311.38C210.069 311.408 210.222 311.297 210.542 311.047C212.347 309.602 214 308.519 215.5 307.797L215.625 307.776Z" fill="black"/>
</g>
<defs>
<clipPath id="clip0_3_1692">
<rect width="222" height="324" fill="white"/>
</clipPath>
</defs>
</svg>
