<svg width="222" height="324" viewBox="0 0 222 324" fill="none" xmlns="http://www.w3.org/2000/svg">
<g clip-path="url(#clip0_1_3104)">
<rect width="222" height="324" rx="10" fill="white"/>
<path d="M13.7293 15.9939L13.2293 16.0564C13.0904 16.0564 13.021 16.0148 13.021 15.9314C13.021 15.5425 13.2501 14.6884 13.7085 13.3689C14.1668 12.0356 14.6946 11.0564 15.2918 10.4314C17.3057 8.36199 19.5696 7.32727 22.0835 7.32727C24.5973 7.32727 26.6182 8.11894 28.146 9.70227C29.6737 11.2717 30.4376 13.2509 30.4376 15.6398C30.4376 18.0148 28.896 20.6398 25.8126 23.5148C24.8404 24.4314 24.0279 25.1675 23.3751 25.7231C22.5418 26.4314 21.0696 27.8134 18.9585 29.8689C16.8612 31.9106 15.8126 33.0356 15.8126 33.2439H27.5418C28.5557 33.2439 29.271 32.9592 29.6876 32.3898C29.9376 32.0564 30.2571 31.1745 30.646 29.7439H31.4376L30.5418 35.3689C30.4723 35.6884 30.3126 35.9175 30.0626 36.0564H12.7293C12.6598 36.0564 12.6251 35.8759 12.6251 35.5148C12.6251 35.1675 12.9446 34.6259 13.5835 33.8898C14.2362 33.1537 15.0626 32.2856 16.0626 31.2856C17.0765 30.2717 18.4515 28.8898 20.1876 27.1398C24.6043 22.6537 26.8126 19.0634 26.8126 16.3689C26.8126 14.7162 26.2085 13.2231 25.0001 11.8898C23.8057 10.5425 22.4098 9.86894 20.8126 9.86894C19.2293 9.86894 17.8126 10.4037 16.5626 11.4731C15.3404 12.5425 14.514 13.9245 14.0835 15.6189C14.0279 15.8689 13.9098 15.9939 13.7293 15.9939Z" fill="black"/>
<path d="M27.491 58.3997C27.491 58.3997 32.179 54.6308 32.179 49.4061C32.179 46.3474 29.4767 41.2694 23.2293 41.2694C16.9819 41.2694 14.2796 46.3494 14.2796 49.4061C14.2796 54.6308 18.9676 58.3997 18.9676 58.3997C13.7604 54.3234 4.47714 57.1064 4.47714 65.2529C4.47714 69.3312 7.79331 73.8181 13.0005 73.8181C19.2479 73.8181 21.9502 66.9648 21.9502 66.9648C21.9502 66.9648 22.7437 74.7761 18.1149 78.9575H28.3437C23.7149 74.7781 24.5084 66.9648 24.5084 66.9648C24.5084 66.9648 27.2107 73.8181 33.4581 73.8181C38.6672 73.8181 41.9814 69.3292 41.9814 65.2529C41.9814 57.1064 32.6981 54.3234 27.491 58.3997Z" fill="black"/>
<path d="M208.387 307.136L208.887 307.073C209.026 307.073 209.095 307.115 209.095 307.198C209.095 307.587 208.866 308.441 208.408 309.761C207.95 311.094 207.422 312.073 206.825 312.698C204.811 314.768 202.547 315.802 200.033 315.802C197.519 315.802 195.498 315.011 193.97 313.427C192.443 311.858 191.679 309.879 191.679 307.49C191.679 305.115 193.22 302.49 196.304 299.615C197.276 298.698 198.088 297.962 198.741 297.406C199.575 296.698 201.047 295.316 203.158 293.261C205.255 291.219 206.304 290.094 206.304 289.886H194.575C193.561 289.886 192.845 290.17 192.429 290.74C192.179 291.073 191.859 291.955 191.47 293.386H190.679L191.575 287.761C191.644 287.441 191.804 287.212 192.054 287.073H209.387C209.456 287.073 209.491 287.254 209.491 287.615C209.491 287.962 209.172 288.504 208.533 289.24C207.88 289.976 207.054 290.844 206.054 291.844C205.04 292.858 203.665 294.24 201.929 295.99C197.512 300.476 195.304 304.066 195.304 306.761C195.304 308.413 195.908 309.906 197.116 311.24C198.311 312.587 199.706 313.261 201.304 313.261C202.887 313.261 204.304 312.726 205.554 311.656C206.776 310.587 207.602 309.205 208.033 307.511C208.088 307.261 208.206 307.136 208.387 307.136Z" fill="black"/>
<path d="M194.625 265.351C194.625 265.351 189.937 269.119 189.937 274.344C189.937 277.403 192.64 282.481 198.887 282.481C205.135 282.481 207.837 277.401 207.837 274.344C207.837 269.119 203.149 265.351 203.149 265.351C208.356 269.427 217.639 266.644 217.639 258.497C217.639 254.419 214.323 249.932 209.116 249.932C202.868 249.932 200.166 256.785 200.166 256.785C200.166 256.785 199.373 248.974 204.001 244.793H193.773C198.402 248.972 197.608 256.785 197.608 256.785C197.608 256.785 194.906 249.932 188.658 249.932C183.449 249.932 180.135 254.421 180.135 258.497C180.135 266.644 189.418 269.427 194.625 265.351Z" fill="black"/>
<path d="M119.011 74.1014C119.011 74.1014 126.939 67.7275 126.939 58.8912C126.939 53.7183 122.369 45.1302 111.803 45.1302C101.238 45.1302 96.6674 53.7216 96.6674 58.8912C96.6674 67.7275 104.596 74.1014 104.596 74.1014C95.7895 67.2075 80.0893 71.9142 80.0893 85.6919C80.0893 92.5892 85.6977 100.178 94.5042 100.178C105.07 100.178 109.64 88.587 109.64 88.587C109.64 88.587 110.982 101.798 103.154 108.87H120.453C112.625 101.801 113.967 88.587 113.967 88.587C113.967 88.587 118.537 100.178 129.103 100.178C137.913 100.178 143.518 92.5859 143.518 85.6919C143.518 71.9142 127.817 67.2075 119.011 74.1014Z" fill="black"/>
<path d="M104.655 251.337C104.655 251.337 96.7269 257.71 96.7269 266.547C96.7269 271.72 101.297 280.308 111.863 280.308C122.429 280.308 126.999 271.716 126.999 266.547C126.999 257.71 119.07 251.337 119.07 251.337C127.877 258.23 143.577 253.524 143.577 239.746C143.577 232.849 137.969 225.26 129.162 225.26C118.596 225.26 114.026 236.851 114.026 236.851C114.026 236.851 112.684 223.64 120.513 216.568H103.213C111.042 223.637 109.7 236.851 109.7 236.851C109.7 236.851 105.13 225.26 94.5637 225.26C85.7538 225.26 80.1488 232.852 80.1488 239.746C80.1488 253.524 95.849 258.23 104.655 251.337Z" fill="black"/>
</g>
<defs>
<clipPath id="clip0_1_3104">
<rect width="222" height="324" fill="white"/>
</clipPath>
</defs>
</svg>
