<svg width="222" height="324" viewBox="0 0 222 324" fill="none" xmlns="http://www.w3.org/2000/svg">
<g clip-path="url(#clip0_3_286)">
<rect width="222" height="324" rx="10" fill="white"/>
<path d="M13.1484 14.4886L12.6484 14.5511C12.5096 14.5511 12.4401 14.5094 12.4401 14.4261C12.4401 14.0372 12.6693 13.183 13.1276 11.8636C13.5859 10.5302 14.1137 9.55107 14.7109 8.92607C16.7248 6.85662 18.9887 5.8219 21.5026 5.8219C24.0165 5.8219 26.0373 6.61357 27.5651 8.1969C29.0929 9.76634 29.8568 11.7455 29.8568 14.1344C29.8568 16.5094 28.3151 19.1344 25.2318 22.0094C24.2596 22.9261 23.4471 23.6622 22.7943 24.2177C21.9609 24.9261 20.4887 26.308 18.3776 28.3636C16.2804 30.4052 15.2318 31.5302 15.2318 31.7386H26.9609C27.9748 31.7386 28.6901 31.4538 29.1068 30.8844C29.3568 30.5511 29.6762 29.6691 30.0651 28.2386H30.8568L29.9609 33.8636C29.8915 34.183 29.7318 34.4122 29.4818 34.5511H12.1484C12.079 34.5511 12.0443 34.3705 12.0443 34.0094C12.0443 33.6622 12.3637 33.1205 13.0026 32.3844C13.6554 31.6483 14.4818 30.7802 15.4818 29.7802C16.4957 28.7663 17.8707 27.3844 19.6068 25.6344C24.0234 21.1483 26.2318 17.558 26.2318 14.8636C26.2318 13.2108 25.6276 11.7177 24.4193 10.3844C23.2248 9.03718 21.829 8.36357 20.2318 8.36357C18.6484 8.36357 17.2318 8.89829 15.9818 9.96773C14.7596 11.0372 13.9332 12.4191 13.5026 14.1136C13.4471 14.3636 13.329 14.4886 13.1484 14.4886Z" fill="#DF0000"/>
<path d="M209.963 309.683L210.463 309.62C210.602 309.62 210.671 309.662 210.671 309.745C210.671 310.134 210.442 310.988 209.984 312.308C209.526 313.641 208.998 314.62 208.401 315.245C206.387 317.315 204.123 318.349 201.609 318.349C199.095 318.349 197.074 317.558 195.546 315.974C194.019 314.405 193.255 312.426 193.255 310.037C193.255 307.662 194.796 305.037 197.88 302.162C198.852 301.245 199.664 300.509 200.317 299.954C201.151 299.245 202.623 297.863 204.734 295.808C206.831 293.766 207.88 292.641 207.88 292.433H196.151C195.137 292.433 194.421 292.717 194.005 293.287C193.755 293.62 193.435 294.502 193.046 295.933H192.255L193.151 290.308C193.22 289.988 193.38 289.759 193.63 289.62H210.963C211.032 289.62 211.067 289.801 211.067 290.162C211.067 290.509 210.748 291.051 210.109 291.787C209.456 292.523 208.63 293.391 207.63 294.391C206.616 295.405 205.241 296.787 203.505 298.537C199.088 303.023 196.88 306.613 196.88 309.308C196.88 310.96 197.484 312.454 198.692 313.787C199.887 315.134 201.282 315.808 202.88 315.808C204.463 315.808 205.88 315.273 207.13 314.204C208.352 313.134 209.178 311.752 209.609 310.058C209.664 309.808 209.782 309.683 209.963 309.683Z" fill="#DF0000"/>
<path d="M29.0108 49.6762C24.842 44.0364 22.624 38.3047 22.624 38.3047C22.624 38.3047 20.4061 44.0364 16.2372 49.6762C12.0665 55.3141 6.87036 58.9814 6.87036 58.9814C6.87036 58.9814 12.0665 62.6467 16.2372 68.2885C20.4061 73.9263 22.624 79.6581 22.624 79.6581C22.624 79.6581 24.842 73.9263 29.0108 68.2885C33.1816 62.6467 38.3777 58.9814 38.3777 58.9814C38.3777 58.9814 33.1816 55.3141 29.0108 49.6762Z" fill="#DF0000"/>
<path d="M207.215 255.366C203.046 249.726 200.828 243.995 200.828 243.995C200.828 243.995 198.61 249.726 194.441 255.366C190.27 261.004 185.074 264.671 185.074 264.671C185.074 264.671 190.27 268.337 194.441 273.978C198.61 279.616 200.828 285.348 200.828 285.348C200.828 285.348 203.046 279.616 207.215 273.978C211.385 268.337 216.582 264.671 216.582 264.671C216.582 264.671 211.385 261.004 207.215 255.366Z" fill="#DF0000"/>
<path d="M121.764 229.055C114.459 219.171 110.572 209.126 110.572 209.126C110.572 209.126 106.685 219.171 99.3787 229.055C92.0693 238.936 82.9631 245.363 82.9631 245.363C82.9631 245.363 92.0693 251.786 99.3787 261.673C106.685 271.554 110.572 281.599 110.572 281.599C110.572 281.599 114.459 271.554 121.764 261.673C129.074 251.786 138.18 245.363 138.18 245.363C138.18 245.363 129.074 238.936 121.764 229.055Z" fill="#DF0000"/>
<path d="M121.764 57.852C114.459 47.9682 110.572 37.9233 110.572 37.9233C110.572 37.9233 106.685 47.9682 99.3787 57.852C92.0693 67.7324 82.9631 74.1594 82.9631 74.1594C82.9631 74.1594 92.0693 80.583 99.3787 90.4702C106.685 100.351 110.572 110.395 110.572 110.395C110.572 110.395 114.459 100.351 121.764 90.4702C129.074 80.583 138.18 74.1594 138.18 74.1594C138.18 74.1594 129.074 67.7324 121.764 57.852Z" fill="#DF0000"/>
</g>
<defs>
<clipPath id="clip0_3_286">
<rect width="222" height="324" fill="white"/>
</clipPath>
</defs>
</svg>
