<svg width="222" height="324" viewBox="0 0 222 324" fill="none" xmlns="http://www.w3.org/2000/svg">
<g clip-path="url(#clip0_3_319)">
<rect width="222" height="324" rx="10" fill="white"/>
<path d="M14.3881 16.6217L13.8881 16.6842C13.7492 16.6842 13.6797 16.6426 13.6797 16.5592C13.6797 16.1704 13.9089 15.3162 14.3672 13.9967C14.8256 12.6634 15.3533 11.6842 15.9506 11.0592C17.9645 8.9898 20.2283 7.95508 22.7422 7.95508C25.2561 7.95508 27.277 8.74675 28.8047 10.3301C30.3325 11.8995 31.0964 13.8787 31.0964 16.2676C31.0964 18.6426 29.5547 21.2676 26.4714 24.1426C25.4992 25.0592 24.6867 25.7954 24.0339 26.3509C23.2006 27.0592 21.7283 28.4412 19.6172 30.4967C17.52 32.5384 16.4714 33.6634 16.4714 33.8717H28.2006C29.2145 33.8717 29.9297 33.587 30.3464 33.0176C30.5964 32.6842 30.9159 31.8023 31.3047 30.3717H32.0964L31.2006 35.9967C31.1311 36.3162 30.9714 36.5454 30.7214 36.6842H13.3881C13.3186 36.6842 13.2839 36.5037 13.2839 36.1426C13.2839 35.7954 13.6033 35.2537 14.2422 34.5176C14.895 33.7815 15.7214 32.9134 16.7214 31.9134C17.7353 30.8995 19.1103 29.5176 20.8464 27.7676C25.2631 23.2815 27.4714 19.6912 27.4714 16.9967C27.4714 15.344 26.8672 13.8509 25.6589 12.5176C24.4645 11.1704 23.0686 10.4967 21.4714 10.4967C19.8881 10.4967 18.4714 11.0315 17.2214 12.1009C15.9992 13.1704 15.1728 14.5523 14.7422 16.2467C14.6867 16.4967 14.5686 16.6217 14.3881 16.6217Z" fill="#DF0000"/>
<path d="M31.1097 43.0432C23.87 43.0432 22.9033 50.3078 22.9033 50.3078C22.9033 50.3078 21.9367 43.0432 14.697 43.0432C9.62944 43.0432 5.04407 46.3005 5.04407 52.4452C5.04407 60.5643 19.7314 68.729 22.9033 80.651C25.9216 68.739 40.7626 60.5643 40.7626 52.4452C40.7626 46.3005 36.1773 43.0432 31.1097 43.0432Z" fill="#DF0000"/>
<path d="M209.069 305.416L209.569 305.354C209.708 305.354 209.778 305.395 209.778 305.479C209.778 305.867 209.549 306.722 209.09 308.041C208.632 309.374 208.104 310.354 207.507 310.979C205.493 313.048 203.229 314.083 200.715 314.083C198.201 314.083 196.18 313.291 194.653 311.708C193.125 310.138 192.361 308.159 192.361 305.77C192.361 303.395 193.903 300.77 196.986 297.895C197.958 296.979 198.771 296.242 199.424 295.687C200.257 294.979 201.729 293.597 203.84 291.541C205.937 289.499 206.986 288.374 206.986 288.166H195.257C194.243 288.166 193.528 288.451 193.111 289.02C192.861 289.354 192.542 290.236 192.153 291.666H191.361L192.257 286.041C192.326 285.722 192.486 285.492 192.736 285.354H210.069C210.139 285.354 210.174 285.534 210.174 285.895C210.174 286.242 209.854 286.784 209.215 287.52C208.562 288.256 207.736 289.124 206.736 290.124C205.722 291.138 204.347 292.52 202.611 294.27C198.194 298.756 195.986 302.347 195.986 305.041C195.986 306.694 196.59 308.187 197.799 309.52C198.993 310.867 200.389 311.541 201.986 311.541C203.569 311.541 204.986 311.006 206.236 309.937C207.458 308.867 208.285 307.486 208.715 305.791C208.771 305.541 208.889 305.416 209.069 305.416Z" fill="#DF0000"/>
<path d="M192.002 278.995C199.241 278.995 200.208 271.73 200.208 271.73C200.208 271.73 201.175 278.995 208.414 278.995C213.482 278.995 218.067 275.737 218.067 269.593C218.067 261.474 203.38 253.309 200.208 241.387C197.19 253.299 182.349 261.474 182.349 269.593C182.349 275.737 186.934 278.995 192.002 278.995Z" fill="#DF0000"/>
<path d="M125.222 44.6025C113.206 44.6025 111.601 56.6603 111.601 56.6603C111.601 56.6603 109.997 44.6025 97.9805 44.6025C89.5694 44.6025 81.9586 50.0089 81.9586 60.2079C81.9586 73.6839 106.337 87.2356 111.601 107.024C116.611 87.2522 141.244 73.6839 141.244 60.2079C141.244 50.0089 133.633 44.6025 125.222 44.6025Z" fill="#DF0000"/>
<path d="M97.9805 278.227C109.997 278.227 111.601 266.169 111.601 266.169C111.601 266.169 113.206 278.227 125.222 278.227C133.633 278.227 141.244 272.82 141.244 262.621C141.244 249.145 116.866 235.594 111.601 215.806C106.592 235.577 81.9586 249.145 81.9586 262.621C81.9586 272.82 89.5694 278.227 97.9805 278.227Z" fill="#DF0000"/>
</g>
<defs>
<clipPath id="clip0_3_319">
<rect width="222" height="324" fill="white"/>
</clipPath>
</defs>
</svg>
