<svg width="222" height="324" viewBox="0 0 222 324" fill="none" xmlns="http://www.w3.org/2000/svg">
<g clip-path="url(#clip0_3_344)">
<rect width="222" height="324" rx="10" fill="white"/>
<path d="M14.0831 16.6217L13.5831 16.6842C13.4443 16.6842 13.3748 16.6426 13.3748 16.5592C13.3748 16.1704 13.604 15.3162 14.0623 13.9967C14.5206 12.6634 15.0484 11.6842 15.6456 11.0592C17.6595 8.9898 19.9234 7.95508 22.4373 7.95508C24.9512 7.95508 26.972 8.74675 28.4998 10.3301C30.0276 11.8995 30.7915 13.8787 30.7915 16.2676C30.7915 18.6426 29.2498 21.2676 26.1665 24.1426C25.1943 25.0592 24.3818 25.7954 23.729 26.3509C22.8956 27.0592 21.4234 28.4412 19.3123 30.4967C17.2151 32.5384 16.1665 33.6634 16.1665 33.8717H27.8956C28.9095 33.8717 29.6248 33.587 30.0415 33.0176C30.2915 32.6842 30.6109 31.8023 30.9998 30.3717H31.7915L30.8956 35.9967C30.8262 36.3162 30.6665 36.5454 30.4165 36.6842H13.0831C13.0137 36.6842 12.979 36.5037 12.979 36.1426C12.979 35.7954 13.2984 35.2537 13.9373 34.5176C14.5901 33.7815 15.4165 32.9134 16.4165 31.9134C17.4304 30.8995 18.8054 29.5176 20.5415 27.7676C24.9581 23.2815 27.1665 19.6912 27.1665 16.9967C27.1665 15.344 26.5623 13.8509 25.354 12.5176C24.1595 11.1704 22.7637 10.4967 21.1665 10.4967C19.5831 10.4967 18.1665 11.0315 16.9165 12.1009C15.6943 13.1704 14.8679 14.5523 14.4373 16.2467C14.3818 16.4967 14.2637 16.6217 14.0831 16.6217Z" fill="black"/>
<path d="M38.6416 65.7946C38.1548 58.3334 23.0588 44.29 22.572 40.7773C22.0853 44.2882 6.98925 58.3316 6.50248 65.7946C6.16254 71.0692 9.9119 73.2559 13.3213 73.2559C17.0127 73.2162 20.0615 68.1051 21.1117 67.1114C21.5985 68.4282 17.8873 79.4003 16.7287 79.4003H28.4173C27.2587 79.4003 23.5476 68.4282 24.0344 67.1114C24.9539 68.0242 27.6492 73.1029 31.8268 73.2559C35.2342 73.254 38.9815 71.0692 38.6416 65.7946Z" fill="black"/>
<path d="M139.428 86.5075C138.574 73.4076 112.069 48.7513 111.215 42.584C110.36 48.7481 83.8554 73.4044 83.0008 86.5075C82.404 95.7681 88.9868 99.6074 94.9728 99.6074C101.454 99.5377 106.807 90.564 108.651 88.8194C109.505 91.1314 102.989 110.395 100.955 110.395H121.477C119.443 110.395 112.927 91.1314 113.782 88.8194C115.396 90.4219 120.129 99.3388 127.463 99.6074C133.446 99.6041 140.025 95.7681 139.428 86.5075Z" fill="black"/>
<path d="M209.283 307.561L209.783 307.499C209.922 307.499 209.991 307.54 209.991 307.624C209.991 308.013 209.762 308.867 209.304 310.186C208.845 311.519 208.318 312.499 207.72 313.124C205.706 315.193 203.443 316.228 200.929 316.228C198.415 316.228 196.394 315.436 194.866 313.853C193.338 312.283 192.575 310.304 192.575 307.915C192.575 305.54 194.116 302.915 197.2 300.04C198.172 299.124 198.984 298.388 199.637 297.832C200.47 297.124 201.943 295.742 204.054 293.686C206.151 291.644 207.2 290.519 207.2 290.311H195.47C194.456 290.311 193.741 290.596 193.325 291.165C193.075 291.499 192.755 292.381 192.366 293.811H191.575L192.47 288.186C192.54 287.867 192.7 287.638 192.95 287.499H210.283C210.352 287.499 210.387 287.679 210.387 288.04C210.387 288.388 210.068 288.929 209.429 289.665C208.776 290.401 207.95 291.269 206.95 292.269C205.936 293.283 204.561 294.665 202.825 296.415C198.408 300.901 196.2 304.492 196.2 307.186C196.2 308.839 196.804 310.332 198.012 311.665C199.206 313.013 200.602 313.686 202.2 313.686C203.783 313.686 205.2 313.151 206.45 312.082C207.672 311.013 208.498 309.631 208.929 307.936C208.984 307.686 209.102 307.561 209.283 307.561Z" fill="black"/>
<path d="M184.231 258.352C184.717 265.813 199.813 279.857 200.3 283.369C200.787 279.859 215.883 265.815 216.37 258.352C216.71 253.078 212.96 250.891 209.551 250.891C205.859 250.931 202.811 256.042 201.76 257.035C201.274 255.719 204.985 244.746 206.143 244.746H194.455C195.613 244.746 199.325 255.719 198.838 257.035C197.918 256.123 195.223 251.044 191.045 250.891C187.638 250.893 183.891 253.078 184.231 258.352Z" fill="black"/>
<path d="M83.0611 237.676C83.9158 250.775 110.42 275.432 111.275 281.599C112.129 275.435 138.634 250.779 139.489 237.676C140.085 228.415 133.503 224.576 127.517 224.576C121.036 224.645 115.683 233.619 113.839 235.364C112.984 233.052 119.5 213.788 121.534 213.788H101.012C103.046 213.788 109.562 233.052 108.707 235.364C107.093 233.761 102.361 224.844 95.0261 224.576C89.0436 224.579 82.4643 228.415 83.0611 237.676Z" fill="black"/>
</g>
<defs>
<clipPath id="clip0_3_344">
<rect width="222" height="324" fill="white"/>
</clipPath>
</defs>
</svg>
