<svg width="222" height="324" viewBox="0 0 222 324" fill="none" xmlns="http://www.w3.org/2000/svg">
<g clip-path="url(#clip0_3_369)">
<rect width="222" height="324" rx="10" fill="white"/>
<path d="M23.3723 18.7521C23.539 18.7243 23.789 18.7104 24.1223 18.7104C25.7335 18.7104 27.2126 19.3841 28.5598 20.7313C29.9071 22.0785 30.5807 23.8007 30.5807 25.898C30.5807 27.9813 30.0251 29.8216 28.914 31.4188C27.8168 33.016 26.4418 34.2868 24.789 35.2313C23.1501 36.1618 21.5598 36.6271 20.0182 36.6271C16.6432 36.6271 14.3446 35.9466 13.1223 34.5854C12.8029 34.2382 12.5737 33.8216 12.4348 33.3354C12.4348 32.4049 13.0112 31.9396 14.164 31.9396C14.4557 31.9396 15.039 32.2868 15.914 32.9813C16.8029 33.6618 17.6362 34.2243 18.414 34.6688C19.1918 35.1132 20.0668 35.3216 21.039 35.2938C22.8585 35.2382 24.3376 34.3632 25.4765 32.6688C26.6293 30.9605 27.2057 29.0993 27.2057 27.0854C27.2057 25.0577 26.7057 23.5299 25.7057 22.5021C24.7057 21.4743 23.5182 20.9604 22.1432 20.9604C21.4071 20.9604 20.796 21.0993 20.3098 21.3771C19.8237 21.641 19.539 21.8285 19.4557 21.9396C19.3723 22.0507 19.296 22.1063 19.2265 22.1063C19.171 22.1063 19.0946 22.0507 18.9973 21.9396C18.9001 21.8285 18.8515 21.7313 18.8515 21.6479C18.8515 21.5646 18.8932 21.4813 18.9765 21.3979C19.0737 21.3007 19.1848 21.2035 19.3098 21.1063C19.4348 20.9952 19.5598 20.891 19.6848 20.7938C23.1432 18.0993 24.8723 15.7382 24.8723 13.7104C24.8723 12.5438 24.4348 11.5716 23.5598 10.7938C22.6848 10.016 21.7543 9.62712 20.7682 9.62712C18.2126 9.62712 16.1501 11.0646 14.5807 13.9396C14.5668 13.9535 14.5112 13.9604 14.414 13.9604C14.3307 13.9604 14.1987 13.9188 14.0182 13.8354C13.8376 13.7521 13.7473 13.6896 13.7473 13.6479C13.7473 13.6063 13.7612 13.5438 13.789 13.4604C13.8307 13.3771 13.9418 13.1063 14.1223 12.6479C14.3029 12.1896 14.6779 11.6063 15.2473 10.8979C15.8307 10.1757 16.4696 9.55073 17.164 9.02295C18.6501 7.89795 19.9904 7.33545 21.1848 7.33545C23.3793 7.33545 25.046 7.77295 26.1848 8.64795C27.3237 9.52295 27.8932 10.7452 27.8932 12.3146C27.8932 13.8702 27.046 15.4952 25.3515 17.1896C25.0598 17.4118 24.6432 17.7104 24.1015 18.0854C23.5737 18.4466 23.3098 18.6618 23.3098 18.7313V18.7521H23.3723Z" fill="black"/>
<path d="M27.5879 58.3197C27.5879 58.3197 32.2924 54.556 32.2924 49.3384C32.2924 46.2839 29.5806 41.2129 23.3112 41.2129C17.0417 41.2129 14.3299 46.2859 14.3299 49.3384C14.3299 54.556 19.0345 58.3197 19.0345 58.3197C13.8089 54.249 4.49292 57.0281 4.49292 65.1636C4.49292 69.2362 7.82078 73.7169 13.0463 73.7169C19.3158 73.7169 22.0276 66.873 22.0276 66.873C22.0276 66.873 22.8239 74.6737 18.1787 78.8494H28.4436C23.7985 74.6757 24.5948 66.873 24.5948 66.873C24.5948 66.873 27.3066 73.7169 33.576 73.7169C38.8035 73.7169 42.1294 69.2342 42.1294 65.1636C42.1294 57.0281 32.8134 54.249 27.5879 58.3197Z" fill="black"/>
<path d="M199.527 303.935C199.36 303.962 199.11 303.976 198.777 303.976C197.166 303.976 195.687 303.303 194.339 301.955C192.992 300.608 192.319 298.886 192.319 296.789C192.319 294.705 192.874 292.865 193.985 291.268C195.082 289.671 196.457 288.4 198.11 287.455C199.749 286.525 201.339 286.06 202.881 286.06C206.256 286.06 208.555 286.74 209.777 288.101C210.096 288.449 210.326 288.865 210.464 289.351C210.464 290.282 209.888 290.747 208.735 290.747C208.444 290.747 207.86 290.4 206.985 289.705C206.096 289.025 205.263 288.462 204.485 288.018C203.707 287.574 202.832 287.365 201.86 287.393C200.041 287.449 198.562 288.324 197.423 290.018C196.27 291.726 195.694 293.587 195.694 295.601C195.694 297.629 196.194 299.157 197.194 300.185C198.194 301.212 199.381 301.726 200.756 301.726C201.492 301.726 202.103 301.587 202.589 301.31C203.076 301.046 203.36 300.858 203.444 300.747C203.527 300.636 203.603 300.58 203.673 300.58C203.728 300.58 203.805 300.636 203.902 300.747C203.999 300.858 204.048 300.955 204.048 301.039C204.048 301.122 204.006 301.205 203.923 301.289C203.826 301.386 203.714 301.483 203.589 301.58C203.464 301.692 203.339 301.796 203.214 301.893C199.756 304.587 198.027 306.949 198.027 308.976C198.027 310.143 198.464 311.115 199.339 311.893C200.214 312.671 201.145 313.06 202.131 313.06C204.687 313.06 206.749 311.622 208.319 308.747C208.332 308.733 208.388 308.726 208.485 308.726C208.569 308.726 208.701 308.768 208.881 308.851C209.062 308.935 209.152 308.997 209.152 309.039C209.152 309.08 209.138 309.143 209.11 309.226C209.069 309.31 208.957 309.58 208.777 310.039C208.596 310.497 208.221 311.08 207.652 311.789C207.069 312.511 206.43 313.136 205.735 313.664C204.249 314.789 202.909 315.351 201.714 315.351C199.52 315.351 197.853 314.914 196.714 314.039C195.576 313.164 195.006 311.942 195.006 310.372C195.006 308.817 195.853 307.192 197.548 305.497C197.839 305.275 198.256 304.976 198.798 304.601C199.326 304.24 199.589 304.025 199.589 303.955V303.935H199.527Z" fill="black"/>
<path d="M195.311 264.987C195.311 264.987 190.607 268.751 190.607 273.968C190.607 277.023 193.319 282.094 199.588 282.094C205.858 282.094 208.569 277.021 208.569 273.968C208.569 268.751 203.865 264.987 203.865 264.987C209.09 269.058 218.406 266.279 218.406 258.143C218.406 254.07 215.079 249.59 209.853 249.59C203.584 249.59 200.872 256.434 200.872 256.434C200.872 256.434 200.075 248.633 204.721 244.457H194.456C199.101 248.631 198.305 256.434 198.305 256.434C198.305 256.434 195.593 249.59 189.323 249.59C184.096 249.59 180.77 254.072 180.77 258.143C180.77 266.279 190.086 269.058 195.311 264.987Z" fill="black"/>
<path d="M119.43 63.3334C119.43 63.3334 127.387 56.9682 127.387 48.144C127.387 42.9781 122.801 34.4019 112.198 34.4019C101.594 34.4019 97.0082 42.9815 97.0082 48.144C97.0082 56.9682 104.965 63.3334 104.965 63.3334C96.1271 56.4489 80.3716 61.1491 80.3716 74.908C80.3716 81.7958 85.9998 89.3737 94.8373 89.3737C105.44 89.3737 110.027 77.7991 110.027 77.7991C110.027 77.7991 111.373 90.9918 103.517 98.0538H120.878C113.022 90.9952 114.368 77.7991 114.368 77.7991C114.368 77.7991 118.955 89.3737 129.558 89.3737C138.399 89.3737 144.024 81.7924 144.024 74.908C144.024 61.1491 128.268 56.4489 119.43 63.3334Z" fill="black"/>
<path d="M105.024 261.659C105.024 261.659 97.0679 268.024 97.0679 276.848C97.0679 282.014 101.654 290.59 112.257 290.59C122.86 290.59 127.447 282.011 127.447 276.848C127.447 268.024 119.49 261.659 119.49 261.659C128.328 268.543 144.083 263.843 144.083 250.084C144.083 243.196 138.455 235.618 129.618 235.618C119.014 235.618 114.428 247.193 114.428 247.193C114.428 247.193 113.081 234 120.937 226.938H103.577C111.433 233.997 110.086 247.193 110.086 247.193C110.086 247.193 105.5 235.618 94.897 235.618C86.0561 235.618 80.4313 243.2 80.4313 250.084C80.4313 263.843 96.1868 268.543 105.024 261.659Z" fill="black"/>
<path d="M119.43 156.268C119.43 156.268 127.387 149.902 127.387 141.078C127.387 135.912 122.801 127.336 112.198 127.336C101.594 127.336 97.0082 135.916 97.0082 141.078C97.0082 149.902 104.965 156.268 104.965 156.268C96.1271 149.383 80.3716 154.083 80.3716 167.842C80.3716 174.73 85.9998 182.308 94.8373 182.308C105.44 182.308 110.027 170.733 110.027 170.733C110.027 170.733 111.373 183.926 103.517 190.988H120.878C113.022 183.929 114.368 170.733 114.368 170.733C114.368 170.733 118.955 182.308 129.558 182.308C138.399 182.308 144.024 174.727 144.024 167.842C144.024 154.083 128.268 149.383 119.43 156.268Z" fill="black"/>
</g>
<defs>
<clipPath id="clip0_3_369">
<rect width="222" height="324" fill="white"/>
</clipPath>
</defs>
</svg>
