<svg width="222" height="324" viewBox="0 0 222 324" fill="none" xmlns="http://www.w3.org/2000/svg">
<g clip-path="url(#clip0_3_392)">
<rect width="222" height="324" rx="10" fill="white"/>
<path d="M22.7526 17.2384C22.9193 17.2107 23.1693 17.1968 23.5026 17.1968C25.1137 17.1968 26.5929 17.8704 27.9401 19.2176C29.2873 20.5648 29.9609 22.2871 29.9609 24.3843C29.9609 26.4676 29.4054 28.3079 28.2943 29.9051C27.197 31.5023 25.822 32.7732 24.1693 33.7176C22.5304 34.6482 20.9401 35.1134 19.3984 35.1134C16.0234 35.1134 13.7248 34.4329 12.5026 33.0718C12.1831 32.7246 11.954 32.3079 11.8151 31.8218C11.8151 30.8912 12.3915 30.4259 13.5443 30.4259C13.8359 30.4259 14.4193 30.7732 15.2943 31.4676C16.1831 32.1482 17.0165 32.7107 17.7943 33.1551C18.572 33.5996 19.447 33.8079 20.4193 33.7801C22.2387 33.7246 23.7179 32.8496 24.8568 31.1551C26.0095 29.4468 26.5859 27.5857 26.5859 25.5718C26.5859 23.544 26.0859 22.0162 25.0859 20.9884C24.0859 19.9607 22.8984 19.4468 21.5234 19.4468C20.7873 19.4468 20.1762 19.5857 19.6901 19.8634C19.204 20.1273 18.9193 20.3148 18.8359 20.4259C18.7526 20.5371 18.6762 20.5926 18.6068 20.5926C18.5512 20.5926 18.4748 20.5371 18.3776 20.4259C18.2804 20.3148 18.2318 20.2176 18.2318 20.1343C18.2318 20.0509 18.2734 19.9676 18.3568 19.8843C18.454 19.7871 18.5651 19.6898 18.6901 19.5926C18.8151 19.4815 18.9401 19.3773 19.0651 19.2801C22.5234 16.5857 24.2526 14.2246 24.2526 12.1968C24.2526 11.0301 23.8151 10.0579 22.9401 9.28011C22.0651 8.50233 21.1345 8.11344 20.1484 8.11344C17.5929 8.11344 15.5304 9.55095 13.9609 12.4259C13.947 12.4398 13.8915 12.4468 13.7943 12.4468C13.7109 12.4468 13.579 12.4051 13.3984 12.3218C13.2179 12.2384 13.1276 12.1759 13.1276 12.1343C13.1276 12.0926 13.1415 12.0301 13.1693 11.9468C13.2109 11.8634 13.322 11.5926 13.5026 11.1343C13.6831 10.6759 14.0581 10.0926 14.6276 9.38428C15.2109 8.66206 15.8498 8.03706 16.5443 7.50928C18.0304 6.38428 19.3706 5.82178 20.5651 5.82178C22.7595 5.82178 24.4262 6.25928 25.5651 7.13428C26.704 8.00928 27.2734 9.2315 27.2734 10.8009C27.2734 12.3565 26.4262 13.9815 24.7318 15.6759C24.4401 15.8982 24.0234 16.1968 23.4818 16.5718C22.954 16.9329 22.6901 17.1482 22.6901 17.2176V17.2384H22.7526Z" fill="#DF0000"/>
<path d="M200.359 306.933C200.192 306.96 199.942 306.974 199.609 306.974C197.998 306.974 196.519 306.301 195.171 304.954C193.824 303.606 193.15 301.884 193.15 299.787C193.15 297.704 193.706 295.863 194.817 294.266C195.914 292.669 197.289 291.398 198.942 290.454C200.581 289.523 202.171 289.058 203.713 289.058C207.088 289.058 209.387 289.738 210.609 291.099C210.928 291.447 211.157 291.863 211.296 292.349C211.296 293.28 210.72 293.745 209.567 293.745C209.275 293.745 208.692 293.398 207.817 292.704C206.928 292.023 206.095 291.46 205.317 291.016C204.539 290.572 203.664 290.363 202.692 290.391C200.873 290.447 199.394 291.322 198.255 293.016C197.102 294.724 196.525 296.585 196.525 298.599C196.525 300.627 197.025 302.155 198.025 303.183C199.025 304.21 200.213 304.724 201.588 304.724C202.324 304.724 202.935 304.585 203.421 304.308C203.907 304.044 204.192 303.856 204.275 303.745C204.359 303.634 204.435 303.579 204.505 303.579C204.56 303.579 204.637 303.634 204.734 303.745C204.831 303.856 204.88 303.954 204.88 304.037C204.88 304.12 204.838 304.204 204.755 304.287C204.657 304.384 204.546 304.481 204.421 304.579C204.296 304.69 204.171 304.794 204.046 304.891C200.588 307.585 198.859 309.947 198.859 311.974C198.859 313.141 199.296 314.113 200.171 314.891C201.046 315.669 201.977 316.058 202.963 316.058C205.519 316.058 207.581 314.62 209.15 311.745C209.164 311.731 209.22 311.724 209.317 311.724C209.4 311.724 209.532 311.766 209.713 311.849C209.894 311.933 209.984 311.995 209.984 312.037C209.984 312.079 209.97 312.141 209.942 312.224C209.9 312.308 209.789 312.579 209.609 313.037C209.428 313.495 209.053 314.079 208.484 314.787C207.9 315.509 207.262 316.134 206.567 316.662C205.081 317.787 203.741 318.349 202.546 318.349C200.352 318.349 198.685 317.912 197.546 317.037C196.407 316.162 195.838 314.94 195.838 313.37C195.838 311.815 196.685 310.19 198.38 308.495C198.671 308.273 199.088 307.974 199.63 307.599C200.157 307.238 200.421 307.023 200.421 306.954V306.933H200.359Z" fill="#DF0000"/>
<path d="M29.0109 49.6762C24.8421 44.0364 22.6242 38.3047 22.6242 38.3047C22.6242 38.3047 20.4062 44.0364 16.2374 49.6762C12.0666 55.3141 6.87048 58.9814 6.87048 58.9814C6.87048 58.9814 12.0666 62.6467 16.2374 68.2885C20.4062 73.9263 22.6242 79.6581 22.6242 79.6581C22.6242 79.6581 24.8421 73.9263 29.0109 68.2885C33.1817 62.6467 38.3778 58.9814 38.3778 58.9814C38.3778 58.9814 33.1817 55.3141 29.0109 49.6762Z" fill="#DF0000"/>
<path d="M207.215 255.366C203.046 249.726 200.828 243.995 200.828 243.995C200.828 243.995 198.61 249.726 194.441 255.366C190.27 261.004 185.074 264.671 185.074 264.671C185.074 264.671 190.27 268.337 194.441 273.978C198.61 279.616 200.828 285.348 200.828 285.348C200.828 285.348 203.046 279.616 207.215 273.978C211.385 268.337 216.582 264.671 216.582 264.671C216.582 264.671 211.385 261.004 207.215 255.366Z" fill="#DF0000"/>
<path d="M121.764 239.722C114.459 229.838 110.572 219.793 110.572 219.793C110.572 219.793 106.685 229.838 99.3787 239.722C92.0693 249.602 82.9631 256.029 82.9631 256.029C82.9631 256.029 92.0693 262.453 99.3787 272.34C106.685 282.22 110.572 292.265 110.572 292.265C110.572 292.265 114.459 282.22 121.764 272.34C129.074 262.453 138.18 256.029 138.18 256.029C138.18 256.029 129.074 249.602 121.764 239.722Z" fill="#DF0000"/>
<path d="M121.764 51.4521C114.459 41.5683 110.572 31.5234 110.572 31.5234C110.572 31.5234 106.685 41.5683 99.3787 51.4521C92.0693 61.3325 82.9631 67.7595 82.9631 67.7595C82.9631 67.7595 92.0693 74.1831 99.3787 84.0703C106.685 93.9507 110.572 103.996 110.572 103.996C110.572 103.996 114.459 93.9507 121.764 84.0703C129.074 74.1831 138.18 67.7595 138.18 67.7595C138.18 67.7595 129.074 61.3325 121.764 51.4521Z" fill="#DF0000"/>
<path d="M121.764 144.386C114.459 134.503 110.572 124.458 110.572 124.458C110.572 124.458 106.685 134.503 99.3787 144.386C92.0693 154.267 82.9631 160.694 82.9631 160.694C82.9631 160.694 92.0693 167.117 99.3787 177.005C106.685 186.885 110.572 196.93 110.572 196.93C110.572 196.93 114.459 186.885 121.764 177.005C129.074 167.117 138.18 160.694 138.18 160.694C138.18 160.694 129.074 154.267 121.764 144.386Z" fill="#DF0000"/>
</g>
<defs>
<clipPath id="clip0_3_392">
<rect width="222" height="324" fill="white"/>
</clipPath>
</defs>
</svg>
