<svg width="222" height="324" viewBox="0 0 222 324" fill="none" xmlns="http://www.w3.org/2000/svg">
<g clip-path="url(#clip0_3_421)">
<rect width="222" height="324" rx="10" fill="white"/>
<path d="M23.9922 19.3717C24.1589 19.344 24.4089 19.3301 24.7422 19.3301C26.3533 19.3301 27.8325 20.0037 29.1797 21.3509C30.5269 22.6981 31.2006 24.4204 31.2006 26.5176C31.2006 28.6009 30.645 30.4412 29.5339 32.0384C28.4367 33.6356 27.0617 34.9065 25.4089 35.8509C23.77 36.7815 22.1797 37.2467 20.6381 37.2467C17.2631 37.2467 14.9644 36.5662 13.7422 35.2051C13.4228 34.8579 13.1936 34.4412 13.0547 33.9551C13.0547 33.0245 13.6311 32.5592 14.7839 32.5592C15.0756 32.5592 15.6589 32.9065 16.5339 33.6009C17.4228 34.2815 18.2561 34.844 19.0339 35.2884C19.8117 35.7329 20.6867 35.9412 21.6589 35.9134C23.4783 35.8579 24.9575 34.9829 26.0964 33.2884C27.2492 31.5801 27.8256 29.719 27.8256 27.7051C27.8256 25.6773 27.3256 24.1495 26.3256 23.1217C25.3256 22.094 24.1381 21.5801 22.7631 21.5801C22.0269 21.5801 21.4158 21.719 20.9297 21.9967C20.4436 22.2606 20.1589 22.4481 20.0756 22.5592C19.9922 22.6704 19.9158 22.7259 19.8464 22.7259C19.7908 22.7259 19.7144 22.6704 19.6172 22.5592C19.52 22.4481 19.4714 22.3509 19.4714 22.2676C19.4714 22.1842 19.5131 22.1009 19.5964 22.0176C19.6936 21.9204 19.8047 21.8231 19.9297 21.7259C20.0547 21.6148 20.1797 21.5106 20.3047 21.4134C23.7631 18.719 25.4922 16.3579 25.4922 14.3301C25.4922 13.1634 25.0547 12.1912 24.1797 11.4134C23.3047 10.6356 22.3742 10.2467 21.3881 10.2467C18.8325 10.2467 16.77 11.6842 15.2006 14.5592C15.1867 14.5731 15.1311 14.5801 15.0339 14.5801C14.9506 14.5801 14.8186 14.5384 14.6381 14.4551C14.4575 14.3717 14.3672 14.3092 14.3672 14.2676C14.3672 14.2259 14.3811 14.1634 14.4089 14.0801C14.4506 13.9967 14.5617 13.7259 14.7422 13.2676C14.9228 12.8092 15.2978 12.2259 15.8672 11.5176C16.4506 10.7954 17.0894 10.1704 17.7839 9.64258C19.27 8.51758 20.6103 7.95508 21.8047 7.95508C23.9992 7.95508 25.6658 8.39258 26.8047 9.26758C27.9436 10.1426 28.5131 11.3648 28.5131 12.9342C28.5131 14.4898 27.6658 16.1148 25.9714 17.8092C25.6797 18.0315 25.2631 18.3301 24.7214 18.7051C24.1936 19.0662 23.9297 19.2815 23.9297 19.3509V19.3717H23.9922Z" fill="#DF0000"/>
<path d="M31.1097 43.0432C23.87 43.0432 22.9033 50.3078 22.9033 50.3078C22.9033 50.3078 21.9367 43.0432 14.697 43.0432C9.62944 43.0432 5.04407 46.3005 5.04407 52.4452C5.04407 60.5643 19.7314 68.729 22.9033 80.651C25.9216 68.739 40.7626 60.5643 40.7626 52.4452C40.7626 46.3005 36.1773 43.0432 31.1097 43.0432Z" fill="#DF0000"/>
<path d="M199.465 302.666C199.298 302.694 199.048 302.708 198.715 302.708C197.104 302.708 195.625 302.034 194.278 300.687C192.93 299.34 192.257 297.617 192.257 295.52C192.257 293.437 192.812 291.597 193.923 289.999C195.021 288.402 196.396 287.131 198.048 286.187C199.687 285.256 201.278 284.791 202.819 284.791C206.194 284.791 208.493 285.472 209.715 286.833C210.035 287.18 210.264 287.597 210.403 288.083C210.403 289.013 209.826 289.479 208.673 289.479C208.382 289.479 207.798 289.131 206.923 288.437C206.035 287.756 205.201 287.194 204.423 286.749C203.646 286.305 202.771 286.097 201.798 286.124C199.979 286.18 198.5 287.055 197.361 288.749C196.208 290.458 195.632 292.319 195.632 294.333C195.632 296.361 196.132 297.888 197.132 298.916C198.132 299.944 199.319 300.458 200.694 300.458C201.43 300.458 202.042 300.319 202.528 300.041C203.014 299.777 203.298 299.59 203.382 299.479C203.465 299.367 203.542 299.312 203.611 299.312C203.667 299.312 203.743 299.367 203.84 299.479C203.937 299.59 203.986 299.687 203.986 299.77C203.986 299.854 203.944 299.937 203.861 300.02C203.764 300.117 203.653 300.215 203.528 300.312C203.403 300.423 203.278 300.527 203.153 300.624C199.694 303.319 197.965 305.68 197.965 307.708C197.965 308.874 198.403 309.847 199.278 310.624C200.153 311.402 201.083 311.791 202.069 311.791C204.625 311.791 206.687 310.354 208.257 307.479C208.271 307.465 208.326 307.458 208.423 307.458C208.507 307.458 208.639 307.499 208.819 307.583C209 307.666 209.09 307.729 209.09 307.77C209.09 307.812 209.076 307.874 209.048 307.958C209.007 308.041 208.896 308.312 208.715 308.77C208.535 309.229 208.16 309.812 207.59 310.52C207.007 311.242 206.368 311.867 205.673 312.395C204.187 313.52 202.847 314.083 201.653 314.083C199.458 314.083 197.792 313.645 196.653 312.77C195.514 311.895 194.944 310.673 194.944 309.104C194.944 307.548 195.792 305.923 197.486 304.229C197.778 304.006 198.194 303.708 198.736 303.333C199.264 302.972 199.528 302.756 199.528 302.687V302.666H199.465Z" fill="#DF0000"/>
<path d="M192.002 278.995C199.241 278.995 200.208 271.73 200.208 271.73C200.208 271.73 201.175 278.995 208.414 278.995C213.482 278.995 218.067 275.737 218.067 269.593C218.067 261.474 203.38 253.309 200.208 241.387C197.19 253.299 182.349 261.474 182.349 269.593C182.349 275.737 186.934 278.995 192.002 278.995Z" fill="#DF0000"/>
<path d="M124.704 32.261C112.687 32.261 111.083 44.3187 111.083 44.3187C111.083 44.3187 109.479 32.261 97.4622 32.261C89.051 32.261 81.4402 37.6674 81.4402 47.8663C81.4402 61.3424 105.818 74.8941 111.083 94.6823C116.093 74.9107 140.726 61.3424 140.726 47.8663C140.726 37.6674 133.115 32.261 124.704 32.261Z" fill="#DF0000"/>
<path d="M97.4622 287.219C109.479 287.219 111.083 275.161 111.083 275.161C111.083 275.161 112.687 287.219 124.704 287.219C133.115 287.219 140.726 281.812 140.726 271.613C140.726 258.137 116.348 244.586 111.083 224.797C106.073 244.569 81.4403 258.137 81.4403 271.613C81.4403 281.812 89.051 287.219 97.4622 287.219Z" fill="#DF0000"/>
<path d="M124.704 127.329C112.687 127.329 111.083 139.386 111.083 139.386C111.083 139.386 109.479 127.329 97.4622 127.329C89.051 127.329 81.4402 132.735 81.4402 142.934C81.4402 156.41 105.818 169.962 111.083 189.75C116.093 169.978 140.726 156.41 140.726 142.934C140.726 132.735 133.115 127.329 124.704 127.329Z" fill="#DF0000"/>
</g>
<defs>
<clipPath id="clip0_3_421">
<rect width="222" height="324" fill="white"/>
</clipPath>
</defs>
</svg>
