<svg width="222" height="324" viewBox="0 0 222 324" fill="none" xmlns="http://www.w3.org/2000/svg">
<g clip-path="url(#clip0_3_479)">
<rect width="222" height="324" rx="10" fill="white"/>
<path d="M23.6873 19.3719C23.854 19.3441 24.104 19.3302 24.4373 19.3302C26.0484 19.3302 27.5276 20.0038 28.8748 21.351C30.222 22.6983 30.8957 24.4205 30.8957 26.5177C30.8957 28.601 30.3401 30.4413 29.229 32.0385C28.1318 33.6358 26.7568 34.9066 25.104 35.851C23.4651 36.7816 21.8748 37.2469 20.3331 37.2469C16.9581 37.2469 14.6595 36.5663 13.4373 35.2052C13.1179 34.858 12.8887 34.4413 12.7498 33.9552C12.7498 33.0246 13.3262 32.5594 14.479 32.5594C14.7707 32.5594 15.354 32.9066 16.229 33.601C17.1179 34.2816 17.9512 34.8441 18.729 35.2885C19.5068 35.733 20.3818 35.9413 21.354 35.9135C23.1734 35.858 24.6526 34.983 25.7915 33.2885C26.9443 31.5802 27.5206 29.7191 27.5206 27.7052C27.5206 25.6774 27.0206 24.1496 26.0206 23.1219C25.0206 22.0941 23.8331 21.5802 22.4581 21.5802C21.722 21.5802 21.1109 21.7191 20.6248 21.9969C20.1387 22.2608 19.854 22.4483 19.7706 22.5594C19.6873 22.6705 19.6109 22.726 19.5415 22.726C19.4859 22.726 19.4095 22.6705 19.3123 22.5594C19.2151 22.4483 19.1665 22.351 19.1665 22.2677C19.1665 22.1844 19.2082 22.101 19.2915 22.0177C19.3887 21.9205 19.4998 21.8233 19.6248 21.726C19.7498 21.6149 19.8748 21.5108 19.9998 21.4135C23.4582 18.7191 25.1873 16.358 25.1873 14.3302C25.1873 13.1635 24.7498 12.1913 23.8748 11.4135C22.9998 10.6358 22.0693 10.2469 21.0831 10.2469C18.5276 10.2469 16.4651 11.6844 14.8957 14.5594C14.8818 14.5733 14.8262 14.5802 14.729 14.5802C14.6457 14.5802 14.5137 14.5385 14.3332 14.4552C14.1526 14.3719 14.0623 14.3094 14.0623 14.2677C14.0623 14.226 14.0762 14.1635 14.104 14.0802C14.1457 13.9969 14.2568 13.726 14.4373 13.2677C14.6179 12.8094 14.9929 12.226 15.5623 11.5177C16.1457 10.7955 16.7845 10.1705 17.479 9.6427C18.9651 8.5177 20.3054 7.9552 21.4998 7.9552C23.6943 7.9552 25.3609 8.3927 26.4998 9.2677C27.6387 10.1427 28.2081 11.3649 28.2081 12.9344C28.2081 14.4899 27.3609 16.1149 25.6665 17.8094C25.3748 18.0316 24.9582 18.3302 24.4165 18.7052C23.8887 19.0663 23.6248 19.2816 23.6248 19.351V19.3719H23.6873Z" fill="black"/>
<path d="M38.6417 65.7946C38.1549 58.3334 23.0589 44.29 22.5722 40.7773C22.0854 44.2882 6.98938 58.3316 6.5026 65.7946C6.16267 71.0692 9.91203 73.2559 13.3214 73.2559C17.0128 73.2162 20.0616 68.1051 21.1118 67.1114C21.5986 68.4282 17.8875 79.4003 16.7289 79.4003H28.4175C27.2589 79.4003 23.5477 68.4282 24.0345 67.1114C24.954 68.0242 27.6493 73.1029 31.8269 73.2559C35.2343 73.254 38.9816 71.0692 38.6417 65.7946Z" fill="black"/>
<path d="M139.428 75.8407C138.574 62.7409 112.069 38.0845 111.215 31.9172C110.36 38.0813 83.8554 62.7376 83.0008 75.8407C82.404 85.1014 88.9868 88.9406 94.9728 88.9406C101.454 88.8709 106.807 79.8973 108.651 78.1527C109.505 80.4646 102.989 99.7286 100.955 99.7286H121.477C119.443 99.7286 112.927 80.4646 113.782 78.1527C115.396 79.7552 120.129 88.6721 127.463 88.9406C133.446 88.9374 140.025 85.1014 139.428 75.8407Z" fill="black"/>
<path d="M199.679 304.811C199.512 304.839 199.262 304.853 198.929 304.853C197.318 304.853 195.838 304.179 194.491 302.832C193.144 301.485 192.47 299.763 192.47 297.665C192.47 295.582 193.026 293.742 194.137 292.144C195.234 290.547 196.609 289.276 198.262 288.332C199.901 287.401 201.491 286.936 203.033 286.936C206.408 286.936 208.706 287.617 209.929 288.978C210.248 289.325 210.477 289.742 210.616 290.228C210.616 291.158 210.04 291.624 208.887 291.624C208.595 291.624 208.012 291.276 207.137 290.582C206.248 289.901 205.415 289.339 204.637 288.894C203.859 288.45 202.984 288.242 202.012 288.269C200.193 288.325 198.713 289.2 197.574 290.894C196.422 292.603 195.845 294.464 195.845 296.478C195.845 298.506 196.345 300.033 197.345 301.061C198.345 302.089 199.533 302.603 200.908 302.603C201.644 302.603 202.255 302.464 202.741 302.186C203.227 301.922 203.512 301.735 203.595 301.624C203.679 301.513 203.755 301.457 203.824 301.457C203.88 301.457 203.956 301.513 204.054 301.624C204.151 301.735 204.199 301.832 204.199 301.915C204.199 301.999 204.158 302.082 204.074 302.165C203.977 302.263 203.866 302.36 203.741 302.457C203.616 302.568 203.491 302.672 203.366 302.769C199.908 305.464 198.179 307.825 198.179 309.853C198.179 311.019 198.616 311.992 199.491 312.769C200.366 313.547 201.297 313.936 202.283 313.936C204.838 313.936 206.901 312.499 208.47 309.624C208.484 309.61 208.54 309.603 208.637 309.603C208.72 309.603 208.852 309.644 209.033 309.728C209.213 309.811 209.304 309.874 209.304 309.915C209.304 309.957 209.29 310.019 209.262 310.103C209.22 310.186 209.109 310.457 208.929 310.915C208.748 311.374 208.373 311.957 207.804 312.665C207.22 313.388 206.581 314.013 205.887 314.54C204.401 315.665 203.061 316.228 201.866 316.228C199.672 316.228 198.005 315.79 196.866 314.915C195.727 314.04 195.158 312.818 195.158 311.249C195.158 309.693 196.005 308.068 197.699 306.374C197.991 306.151 198.408 305.853 198.949 305.478C199.477 305.117 199.741 304.901 199.741 304.832V304.811H199.679Z" fill="black"/>
<path d="M184.231 258.352C184.717 265.813 199.813 279.857 200.3 283.369C200.787 279.859 215.883 265.815 216.37 258.352C216.71 253.078 212.96 250.891 209.551 250.891C205.859 250.931 202.811 256.042 201.76 257.035C201.274 255.719 204.985 244.746 206.143 244.746H194.455C195.613 244.746 199.325 255.719 198.838 257.035C197.918 256.123 195.223 251.044 191.045 250.891C187.638 250.893 183.891 253.078 184.231 258.352Z" fill="black"/>
<path d="M83.0611 248.342C83.9158 261.442 110.42 286.099 111.275 292.266C112.129 286.102 138.634 261.445 139.489 248.342C140.085 239.082 133.503 235.242 127.517 235.242C121.036 235.312 115.683 244.286 113.839 246.03C112.984 243.719 119.5 224.455 121.534 224.455H101.012C103.046 224.455 109.562 243.719 108.707 246.03C107.093 244.428 102.361 235.511 95.0261 235.242C89.0436 235.246 82.4643 239.082 83.0611 248.342Z" fill="black"/>
<path d="M139.54 168.776C138.685 155.676 112.181 131.02 111.326 124.852C110.472 131.016 83.9672 155.673 83.1126 168.776C82.5157 178.037 89.0986 181.876 95.0846 181.876C101.566 181.806 106.918 172.832 108.762 171.088C109.617 173.4 103.101 192.664 101.067 192.664H121.589C119.555 192.664 113.039 173.4 113.894 171.088C115.508 172.69 120.24 181.607 127.575 181.876C133.558 181.873 140.137 178.037 139.54 168.776Z" fill="black"/>
</g>
<defs>
<clipPath id="clip0_3_479">
<rect width="222" height="324" fill="white"/>
</clipPath>
</defs>
</svg>
