<svg width="222" height="324" viewBox="0 0 222 324" fill="none" xmlns="http://www.w3.org/2000/svg">
<g clip-path="url(#clip0_3_502)">
<rect width="222" height="324" rx="10" fill="white"/>
<path d="M12.8932 27.8146C12.5599 27.8146 12.3932 27.6896 12.3932 27.4396C12.3932 27.1757 12.4487 26.9605 12.5599 26.7938L25.4765 7.81462C25.6849 7.49517 25.9279 7.33545 26.2057 7.33545C26.4835 7.33545 26.6987 7.35628 26.8515 7.39795C27.0182 7.43962 27.1015 7.59934 27.1015 7.87712V25.0021C27.1015 25.2243 27.1362 25.3702 27.2057 25.4396C27.2751 25.4952 27.414 25.523 27.6224 25.523H30.9765C31.1293 25.523 31.2751 25.5368 31.414 25.5646C31.5529 25.5924 31.6224 25.7035 31.6224 25.898V27.3146C31.6224 27.648 31.4835 27.8146 31.2057 27.8146H27.6432C27.3793 27.8146 27.2196 27.8493 27.164 27.9188C27.1224 27.9882 27.1015 28.1202 27.1015 28.3146V36.3771C27.1015 36.6827 26.9835 36.8354 26.7474 36.8354H24.4974C24.2196 36.8354 24.0807 36.6757 24.0807 36.3563V28.3146C24.0807 28.1202 24.046 27.9882 23.9765 27.9188C23.921 27.8493 23.7751 27.8146 23.539 27.8146H12.8932ZM24.0807 13.5646C24.0807 13.023 23.914 12.7521 23.5807 12.7521C23.4696 12.7521 23.2682 12.898 22.9765 13.1896L14.9765 25.1063C14.921 25.1757 14.8932 25.266 14.8932 25.3771C14.8932 25.4743 15.1085 25.523 15.539 25.523H23.539C23.7751 25.523 23.921 25.4743 23.9765 25.3771C24.046 25.2799 24.0807 25.1479 24.0807 24.9813V13.5646Z" fill="black"/>
<path d="M27.5879 58.3197C27.5879 58.3197 32.2924 54.556 32.2924 49.3384C32.2924 46.2839 29.5806 41.2129 23.3112 41.2129C17.0417 41.2129 14.3299 46.2859 14.3299 49.3384C14.3299 54.556 19.0345 58.3197 19.0345 58.3197C13.8089 54.249 4.49292 57.0281 4.49292 65.1636C4.49292 69.2362 7.82078 73.7169 13.0463 73.7169C19.3158 73.7169 22.0276 66.873 22.0276 66.873C22.0276 66.873 22.8239 74.6737 18.1787 78.8494H28.4436C23.7985 74.6757 24.5948 66.873 24.5948 66.873C24.5948 66.873 27.3066 73.7169 33.576 73.7169C38.8035 73.7169 42.1294 69.2342 42.1294 65.1636C42.1294 57.0281 32.8134 54.249 27.5879 58.3197Z" fill="black"/>
<path d="M210.006 294.872C210.339 294.872 210.506 294.997 210.506 295.247C210.506 295.511 210.451 295.726 210.339 295.893L197.423 314.872C197.214 315.191 196.971 315.351 196.694 315.351C196.416 315.351 196.201 315.33 196.048 315.289C195.881 315.247 195.798 315.087 195.798 314.81V297.685C195.798 297.462 195.763 297.316 195.694 297.247C195.624 297.191 195.485 297.164 195.277 297.164H191.923C191.77 297.164 191.624 297.15 191.485 297.122C191.346 297.094 191.277 296.983 191.277 296.789V295.372C191.277 295.039 191.416 294.872 191.694 294.872H195.256C195.52 294.872 195.68 294.837 195.735 294.768C195.777 294.698 195.798 294.566 195.798 294.372V286.31C195.798 286.004 195.916 285.851 196.152 285.851H198.402C198.68 285.851 198.819 286.011 198.819 286.33V294.372C198.819 294.566 198.853 294.698 198.923 294.768C198.978 294.837 199.124 294.872 199.36 294.872H210.006ZM198.819 309.122C198.819 309.664 198.985 309.935 199.319 309.935C199.43 309.935 199.631 309.789 199.923 309.497L207.923 297.58C207.978 297.511 208.006 297.421 208.006 297.31C208.006 297.212 207.791 297.164 207.36 297.164H199.36C199.124 297.164 198.978 297.212 198.923 297.31C198.853 297.407 198.819 297.539 198.819 297.705V309.122Z" fill="black"/>
<path d="M195.311 264.987C195.311 264.987 190.607 268.751 190.607 273.968C190.607 277.023 193.319 282.094 199.588 282.094C205.858 282.094 208.569 277.021 208.569 273.968C208.569 268.751 203.865 264.987 203.865 264.987C209.09 269.058 218.406 266.279 218.406 258.143C218.406 254.07 215.079 249.59 209.853 249.59C203.584 249.59 200.872 256.434 200.872 256.434C200.872 256.434 200.075 248.633 204.721 244.457H194.456C199.101 248.631 198.305 256.434 198.305 256.434C198.305 256.434 195.593 249.59 189.323 249.59C184.096 249.59 180.77 254.072 180.77 258.143C180.77 266.279 190.086 269.058 195.311 264.987Z" fill="black"/>
<path d="M78.8971 74C78.8971 74 86.8536 67.6348 86.8536 58.8106C86.8536 53.6447 82.2673 45.0685 71.6642 45.0685C61.0612 45.0685 56.4749 53.6481 56.4749 58.8106C56.4749 67.6348 64.4314 74 64.4314 74C55.5938 67.1155 39.8383 71.8157 39.8383 85.5746C39.8383 92.4624 45.4664 100.04 54.304 100.04C64.9071 100.04 69.4934 88.4657 69.4934 88.4657C69.4934 88.4657 70.8401 101.658 62.9841 108.72H80.3444C72.4884 101.662 73.8351 88.4657 73.8351 88.4657C73.8351 88.4657 78.4214 100.04 89.0245 100.04C97.8654 100.04 103.49 92.4591 103.49 85.5746C103.49 71.8157 87.7347 67.1155 78.8971 74Z" fill="black"/>
<path d="M64.4911 250.992C64.4911 250.992 56.5346 257.357 56.5346 266.181C56.5346 271.347 61.1209 279.924 71.7239 279.924C82.327 279.924 86.9133 271.344 86.9133 266.181C86.9133 257.357 78.9568 250.992 78.9568 250.992C87.7944 257.877 103.55 253.176 103.55 239.417C103.55 232.53 97.9217 224.952 89.0842 224.952C78.4811 224.952 73.8948 236.526 73.8948 236.526C73.8948 236.526 72.5481 223.334 80.4041 216.272H63.0438C70.8998 223.33 69.5531 236.526 69.5531 236.526C69.5531 236.526 64.9668 224.952 54.3637 224.952C45.5228 224.952 39.898 232.533 39.898 239.417C39.898 253.176 55.6535 257.877 64.4911 250.992Z" fill="black"/>
<path d="M156.333 74C156.333 74 164.289 67.6348 164.289 58.8106C164.289 53.6447 159.703 45.0685 149.1 45.0685C138.497 45.0685 133.911 53.6481 133.911 58.8106C133.911 67.6348 141.867 74 141.867 74C133.03 67.1155 117.274 71.8157 117.274 85.5746C117.274 92.4624 122.902 100.04 131.74 100.04C142.343 100.04 146.929 88.4657 146.929 88.4657C146.929 88.4657 148.276 101.658 140.42 108.72H157.78C149.924 101.662 151.271 88.4657 151.271 88.4657C151.271 88.4657 155.857 100.04 166.46 100.04C175.301 100.04 180.926 92.4591 180.926 85.5746C180.926 71.8157 165.17 67.1155 156.333 74Z" fill="black"/>
<path d="M141.927 250.992C141.927 250.992 133.97 257.357 133.97 266.181C133.97 271.347 138.557 279.924 149.16 279.924C159.763 279.924 164.349 271.344 164.349 266.181C164.349 257.357 156.393 250.992 156.393 250.992C165.23 257.877 180.986 253.176 180.986 239.417C180.986 232.53 175.357 224.952 166.52 224.952C155.917 224.952 151.331 236.526 151.331 236.526C151.331 236.526 149.984 223.334 157.84 216.272H140.48C148.336 223.33 146.989 236.526 146.989 236.526C146.989 236.526 142.403 224.952 131.799 224.952C122.959 224.952 117.334 232.533 117.334 239.417C117.334 253.176 133.089 257.877 141.927 250.992Z" fill="black"/>
</g>
<defs>
<clipPath id="clip0_3_502">
<rect width="222" height="324" fill="white"/>
</clipPath>
</defs>
</svg>
