<svg width="222" height="324" viewBox="0 0 222 324" fill="none" xmlns="http://www.w3.org/2000/svg">
<g clip-path="url(#clip0_3_533)">
<rect width="222" height="324" rx="10" fill="white"/>
<path d="M12.2734 26.3011C11.9401 26.3011 11.7734 26.1761 11.7734 25.9261C11.7734 25.6622 11.829 25.4469 11.9401 25.2802L24.8568 6.30107C25.0651 5.98162 25.3082 5.8219 25.5859 5.8219C25.8637 5.8219 26.079 5.84273 26.2318 5.8844C26.3984 5.92607 26.4818 6.08579 26.4818 6.36357V23.4886C26.4818 23.7108 26.5165 23.8566 26.5859 23.9261C26.6554 23.9816 26.7943 24.0094 27.0026 24.0094H30.3568C30.5095 24.0094 30.6554 24.0233 30.7943 24.0511C30.9332 24.0788 31.0026 24.19 31.0026 24.3844V25.8011C31.0026 26.1344 30.8637 26.3011 30.5859 26.3011H27.0234C26.7595 26.3011 26.5998 26.3358 26.5443 26.4052C26.5026 26.4747 26.4818 26.6066 26.4818 26.8011V34.8636C26.4818 35.1691 26.3637 35.3219 26.1276 35.3219H23.8776C23.5998 35.3219 23.4609 35.1622 23.4609 34.8427V26.8011C23.4609 26.6066 23.4262 26.4747 23.3568 26.4052C23.3012 26.3358 23.1554 26.3011 22.9193 26.3011H12.2734ZM23.4609 12.0511C23.4609 11.5094 23.2943 11.2386 22.9609 11.2386C22.8498 11.2386 22.6484 11.3844 22.3568 11.6761L14.3568 23.5927C14.3012 23.6622 14.2734 23.7525 14.2734 23.8636C14.2734 23.9608 14.4887 24.0094 14.9193 24.0094H22.9193C23.1554 24.0094 23.3012 23.9608 23.3568 23.8636C23.4262 23.7663 23.4609 23.6344 23.4609 23.4677V12.0511Z" fill="#DF0000"/>
<path d="M210.838 297.87C211.171 297.87 211.338 297.995 211.338 298.245C211.338 298.509 211.282 298.724 211.171 298.891L198.255 317.87C198.046 318.19 197.803 318.349 197.525 318.349C197.248 318.349 197.032 318.329 196.88 318.287C196.713 318.245 196.63 318.085 196.63 317.808V300.683C196.63 300.46 196.595 300.315 196.525 300.245C196.456 300.19 196.317 300.162 196.109 300.162H192.755C192.602 300.162 192.456 300.148 192.317 300.12C192.178 300.092 192.109 299.981 192.109 299.787V298.37C192.109 298.037 192.248 297.87 192.525 297.87H196.088C196.352 297.87 196.512 297.835 196.567 297.766C196.609 297.697 196.63 297.565 196.63 297.37V289.308C196.63 289.002 196.748 288.849 196.984 288.849H199.234C199.512 288.849 199.65 289.009 199.65 289.329V297.37C199.65 297.565 199.685 297.697 199.755 297.766C199.81 297.835 199.956 297.87 200.192 297.87H210.838ZM199.65 312.12C199.65 312.662 199.817 312.933 200.15 312.933C200.262 312.933 200.463 312.787 200.755 312.495L208.755 300.579C208.81 300.509 208.838 300.419 208.838 300.308C208.838 300.21 208.623 300.162 208.192 300.162H200.192C199.956 300.162 199.81 300.21 199.755 300.308C199.685 300.405 199.65 300.537 199.65 300.704V312.12Z" fill="#DF0000"/>
<path d="M29.0108 49.6762C24.842 44.0364 22.624 38.3047 22.624 38.3047C22.624 38.3047 20.4061 44.0364 16.2372 49.6762C12.0665 55.3141 6.87036 58.9814 6.87036 58.9814C6.87036 58.9814 12.0665 62.6467 16.2372 68.2885C20.4061 73.9263 22.624 79.6581 22.624 79.6581C22.624 79.6581 24.842 73.9263 29.0108 68.2885C33.1816 62.6467 38.3777 58.9814 38.3777 58.9814C38.3777 58.9814 33.1816 55.3141 29.0108 49.6762Z" fill="#DF0000"/>
<path d="M207.215 255.366C203.046 249.726 200.828 243.995 200.828 243.995C200.828 243.995 198.61 249.726 194.441 255.366C190.27 261.004 185.074 264.671 185.074 264.671C185.074 264.671 190.27 268.337 194.441 273.978C198.61 279.616 200.828 285.348 200.828 285.348C200.828 285.348 203.046 279.616 207.215 273.978C211.385 268.337 216.582 264.671 216.582 264.671C216.582 264.671 211.385 261.004 207.215 255.366Z" fill="#DF0000"/>
<path d="M160.8 229.055C153.494 219.171 149.607 209.126 149.607 209.126C149.607 209.126 145.72 219.171 138.415 229.055C131.105 238.936 121.999 245.363 121.999 245.363C121.999 245.363 131.105 251.786 138.415 261.673C145.72 271.554 149.607 281.599 149.607 281.599C149.607 281.599 153.494 271.554 160.8 261.673C168.11 251.786 177.216 245.363 177.216 245.363C177.216 245.363 168.11 238.936 160.8 229.055Z" fill="#DF0000"/>
<path d="M160.8 57.852C153.494 47.9682 149.607 37.9233 149.607 37.9233C149.607 37.9233 145.72 47.9682 138.415 57.852C131.105 67.7324 121.999 74.1594 121.999 74.1594C121.999 74.1594 131.105 80.583 138.415 90.4702C145.72 100.351 149.607 110.395 149.607 110.395C149.607 110.395 153.494 100.351 160.8 90.4702C168.11 80.583 177.216 74.1594 177.216 74.1594C177.216 74.1594 168.11 67.7324 160.8 57.852Z" fill="#DF0000"/>
<path d="M83.3646 229.055C76.0587 219.171 72.1717 209.126 72.1717 209.126C72.1717 209.126 68.2847 219.171 60.9788 229.055C53.6694 238.936 44.5632 245.363 44.5632 245.363C44.5632 245.363 53.6694 251.786 60.9788 261.673C68.2847 271.554 72.1717 281.599 72.1717 281.599C72.1717 281.599 76.0587 271.554 83.3646 261.673C90.6739 251.786 99.7801 245.363 99.7801 245.363C99.7801 245.363 90.6739 238.936 83.3646 229.055Z" fill="#DF0000"/>
<path d="M83.3646 57.852C76.0587 47.9682 72.1717 37.9233 72.1717 37.9233C72.1717 37.9233 68.2847 47.9682 60.9788 57.852C53.6694 67.7324 44.5632 74.1594 44.5632 74.1594C44.5632 74.1594 53.6694 80.583 60.9788 90.4702C68.2847 100.351 72.1717 110.395 72.1717 110.395C72.1717 110.395 76.0587 100.351 83.3646 90.4702C90.6739 80.583 99.7801 74.1594 99.7801 74.1594C99.7801 74.1594 90.6739 67.7324 83.3646 57.852Z" fill="#DF0000"/>
</g>
<defs>
<clipPath id="clip0_3_533">
<rect width="222" height="324" fill="white"/>
</clipPath>
</defs>
</svg>
