<svg width="222" height="324" viewBox="0 0 222 324" fill="none" xmlns="http://www.w3.org/2000/svg">
<g clip-path="url(#clip0_3_566)">
<rect width="222" height="324" rx="10" fill="white"/>
<path d="M13.5132 28.4342C13.1799 28.4342 13.0132 28.3092 13.0132 28.0592C13.0132 27.7954 13.0687 27.5801 13.1799 27.4134L26.0965 8.43425C26.3049 8.1148 26.5479 7.95508 26.8257 7.95508C27.1035 7.95508 27.3187 7.97591 27.4715 8.01758C27.6382 8.05924 27.7215 8.21897 27.7215 8.49675V25.6217C27.7215 25.844 27.7562 25.9898 27.8257 26.0592C27.8951 26.1148 28.034 26.1426 28.2424 26.1426H31.5965C31.7493 26.1426 31.8951 26.1565 32.034 26.1842C32.1729 26.212 32.2424 26.3231 32.2424 26.5176V27.9342C32.2424 28.2676 32.1035 28.4342 31.8257 28.4342H28.2632C27.9993 28.4342 27.8396 28.469 27.784 28.5384C27.7424 28.6079 27.7215 28.7398 27.7215 28.9342V36.9967C27.7215 37.3023 27.6035 37.4551 27.3674 37.4551H25.1174C24.8396 37.4551 24.7007 37.2954 24.7007 36.9759V28.9342C24.7007 28.7398 24.666 28.6079 24.5965 28.5384C24.541 28.469 24.3951 28.4342 24.159 28.4342H13.5132ZM24.7007 14.1842C24.7007 13.6426 24.534 13.3717 24.2007 13.3717C24.0896 13.3717 23.8882 13.5176 23.5965 13.8092L15.5965 25.7259C15.541 25.7954 15.5132 25.8856 15.5132 25.9967C15.5132 26.094 15.7285 26.1426 16.159 26.1426H24.159C24.3951 26.1426 24.541 26.094 24.5965 25.9967C24.666 25.8995 24.7007 25.7676 24.7007 25.6009V14.1842Z" fill="#DF0000"/>
<path d="M31.1096 43.0432C23.8699 43.0432 22.9032 50.3078 22.9032 50.3078C22.9032 50.3078 21.9366 43.0432 14.6969 43.0432C9.62931 43.0432 5.04395 46.3005 5.04395 52.4452C5.04395 60.5643 19.7313 68.729 22.9032 80.651C25.9215 68.739 40.7625 60.5643 40.7625 52.4452C40.7625 46.3005 36.1771 43.0432 31.1096 43.0432Z" fill="#DF0000"/>
<path d="M209.944 293.604C210.278 293.604 210.444 293.729 210.444 293.979C210.444 294.242 210.389 294.458 210.278 294.624L197.361 313.604C197.153 313.923 196.91 314.083 196.632 314.083C196.354 314.083 196.139 314.062 195.986 314.02C195.819 313.979 195.736 313.819 195.736 313.541V296.416C195.736 296.194 195.701 296.048 195.632 295.979C195.562 295.923 195.424 295.895 195.215 295.895H191.861C191.708 295.895 191.562 295.881 191.424 295.854C191.285 295.826 191.215 295.715 191.215 295.52V294.104C191.215 293.77 191.354 293.604 191.632 293.604H195.194C195.458 293.604 195.618 293.569 195.674 293.499C195.715 293.43 195.736 293.298 195.736 293.104V285.041C195.736 284.736 195.854 284.583 196.09 284.583H198.34C198.618 284.583 198.757 284.742 198.757 285.062V293.104C198.757 293.298 198.792 293.43 198.861 293.499C198.917 293.569 199.062 293.604 199.299 293.604H209.944ZM198.757 307.854C198.757 308.395 198.924 308.666 199.257 308.666C199.368 308.666 199.569 308.52 199.861 308.229L207.861 296.312C207.917 296.242 207.944 296.152 207.944 296.041C207.944 295.944 207.729 295.895 207.299 295.895H199.299C199.062 295.895 198.917 295.944 198.861 296.041C198.792 296.138 198.757 296.27 198.757 296.437V307.854Z" fill="#DF0000"/>
<path d="M192.002 278.995C199.241 278.995 200.208 271.73 200.208 271.73C200.208 271.73 201.175 278.995 208.414 278.995C213.482 278.995 218.067 275.737 218.067 269.593C218.067 261.474 203.38 253.309 200.208 241.387C197.19 253.299 182.349 261.474 182.349 269.593C182.349 275.737 186.934 278.995 192.002 278.995Z" fill="#DF0000"/>
<path d="M88.4372 55.269C76.4208 55.269 74.8163 67.3268 74.8163 67.3268C74.8163 67.3268 73.2119 55.269 61.1955 55.269C52.7844 55.269 45.1736 60.6754 45.1736 70.8744C45.1736 84.3504 69.5516 97.9021 74.8163 117.69C79.826 97.9187 104.459 84.3504 104.459 70.8744C104.459 60.6754 96.8483 55.269 88.4372 55.269Z" fill="#DF0000"/>
<path d="M61.1954 267.56C73.2118 267.56 74.8162 255.502 74.8162 255.502C74.8162 255.502 76.4206 267.56 88.4371 267.56C96.8482 267.56 104.459 262.154 104.459 251.955C104.459 238.479 80.081 224.927 74.8162 205.139C69.8066 224.91 45.1735 238.479 45.1735 251.955C45.1735 262.154 52.7843 267.56 61.1954 267.56Z" fill="#DF0000"/>
<path d="M161.227 55.6323C149.211 55.6323 147.606 67.69 147.606 67.69C147.606 67.69 146.002 55.6323 133.985 55.6323C125.574 55.6323 117.963 61.0387 117.963 71.2376C117.963 84.7137 142.341 98.2654 147.606 118.054C152.616 98.282 177.249 84.7137 177.249 71.2376C177.249 61.0387 169.638 55.6323 161.227 55.6323Z" fill="#DF0000"/>
<path d="M133.985 267.924C146.002 267.924 147.606 255.866 147.606 255.866C147.606 255.866 149.21 267.924 161.227 267.924C169.638 267.924 177.249 262.517 177.249 252.318C177.249 238.842 152.871 225.29 147.606 205.502C142.596 225.274 117.963 238.842 117.963 252.318C117.963 262.517 125.574 267.924 133.985 267.924Z" fill="#DF0000"/>
</g>
<defs>
<clipPath id="clip0_3_566">
<rect width="222" height="324" fill="white"/>
</clipPath>
</defs>
</svg>
