<svg width="222" height="324" viewBox="0 0 222 324" fill="none" xmlns="http://www.w3.org/2000/svg">
<g clip-path="url(#clip0_3_612)">
<rect width="222" height="324" rx="10" fill="white"/>
<path d="M13.2081 28.4342C12.8748 28.4342 12.7081 28.3092 12.7081 28.0592C12.7081 27.7954 12.7637 27.5801 12.8748 27.4134L25.7915 8.43425C25.9998 8.1148 26.2429 7.95508 26.5206 7.95508C26.7984 7.95508 27.0137 7.97591 27.1665 8.01758C27.3331 8.05924 27.4165 8.21897 27.4165 8.49675V25.6217C27.4165 25.844 27.4512 25.9898 27.5206 26.0592C27.5901 26.1148 27.729 26.1426 27.9373 26.1426H31.2915C31.4442 26.1426 31.5901 26.1565 31.729 26.1842C31.8679 26.212 31.9373 26.3231 31.9373 26.5176V27.9342C31.9373 28.2676 31.7984 28.4342 31.5206 28.4342H27.9581C27.6942 28.4342 27.5345 28.469 27.479 28.5384C27.4373 28.6079 27.4165 28.7398 27.4165 28.9342V36.9967C27.4165 37.3023 27.2984 37.4551 27.0623 37.4551H24.8123C24.5345 37.4551 24.3956 37.2954 24.3956 36.9759V28.9342C24.3956 28.7398 24.3609 28.6079 24.2915 28.5384C24.2359 28.469 24.0901 28.4342 23.854 28.4342H13.2081ZM24.3956 14.1842C24.3956 13.6426 24.229 13.3717 23.8956 13.3717C23.7845 13.3717 23.5831 13.5176 23.2915 13.8092L15.2915 25.7259C15.2359 25.7954 15.2081 25.8856 15.2081 25.9967C15.2081 26.094 15.4234 26.1426 15.854 26.1426H23.854C24.0901 26.1426 24.2359 26.094 24.2915 25.9967C24.3609 25.8995 24.3956 25.7676 24.3956 25.6009V14.1842Z" fill="black"/>
<path d="M38.6416 65.7946C38.1548 58.3334 23.0588 44.29 22.572 40.7773C22.0853 44.2882 6.98925 58.3316 6.50248 65.7946C6.16254 71.0692 9.9119 73.2559 13.3213 73.2559C17.0127 73.2162 20.0615 68.1051 21.1117 67.1114C21.5985 68.4282 17.8873 79.4003 16.7287 79.4003H28.4173C27.2587 79.4003 23.5476 68.4282 24.0344 67.1114C24.9539 68.0242 27.6492 73.1029 31.8268 73.2559C35.2342 73.254 38.9815 71.0692 38.6416 65.7946Z" fill="black"/>
<path d="M101.028 86.5075C100.174 73.4076 73.6691 48.7513 72.8145 42.584C71.9599 48.7481 45.4554 73.4044 44.6008 86.5075C44.0039 95.7681 50.5868 99.6074 56.5728 99.6074C63.0538 99.5377 68.4066 90.564 70.2506 88.8194C71.1052 91.1314 64.5895 110.395 62.5553 110.395H83.0773C81.0431 110.395 74.5273 91.1314 75.382 88.8194C76.9964 90.4219 81.7286 99.3388 89.0633 99.6074C95.0457 99.6041 101.625 95.7681 101.028 86.5075Z" fill="black"/>
<path d="M210.158 295.749C210.491 295.749 210.658 295.874 210.658 296.124C210.658 296.388 210.602 296.603 210.491 296.769L197.575 315.749C197.366 316.068 197.123 316.228 196.845 316.228C196.568 316.228 196.352 316.207 196.2 316.165C196.033 316.124 195.95 315.964 195.95 315.686V298.561C195.95 298.339 195.915 298.193 195.845 298.124C195.776 298.068 195.637 298.04 195.429 298.04H192.075C191.922 298.04 191.776 298.026 191.637 297.999C191.498 297.971 191.429 297.86 191.429 297.665V296.249C191.429 295.915 191.568 295.749 191.845 295.749H195.408C195.672 295.749 195.831 295.714 195.887 295.644C195.929 295.575 195.95 295.443 195.95 295.249V287.186C195.95 286.881 196.068 286.728 196.304 286.728H198.554C198.831 286.728 198.97 286.888 198.97 287.207V295.249C198.97 295.443 199.005 295.575 199.075 295.644C199.13 295.714 199.276 295.749 199.512 295.749H210.158ZM198.97 309.999C198.97 310.54 199.137 310.811 199.47 310.811C199.581 310.811 199.783 310.665 200.075 310.374L208.075 298.457C208.13 298.388 208.158 298.297 208.158 298.186C208.158 298.089 207.943 298.04 207.512 298.04H199.512C199.276 298.04 199.13 298.089 199.075 298.186C199.005 298.283 198.97 298.415 198.97 298.582V309.999Z" fill="black"/>
<path d="M184.231 258.352C184.717 265.813 199.813 279.857 200.3 283.369C200.787 279.859 215.883 265.815 216.37 258.352C216.71 253.078 212.96 250.891 209.551 250.891C205.859 250.931 202.811 256.042 201.76 257.035C201.274 255.719 204.985 244.746 206.143 244.746H194.455C195.613 244.746 199.325 255.719 198.838 257.035C197.918 256.123 195.223 251.044 191.045 250.891C187.638 250.893 183.891 253.078 184.231 258.352Z" fill="black"/>
<path d="M44.6611 237.676C45.5157 250.775 72.0202 275.432 72.8748 281.599C73.7295 275.435 100.234 250.779 101.089 237.676C101.685 228.415 95.1025 224.576 89.1165 224.576C82.6355 224.645 77.2827 233.619 75.4387 235.364C74.5841 233.052 81.0999 213.788 83.134 213.788H62.6121C64.6463 213.788 71.162 233.052 70.3074 235.364C68.6929 233.761 63.9607 224.844 56.6261 224.576C50.6436 224.579 44.0643 228.415 44.6611 237.676Z" fill="black"/>
<path d="M178.464 86.4919C177.61 73.392 151.105 48.7357 150.251 42.5684C149.396 48.7324 122.892 73.3888 122.037 86.4919C121.44 95.7525 128.023 99.5917 134.009 99.5917C140.49 99.5221 145.843 90.5484 147.687 88.8038C148.541 91.1157 142.026 110.38 139.991 110.38H160.513C158.479 110.38 151.963 91.1157 152.818 88.8038C154.433 90.4063 159.165 99.3232 166.499 99.5917C172.482 99.5885 179.061 95.7525 178.464 86.4919Z" fill="black"/>
<path d="M122.097 237.66C122.952 250.76 149.456 275.416 150.311 281.583C151.166 275.419 177.67 250.763 178.525 237.66C179.122 228.399 172.539 224.56 166.553 224.56C160.072 224.63 154.719 233.603 152.875 235.348C152.02 233.036 158.536 213.772 160.57 213.772H140.048C142.082 213.772 148.598 233.036 147.744 235.348C146.129 233.746 141.397 224.829 134.062 224.56C128.08 224.563 121.5 228.399 122.097 237.66Z" fill="black"/>
</g>
<defs>
<clipPath id="clip0_3_612">
<rect width="222" height="324" fill="white"/>
</clipPath>
</defs>
</svg>
