<svg width="222" height="324" viewBox="0 0 222 324" fill="none" xmlns="http://www.w3.org/2000/svg">
<g clip-path="url(#clip0_3_645)">
<rect width="222" height="324" rx="10" fill="white"/>
<path d="M16.6015 11.0021L16.2682 18.7521C16.2682 18.9188 16.2752 18.9952 16.289 18.9813C16.6918 18.5785 17.4349 18.2868 18.5182 18.1063C19.6015 17.9257 20.4279 17.8354 20.9974 17.8354C22.2057 17.8354 23.546 18.1618 25.0182 18.8146C26.4904 19.4535 27.7474 20.4257 28.789 21.7313C29.8307 23.0229 30.3515 24.4604 30.3515 26.0438C30.3515 28.7382 29.789 30.8563 28.664 32.3979C27.5529 33.9396 26.164 35.0299 24.4974 35.6688C22.8446 36.3077 21.1224 36.6271 19.3307 36.6271C17.5529 36.6271 16.0113 36.3007 14.7057 35.6479C13.8307 35.2174 13.3446 34.6757 13.2474 34.0229C13.2474 33.5368 13.4071 33.148 13.7265 32.8563C14.0599 32.5507 14.4349 32.3979 14.8515 32.3979C15.2821 32.3979 15.7265 32.5646 16.1849 32.8979C16.6432 33.2174 17.1015 33.5785 17.5599 33.9813C18.0321 34.3702 18.5043 34.7313 18.9765 35.0646C19.4627 35.3841 20.0252 35.5438 20.664 35.5438C21.9557 35.5438 23.0877 35.1271 24.0599 34.2938C25.046 33.4466 25.7752 32.4327 26.2474 31.2521C26.7196 30.0716 26.9557 28.9743 26.9557 27.9604C26.9557 26.0716 26.539 24.5924 25.7057 23.5229C24.8863 22.4535 23.9418 21.7382 22.8724 21.3771C21.8168 21.0021 20.9071 20.8146 20.1432 20.8146C19.3793 20.8146 18.7474 20.898 18.2474 21.0646C17.7474 21.2313 17.296 21.4188 16.8932 21.6271C16.5043 21.8216 16.1779 22.0091 15.914 22.1896C15.664 22.3563 15.4974 22.4605 15.414 22.5021C15.3307 22.5438 15.2404 22.5646 15.1432 22.5646C15.0599 22.5646 15.0182 22.4605 15.0182 22.2521L15.6432 8.18962H26.2474C26.914 8.18962 27.3168 8.02295 27.4557 7.68962C27.4974 7.57851 27.5529 7.46045 27.6224 7.33545H28.4765L27.9765 10.8563H17.039C16.7474 10.8563 16.6015 10.9049 16.6015 11.0021Z" fill="black"/>
<path d="M27.5879 58.3197C27.5879 58.3197 32.2924 54.556 32.2924 49.3384C32.2924 46.2839 29.5806 41.2129 23.3112 41.2129C17.0417 41.2129 14.3299 46.2859 14.3299 49.3384C14.3299 54.556 19.0345 58.3197 19.0345 58.3197C13.8089 54.249 4.49292 57.0281 4.49292 65.1636C4.49292 69.2362 7.82078 73.7169 13.0463 73.7169C19.3158 73.7169 22.0276 66.873 22.0276 66.873C22.0276 66.873 22.8239 74.6737 18.1787 78.8494H28.4436C23.7985 74.6757 24.5948 66.873 24.5948 66.873C24.5948 66.873 27.3066 73.7169 33.576 73.7169C38.8035 73.7169 42.1294 69.2342 42.1294 65.1636C42.1294 57.0281 32.8134 54.249 27.5879 58.3197Z" fill="black"/>
<path d="M206.298 311.685L206.631 303.935C206.631 303.768 206.624 303.692 206.61 303.705C206.207 304.108 205.464 304.4 204.381 304.58C203.298 304.761 202.471 304.851 201.902 304.851C200.694 304.851 199.353 304.525 197.881 303.872C196.409 303.233 195.152 302.261 194.11 300.955C193.069 299.664 192.548 298.226 192.548 296.643C192.548 293.949 193.11 291.83 194.235 290.289C195.346 288.747 196.735 287.657 198.402 287.018C200.055 286.379 201.777 286.06 203.569 286.06C205.346 286.06 206.888 286.386 208.194 287.039C209.069 287.469 209.555 288.011 209.652 288.664C209.652 289.15 209.492 289.539 209.173 289.83C208.839 290.136 208.464 290.289 208.048 290.289C207.617 290.289 207.173 290.122 206.714 289.789C206.256 289.469 205.798 289.108 205.339 288.705C204.867 288.317 204.395 287.955 203.923 287.622C203.437 287.303 202.874 287.143 202.235 287.143C200.944 287.143 199.812 287.56 198.839 288.393C197.853 289.24 197.124 290.254 196.652 291.435C196.18 292.615 195.944 293.712 195.944 294.726C195.944 296.615 196.36 298.094 197.194 299.164C198.013 300.233 198.957 300.949 200.027 301.31C201.082 301.685 201.992 301.872 202.756 301.872C203.52 301.872 204.152 301.789 204.652 301.622C205.152 301.455 205.603 301.268 206.006 301.06C206.395 300.865 206.721 300.678 206.985 300.497C207.235 300.33 207.402 300.226 207.485 300.185C207.569 300.143 207.659 300.122 207.756 300.122C207.839 300.122 207.881 300.226 207.881 300.435L207.256 314.497H196.652C195.985 314.497 195.582 314.664 195.444 314.997C195.402 315.108 195.346 315.226 195.277 315.351H194.423L194.923 311.83H205.86C206.152 311.83 206.298 311.782 206.298 311.685Z" fill="black"/>
<path d="M195.311 264.987C195.311 264.987 190.607 268.751 190.607 273.968C190.607 277.023 193.319 282.094 199.588 282.094C205.858 282.094 208.569 277.021 208.569 273.968C208.569 268.751 203.865 264.987 203.865 264.987C209.09 269.058 218.406 266.279 218.406 258.143C218.406 254.07 215.079 249.59 209.853 249.59C203.584 249.59 200.872 256.434 200.872 256.434C200.872 256.434 200.075 248.633 204.721 244.457H194.456C199.101 248.631 198.305 256.434 198.305 256.434C198.305 256.434 195.593 249.59 189.323 249.59C184.096 249.59 180.77 254.072 180.77 258.143C180.77 266.279 190.086 269.058 195.311 264.987Z" fill="black"/>
<path d="M78.8971 73.9999C78.8971 73.9999 86.8536 67.6347 86.8536 58.8105C86.8536 53.6446 82.2673 45.0684 71.6642 45.0684C61.0612 45.0684 56.4749 53.648 56.4749 58.8105C56.4749 67.6347 64.4314 73.9999 64.4314 73.9999C55.5938 67.1154 39.8383 71.8156 39.8383 85.5745C39.8383 92.4623 45.4664 100.04 54.304 100.04C64.9071 100.04 69.4934 88.4656 69.4934 88.4656C69.4934 88.4656 70.8401 101.658 62.9841 108.72H80.3444C72.4884 101.662 73.8351 88.4656 73.8351 88.4656C73.8351 88.4656 78.4214 100.04 89.0245 100.04C97.8654 100.04 103.49 92.4589 103.49 85.5745C103.49 71.8156 87.7347 67.1154 78.8971 73.9999Z" fill="black"/>
<path d="M64.4911 250.992C64.4911 250.992 56.5346 257.357 56.5346 266.181C56.5346 271.347 61.1209 279.924 71.7239 279.924C82.327 279.924 86.9133 271.344 86.9133 266.181C86.9133 257.357 78.9568 250.992 78.9568 250.992C87.7944 257.877 103.55 253.176 103.55 239.417C103.55 232.53 97.9217 224.952 89.0842 224.952C78.4811 224.952 73.8948 236.526 73.8948 236.526C73.8948 236.526 72.5481 223.334 80.4041 216.272H63.0438C70.8998 223.33 69.5531 236.526 69.5531 236.526C69.5531 236.526 64.9668 224.952 54.3637 224.952C45.5228 224.952 39.898 232.533 39.898 239.417C39.898 253.176 55.6535 257.877 64.4911 250.992Z" fill="black"/>
<path d="M156.333 73.9999C156.333 73.9999 164.289 67.6347 164.289 58.8105C164.289 53.6446 159.703 45.0684 149.1 45.0684C138.497 45.0684 133.911 53.648 133.911 58.8105C133.911 67.6347 141.867 73.9999 141.867 73.9999C133.029 67.1154 117.274 71.8156 117.274 85.5745C117.274 92.4623 122.902 100.04 131.74 100.04C142.343 100.04 146.929 88.4656 146.929 88.4656C146.929 88.4656 148.276 101.658 140.42 108.72H157.78C149.924 101.662 151.271 88.4656 151.271 88.4656C151.271 88.4656 155.857 100.04 166.46 100.04C175.301 100.04 180.926 92.4589 180.926 85.5745C180.926 71.8156 165.17 67.1154 156.333 73.9999Z" fill="black"/>
<path d="M141.927 250.992C141.927 250.992 133.97 257.357 133.97 266.181C133.97 271.347 138.557 279.924 149.16 279.924C159.763 279.924 164.349 271.344 164.349 266.181C164.349 257.357 156.393 250.992 156.393 250.992C165.23 257.877 180.986 253.176 180.986 239.417C180.986 232.53 175.358 224.952 166.52 224.952C155.917 224.952 151.331 236.526 151.331 236.526C151.331 236.526 149.984 223.334 157.84 216.272H140.48C148.336 223.33 146.989 236.526 146.989 236.526C146.989 236.526 142.403 224.952 131.799 224.952C122.959 224.952 117.334 232.533 117.334 239.417C117.334 253.176 133.089 257.877 141.927 250.992Z" fill="black"/>
<path d="M117.297 158.401C117.297 158.401 125.254 152.036 125.254 143.212C125.254 138.046 120.667 129.469 110.064 129.469C99.4612 129.469 94.8749 138.049 94.8749 143.212C94.8749 152.036 102.831 158.401 102.831 158.401C93.9938 151.517 78.2383 156.217 78.2383 169.976C78.2383 176.863 83.8665 184.441 92.704 184.441C103.307 184.441 107.893 172.867 107.893 172.867C107.893 172.867 109.24 186.059 101.384 193.121H118.744C110.888 186.063 112.235 172.867 112.235 172.867C112.235 172.867 116.821 184.441 127.425 184.441C136.265 184.441 141.89 176.86 141.89 169.976C141.89 156.217 126.135 151.517 117.297 158.401Z" fill="black"/>
</g>
<defs>
<clipPath id="clip0_3_645">
<rect width="222" height="324" fill="white"/>
</clipPath>
</defs>
</svg>
