<svg width="222" height="324" viewBox="0 0 222 324" fill="none" xmlns="http://www.w3.org/2000/svg">
<g clip-path="url(#clip0_3_680)">
<rect width="222" height="324" rx="10" fill="white"/>
<path d="M15.9818 9.48845L15.6485 17.2384C15.6485 17.4051 15.6554 17.4815 15.6693 17.4676C16.0721 17.0648 16.8151 16.7732 17.8985 16.5926C18.9818 16.4121 19.8082 16.3218 20.3776 16.3218C21.586 16.3218 22.9262 16.6482 24.3985 17.3009C25.8707 17.9398 27.1276 18.9121 28.1693 20.2176C29.211 21.5093 29.7318 22.9468 29.7318 24.5301C29.7318 27.2246 29.1693 29.3426 28.0443 30.8843C26.9332 32.4259 25.5443 33.5162 23.8776 34.1551C22.2248 34.794 20.5026 35.1134 18.711 35.1134C16.9332 35.1134 15.3915 34.7871 14.086 34.1343C13.211 33.7037 12.7248 33.1621 12.6276 32.5093C12.6276 32.0232 12.7873 31.6343 13.1068 31.3426C13.4401 31.0371 13.8151 30.8843 14.2318 30.8843C14.6623 30.8843 15.1068 31.0509 15.5651 31.3843C16.0235 31.7037 16.4818 32.0648 16.9401 32.4676C17.4123 32.8565 17.8846 33.2176 18.3568 33.5509C18.8429 33.8704 19.4054 34.0301 20.0443 34.0301C21.336 34.0301 22.4679 33.6134 23.4401 32.7801C24.4262 31.9329 25.1554 30.919 25.6276 29.7384C26.0998 28.5579 26.336 27.4607 26.336 26.4468C26.336 24.5579 25.9193 23.0787 25.086 22.0093C24.2665 20.9398 23.3221 20.2246 22.2526 19.8634C21.1971 19.4884 20.2873 19.3009 19.5235 19.3009C18.7596 19.3009 18.1276 19.3843 17.6276 19.5509C17.1276 19.7176 16.6762 19.9051 16.2735 20.1134C15.8846 20.3079 15.5582 20.4954 15.2943 20.6759C15.0443 20.8426 14.8776 20.9468 14.7943 20.9884C14.711 21.0301 14.6207 21.0509 14.5235 21.0509C14.4401 21.0509 14.3985 20.9468 14.3985 20.7384L15.0235 6.67594H25.6276C26.2943 6.67594 26.6971 6.50928 26.836 6.17594C26.8776 6.06483 26.9332 5.94678 27.0026 5.82178H27.8568L27.3568 9.34261H16.4193C16.1276 9.34261 15.9818 9.39122 15.9818 9.48845Z" fill="#DF0000"/>
<path d="M207.13 314.683L207.463 306.933C207.463 306.766 207.456 306.69 207.442 306.704C207.039 307.106 206.296 307.398 205.213 307.579C204.13 307.759 203.303 307.849 202.734 307.849C201.525 307.849 200.185 307.523 198.713 306.87C197.241 306.231 195.984 305.259 194.942 303.954C193.9 302.662 193.38 301.224 193.38 299.641C193.38 296.947 193.942 294.829 195.067 293.287C196.178 291.745 197.567 290.655 199.234 290.016C200.887 289.377 202.609 289.058 204.4 289.058C206.178 289.058 207.72 289.384 209.025 290.037C209.9 290.467 210.387 291.009 210.484 291.662C210.484 292.148 210.324 292.537 210.005 292.829C209.671 293.134 209.296 293.287 208.88 293.287C208.449 293.287 208.005 293.12 207.546 292.787C207.088 292.467 206.63 292.106 206.171 291.704C205.699 291.315 205.227 290.954 204.755 290.62C204.269 290.301 203.706 290.141 203.067 290.141C201.775 290.141 200.644 290.558 199.671 291.391C198.685 292.238 197.956 293.252 197.484 294.433C197.012 295.613 196.775 296.71 196.775 297.724C196.775 299.613 197.192 301.092 198.025 302.162C198.845 303.231 199.789 303.947 200.859 304.308C201.914 304.683 202.824 304.87 203.588 304.87C204.352 304.87 204.984 304.787 205.484 304.62C205.984 304.454 206.435 304.266 206.838 304.058C207.227 303.863 207.553 303.676 207.817 303.495C208.067 303.329 208.234 303.224 208.317 303.183C208.4 303.141 208.491 303.12 208.588 303.12C208.671 303.12 208.713 303.224 208.713 303.433L208.088 317.495H197.484C196.817 317.495 196.414 317.662 196.275 317.995C196.234 318.106 196.178 318.224 196.109 318.349H195.255L195.755 314.829H206.692C206.984 314.829 207.13 314.78 207.13 314.683Z" fill="#DF0000"/>
<path d="M29.0109 49.6762C24.8421 44.0364 22.6242 38.3047 22.6242 38.3047C22.6242 38.3047 20.4062 44.0364 16.2374 49.6762C12.0666 55.3141 6.87048 58.9814 6.87048 58.9814C6.87048 58.9814 12.0666 62.6467 16.2374 68.2885C20.4062 73.9263 22.6242 79.6581 22.6242 79.6581C22.6242 79.6581 24.8421 73.9263 29.0109 68.2885C33.1817 62.6467 38.3778 58.9814 38.3778 58.9814C38.3778 58.9814 33.1817 55.3141 29.0109 49.6762Z" fill="#DF0000"/>
<path d="M207.215 255.366C203.046 249.726 200.828 243.995 200.828 243.995C200.828 243.995 198.61 249.726 194.441 255.366C190.27 261.004 185.074 264.671 185.074 264.671C185.074 264.671 190.27 268.337 194.441 273.978C198.61 279.616 200.828 285.348 200.828 285.348C200.828 285.348 203.046 279.616 207.215 273.978C211.385 268.337 216.582 264.671 216.582 264.671C216.582 264.671 211.385 261.004 207.215 255.366Z" fill="#DF0000"/>
<path d="M160.8 229.055C153.494 219.171 149.607 209.126 149.607 209.126C149.607 209.126 145.72 219.171 138.414 229.055C131.105 238.936 121.999 245.363 121.999 245.363C121.999 245.363 131.105 251.786 138.414 261.673C145.72 271.554 149.607 281.599 149.607 281.599C149.607 281.599 153.494 271.554 160.8 261.673C168.11 251.786 177.216 245.363 177.216 245.363C177.216 245.363 168.11 238.936 160.8 229.055Z" fill="#DF0000"/>
<path d="M160.8 57.852C153.494 47.9682 149.607 37.9233 149.607 37.9233C149.607 37.9233 145.72 47.9682 138.414 57.852C131.105 67.7324 121.999 74.1594 121.999 74.1594C121.999 74.1594 131.105 80.583 138.414 90.4702C145.72 100.351 149.607 110.395 149.607 110.395C149.607 110.395 153.494 100.351 160.8 90.4702C168.11 80.583 177.216 74.1594 177.216 74.1594C177.216 74.1594 168.11 67.7324 160.8 57.852Z" fill="#DF0000"/>
<path d="M83.3646 229.055C76.0587 219.171 72.1717 209.126 72.1717 209.126C72.1717 209.126 68.2847 219.171 60.9788 229.055C53.6694 238.936 44.5632 245.363 44.5632 245.363C44.5632 245.363 53.6694 251.786 60.9788 261.673C68.2847 271.554 72.1717 281.599 72.1717 281.599C72.1717 281.599 76.0587 271.554 83.3646 261.673C90.6739 251.786 99.7801 245.363 99.7801 245.363C99.7801 245.363 90.6739 238.936 83.3646 229.055Z" fill="#DF0000"/>
<path d="M83.3646 57.852C76.0587 47.9682 72.1717 37.9233 72.1717 37.9233C72.1717 37.9233 68.2847 47.9682 60.9788 57.852C53.6694 67.7324 44.5632 74.1594 44.5632 74.1594C44.5632 74.1594 53.6694 80.583 60.9788 90.4702C68.2847 100.351 72.1717 110.395 72.1717 110.395C72.1717 110.395 76.0587 100.351 83.3646 90.4702C90.6739 80.583 99.7801 74.1594 99.7801 74.1594C99.7801 74.1594 90.6739 67.7324 83.3646 57.852Z" fill="#DF0000"/>
<path d="M120.904 142.991C113.598 133.107 109.711 123.062 109.711 123.062C109.711 123.062 105.824 133.107 98.5186 142.991C91.2092 152.872 82.103 159.299 82.103 159.299C82.103 159.299 91.2092 165.722 98.5186 175.609C105.824 185.49 109.711 195.535 109.711 195.535C109.711 195.535 113.598 185.49 120.904 175.609C128.214 165.722 137.32 159.299 137.32 159.299C137.32 159.299 128.214 152.872 120.904 142.991Z" fill="#DF0000"/>
</g>
<defs>
<clipPath id="clip0_3_680">
<rect width="222" height="324" fill="white"/>
</clipPath>
</defs>
</svg>
