<svg width="222" height="324" viewBox="0 0 222 324" fill="none" xmlns="http://www.w3.org/2000/svg">
<g clip-path="url(#clip0_3_717)">
<rect width="222" height="324" rx="10" fill="white"/>
<path d="M17.2214 11.6217L16.8881 19.3717C16.8881 19.5384 16.895 19.6148 16.9089 19.6009C17.3117 19.1981 18.0547 18.9065 19.1381 18.7259C20.2214 18.5454 21.0478 18.4551 21.6172 18.4551C22.8256 18.4551 24.1659 18.7815 25.6381 19.4342C27.1103 20.0731 28.3672 21.0454 29.4089 22.3509C30.4506 23.6426 30.9714 25.0801 30.9714 26.6634C30.9714 29.3579 30.4089 31.4759 29.2839 33.0176C28.1728 34.5592 26.7839 35.6495 25.1172 36.2884C23.4645 36.9273 21.7422 37.2467 19.9506 37.2467C18.1728 37.2467 16.6311 36.9204 15.3256 36.2676C14.4506 35.837 13.9645 35.2954 13.8672 34.6426C13.8672 34.1565 14.027 33.7676 14.3464 33.4759C14.6797 33.1704 15.0547 33.0176 15.4714 33.0176C15.902 33.0176 16.3464 33.1842 16.8047 33.5176C17.2631 33.837 17.7214 34.1981 18.1797 34.6009C18.652 34.9898 19.1242 35.3509 19.5964 35.6842C20.0825 36.0037 20.645 36.1634 21.2839 36.1634C22.5756 36.1634 23.7075 35.7467 24.6797 34.9134C25.6659 34.0662 26.395 33.0523 26.8672 31.8717C27.3395 30.6912 27.5756 29.594 27.5756 28.5801C27.5756 26.6912 27.1589 25.212 26.3256 24.1426C25.5061 23.0731 24.5617 22.3579 23.4922 21.9967C22.4367 21.6217 21.527 21.4342 20.7631 21.4342C19.9992 21.4342 19.3672 21.5176 18.8672 21.6842C18.3672 21.8509 17.9159 22.0384 17.5131 22.2467C17.1242 22.4412 16.7978 22.6287 16.5339 22.8092C16.2839 22.9759 16.1172 23.0801 16.0339 23.1217C15.9506 23.1634 15.8603 23.1842 15.7631 23.1842C15.6797 23.1842 15.6381 23.0801 15.6381 22.8717L16.2631 8.80925H26.8672C27.5339 8.80925 27.9367 8.64258 28.0756 8.30925C28.1172 8.19813 28.1728 8.08008 28.2422 7.95508H29.0964L28.5964 11.4759H17.6589C17.3672 11.4759 17.2214 11.5245 17.2214 11.6217Z" fill="#DF0000"/>
<path d="M31.1097 43.0432C23.87 43.0432 22.9033 50.3078 22.9033 50.3078C22.9033 50.3078 21.9367 43.0432 14.697 43.0432C9.62944 43.0432 5.04407 46.3005 5.04407 52.4452C5.04407 60.5643 19.7314 68.729 22.9033 80.651C25.9216 68.739 40.7626 60.5643 40.7626 52.4452C40.7626 46.3005 36.1773 43.0432 31.1097 43.0432Z" fill="#DF0000"/>
<path d="M206.236 310.416L206.569 302.666C206.569 302.499 206.562 302.423 206.548 302.437C206.146 302.84 205.403 303.131 204.319 303.312C203.236 303.492 202.41 303.583 201.84 303.583C200.632 303.583 199.292 303.256 197.819 302.604C196.347 301.965 195.09 300.992 194.048 299.687C193.007 298.395 192.486 296.958 192.486 295.374C192.486 292.68 193.048 290.562 194.173 289.02C195.285 287.479 196.673 286.388 198.34 285.749C199.993 285.111 201.715 284.791 203.507 284.791C205.285 284.791 206.826 285.117 208.132 285.77C209.007 286.201 209.493 286.742 209.59 287.395C209.59 287.881 209.43 288.27 209.111 288.562C208.778 288.867 208.403 289.02 207.986 289.02C207.555 289.02 207.111 288.854 206.653 288.52C206.194 288.201 205.736 287.84 205.278 287.437C204.805 287.048 204.333 286.687 203.861 286.354C203.375 286.034 202.812 285.874 202.173 285.874C200.882 285.874 199.75 286.291 198.778 287.124C197.792 287.972 197.062 288.986 196.59 290.166C196.118 291.347 195.882 292.444 195.882 293.458C195.882 295.347 196.298 296.826 197.132 297.895C197.951 298.965 198.896 299.68 199.965 300.041C201.021 300.416 201.93 300.604 202.694 300.604C203.458 300.604 204.09 300.52 204.59 300.354C205.09 300.187 205.542 299.999 205.944 299.791C206.333 299.597 206.66 299.409 206.923 299.229C207.173 299.062 207.34 298.958 207.423 298.916C207.507 298.874 207.597 298.854 207.694 298.854C207.778 298.854 207.819 298.958 207.819 299.166L207.194 313.229H196.59C195.923 313.229 195.521 313.395 195.382 313.729C195.34 313.84 195.285 313.958 195.215 314.083H194.361L194.861 310.562H205.798C206.09 310.562 206.236 310.513 206.236 310.416Z" fill="#DF0000"/>
<path d="M192.002 278.995C199.241 278.995 200.208 271.73 200.208 271.73C200.208 271.73 201.175 278.995 208.414 278.995C213.482 278.995 218.067 275.737 218.067 269.593C218.067 261.474 203.38 253.309 200.208 241.387C197.19 253.299 182.349 261.474 182.349 269.593C182.349 275.737 186.934 278.995 192.002 278.995Z" fill="#DF0000"/>
<path d="M88.4372 55.269C76.4208 55.269 74.8163 67.3268 74.8163 67.3268C74.8163 67.3268 73.2119 55.269 61.1955 55.269C52.7844 55.269 45.1736 60.6754 45.1736 70.8744C45.1736 84.3504 69.5516 97.9021 74.8163 117.69C79.826 97.9187 104.459 84.3504 104.459 70.8744C104.459 60.6754 96.8483 55.269 88.4372 55.269Z" fill="#DF0000"/>
<path d="M61.1955 267.56C73.2119 267.56 74.8164 255.502 74.8164 255.502C74.8164 255.502 76.4208 267.56 88.4372 267.56C96.8483 267.56 104.459 262.154 104.459 251.955C104.459 238.479 80.0811 224.927 74.8164 205.139C69.8067 224.91 45.1736 238.479 45.1736 251.955C45.1736 262.154 52.7844 267.56 61.1955 267.56Z" fill="#DF0000"/>
<path d="M161.227 55.6323C149.211 55.6323 147.606 67.69 147.606 67.69C147.606 67.69 146.002 55.6323 133.985 55.6323C125.574 55.6323 117.963 61.0387 117.963 71.2376C117.963 84.7137 142.341 98.2654 147.606 118.054C152.616 98.282 177.249 84.7137 177.249 71.2376C177.249 61.0387 169.638 55.6323 161.227 55.6323Z" fill="#DF0000"/>
<path d="M133.985 267.924C146.002 267.924 147.606 255.866 147.606 255.866C147.606 255.866 149.211 267.924 161.227 267.924C169.638 267.924 177.249 262.517 177.249 252.318C177.249 238.842 152.871 225.29 147.606 205.502C142.596 225.274 117.963 238.842 117.963 252.318C117.963 262.517 125.574 267.924 133.985 267.924Z" fill="#DF0000"/>
<path d="M124.572 135.526C112.556 135.526 110.951 147.584 110.951 147.584C110.951 147.584 109.347 135.526 97.3304 135.526C88.9192 135.526 81.3085 140.933 81.3085 151.131C81.3085 164.608 105.686 178.159 110.951 197.947C115.961 178.176 140.594 164.608 140.594 151.131C140.594 140.933 132.983 135.526 124.572 135.526Z" fill="#DF0000"/>
</g>
<defs>
<clipPath id="clip0_3_717">
<rect width="222" height="324" fill="white"/>
</clipPath>
</defs>
</svg>
