<svg width="222" height="324" viewBox="0 0 222 324" fill="none" xmlns="http://www.w3.org/2000/svg">
<g clip-path="url(#clip0_3_754)">
<rect width="222" height="324" rx="10" fill="white"/>
<path d="M16.9165 11.6219L16.5832 19.3719C16.5832 19.5385 16.5901 19.6149 16.604 19.601C17.0068 19.1983 17.7498 18.9066 18.8331 18.726C19.9165 18.5455 20.7429 18.4552 21.3123 18.4552C22.5207 18.4552 23.8609 18.7816 25.3331 19.4344C26.8054 20.0733 28.0623 21.0455 29.104 22.351C30.1457 23.6427 30.6665 25.0802 30.6665 26.6635C30.6665 29.358 30.104 31.476 28.979 33.0177C27.8679 34.5594 26.479 35.6496 24.8123 36.2885C23.1595 36.9274 21.4373 37.2469 19.6456 37.2469C17.8679 37.2469 16.3262 36.9205 15.0207 36.2677C14.1457 35.8371 13.6595 35.2955 13.5623 34.6427C13.5623 34.1566 13.722 33.7677 14.0415 33.476C14.3748 33.1705 14.7498 33.0177 15.1665 33.0177C15.597 33.0177 16.0415 33.1844 16.4998 33.5177C16.9582 33.8371 17.4165 34.1983 17.8748 34.601C18.347 34.9899 18.8193 35.351 19.2915 35.6844C19.7776 36.0038 20.3401 36.1635 20.979 36.1635C22.2707 36.1635 23.4026 35.7469 24.3748 34.9135C25.3609 34.0663 26.0901 33.0524 26.5623 31.8719C27.0345 30.6913 27.2706 29.5941 27.2706 28.5802C27.2706 26.6913 26.854 25.2121 26.0206 24.1427C25.2012 23.0733 24.2568 22.358 23.1873 21.9969C22.1318 21.6219 21.222 21.4344 20.4581 21.4344C19.6943 21.4344 19.0623 21.5177 18.5623 21.6844C18.0623 21.851 17.6109 22.0385 17.2082 22.2469C16.8193 22.4413 16.4929 22.6288 16.229 22.8094C15.979 22.976 15.8123 23.0802 15.729 23.1219C15.6457 23.1635 15.5554 23.1844 15.4582 23.1844C15.3748 23.1844 15.3332 23.0802 15.3332 22.8719L15.9582 8.80937H26.5623C27.229 8.80937 27.6318 8.6427 27.7706 8.30937C27.8123 8.19826 27.8679 8.0802 27.9373 7.9552H28.7915L28.2915 11.476H17.354C17.0623 11.476 16.9165 11.5246 16.9165 11.6219Z" fill="black"/>
<path d="M38.6417 65.7946C38.1549 58.3334 23.0589 44.29 22.5722 40.7773C22.0854 44.2882 6.98938 58.3316 6.5026 65.7946C6.16267 71.0692 9.91203 73.2559 13.3214 73.2559C17.0128 73.2162 20.0616 68.1051 21.1118 67.1114C21.5986 68.4282 17.8875 79.4003 16.7289 79.4003H28.4175C27.2589 79.4003 23.5477 68.4282 24.0345 67.1114C24.954 68.0242 27.6493 73.1029 31.8269 73.2559C35.2343 73.254 38.9816 71.0692 38.6417 65.7946Z" fill="black"/>
<path d="M103.162 75.8407C102.307 62.7409 75.8025 38.0845 74.9479 31.9172C74.0932 38.0813 47.5888 62.7376 46.7341 75.8407C46.1373 85.1014 52.7202 88.9406 58.7062 88.9406C65.1872 88.8709 70.54 79.8973 72.3839 78.1527C73.2386 80.4646 66.7228 99.7286 64.6887 99.7286H85.2106C83.1764 99.7286 76.6607 80.4646 77.5153 78.1527C79.1298 79.7552 83.862 88.6721 91.1966 88.9406C97.1791 88.9374 103.758 85.1014 103.162 75.8407Z" fill="black"/>
<path d="M206.45 312.561L206.783 304.811C206.783 304.644 206.776 304.568 206.762 304.582C206.359 304.985 205.616 305.276 204.533 305.457C203.45 305.638 202.623 305.728 202.054 305.728C200.845 305.728 199.505 305.401 198.033 304.749C196.561 304.11 195.304 303.138 194.262 301.832C193.22 300.54 192.7 299.103 192.7 297.519C192.7 294.825 193.262 292.707 194.387 291.165C195.498 289.624 196.887 288.533 198.554 287.894C200.206 287.256 201.929 286.936 203.72 286.936C205.498 286.936 207.04 287.263 208.345 287.915C209.22 288.346 209.706 288.888 209.804 289.54C209.804 290.026 209.644 290.415 209.325 290.707C208.991 291.013 208.616 291.165 208.2 291.165C207.769 291.165 207.325 290.999 206.866 290.665C206.408 290.346 205.95 289.985 205.491 289.582C205.019 289.193 204.547 288.832 204.075 288.499C203.588 288.179 203.026 288.019 202.387 288.019C201.095 288.019 199.963 288.436 198.991 289.269C198.005 290.117 197.276 291.131 196.804 292.311C196.331 293.492 196.095 294.589 196.095 295.603C196.095 297.492 196.512 298.971 197.345 300.04C198.165 301.11 199.109 301.825 200.179 302.186C201.234 302.561 202.144 302.749 202.908 302.749C203.672 302.749 204.304 302.665 204.804 302.499C205.304 302.332 205.755 302.144 206.158 301.936C206.547 301.742 206.873 301.554 207.137 301.374C207.387 301.207 207.554 301.103 207.637 301.061C207.72 301.019 207.811 300.999 207.908 300.999C207.991 300.999 208.033 301.103 208.033 301.311L207.408 315.374H196.804C196.137 315.374 195.734 315.54 195.595 315.874C195.554 315.985 195.498 316.103 195.429 316.228H194.575L195.075 312.707H206.012C206.304 312.707 206.45 312.658 206.45 312.561Z" fill="black"/>
<path d="M184.231 258.352C184.717 265.813 199.813 279.857 200.3 283.369C200.787 279.859 215.883 265.815 216.37 258.352C216.71 253.078 212.96 250.891 209.551 250.891C205.859 250.931 202.811 256.042 201.76 257.035C201.274 255.719 204.985 244.746 206.143 244.746H194.455C195.613 244.746 199.325 255.719 198.838 257.035C197.918 256.123 195.223 251.044 191.045 250.891C187.638 250.893 183.891 253.078 184.231 258.352Z" fill="black"/>
<path d="M46.7945 248.342C47.6491 261.442 74.1535 286.099 75.0082 292.266C75.8628 286.102 102.367 261.445 103.222 248.342C103.819 239.082 97.2359 235.242 91.2499 235.242C84.7689 235.312 79.416 244.286 77.5721 246.03C76.7175 243.719 83.2332 224.455 85.2674 224.455H64.7454C66.7796 224.455 73.2954 243.719 72.4407 246.03C70.8263 244.428 66.094 235.511 58.7594 235.242C52.7769 235.246 46.1976 239.082 46.7945 248.342Z" fill="black"/>
<path d="M139.54 168.776C138.685 155.676 112.181 131.02 111.326 124.852C110.472 131.016 83.9672 155.673 83.1126 168.776C82.5157 178.037 89.0986 181.876 95.0846 181.876C101.566 181.806 106.918 172.832 108.762 171.088C109.617 173.4 103.101 192.664 101.067 192.664H121.589C119.555 192.664 113.039 173.4 113.894 171.088C115.508 172.69 120.24 181.607 127.575 181.876C133.558 181.873 140.137 178.037 139.54 168.776Z" fill="black"/>
<path d="M174.788 76.0136C173.934 62.9137 147.429 38.2574 146.575 32.0901C145.72 38.2542 119.215 62.9105 118.361 76.0136C117.764 85.2742 124.347 89.1135 130.333 89.1135C136.814 89.0438 142.167 80.0701 144.011 78.3255C144.865 80.6375 138.35 99.9014 136.315 99.9014H156.837C154.803 99.9014 148.287 80.6375 149.142 78.3255C150.756 79.928 155.489 88.8449 162.823 89.1135C168.806 89.1102 175.385 85.2742 174.788 76.0136Z" fill="black"/>
<path d="M118.421 248.515C119.276 261.615 145.78 286.271 146.635 292.439C147.49 286.275 173.994 261.618 174.849 248.515C175.446 239.255 168.863 235.415 162.877 235.415C156.396 235.485 151.043 244.459 149.199 246.203C148.344 243.891 154.86 224.627 156.894 224.627H136.372C138.406 224.627 144.922 243.891 144.068 246.203C142.453 244.601 137.721 235.684 130.386 235.415C124.404 235.419 117.824 239.255 118.421 248.515Z" fill="black"/>
</g>
<defs>
<clipPath id="clip0_3_754">
<rect width="222" height="324" fill="white"/>
</clipPath>
</defs>
</svg>
