<svg width="222" height="324" viewBox="0 0 222 324" fill="none" xmlns="http://www.w3.org/2000/svg">
<g clip-path="url(#clip0_3_791)">
<rect width="222" height="324" rx="10" fill="white"/>
<path d="M29.8308 7.37708C30.053 7.37708 30.1641 7.48124 30.1641 7.68958C30.1641 7.89791 29.5947 8.31458 28.4558 8.93958C27.3169 9.55069 26.6085 9.95346 26.3308 10.1479C25.428 10.759 24.5252 11.4257 23.6224 12.1479C20.6502 14.5368 19.1433 16.4882 19.1016 18.0021C19.2127 18.0021 19.3377 17.9674 19.4766 17.8979C19.6294 17.8285 19.8933 17.7174 20.2683 17.5646C20.6572 17.4118 21.3447 17.3354 22.3308 17.3354C23.3308 17.3354 24.4002 17.5924 25.5391 18.1062C26.6919 18.6062 27.6849 19.2868 28.5183 20.1479C30.296 22.009 31.1849 24.2868 31.1849 26.9812C31.1849 29.6757 30.2752 31.9604 28.4558 33.8354C26.6502 35.6965 24.4002 36.6271 21.7058 36.6271C19.0252 36.6271 16.8585 35.5229 15.2058 33.3146C13.5669 31.1062 12.7474 28.5368 12.7474 25.6062C12.7474 21.9535 13.9349 18.7729 16.3099 16.0646C18.3655 13.7174 21.8655 11.1896 26.8099 8.48124C27.3655 8.17569 27.9558 7.91874 28.5808 7.71041C29.2058 7.48819 29.6224 7.37708 29.8308 7.37708ZM16.2266 26.8146C16.2266 28.9951 16.6363 30.9049 17.4558 32.5437C18.4558 34.5299 19.921 35.5229 21.8516 35.5229C23.796 35.5229 25.2613 34.641 26.2474 32.8771C27.0808 31.4049 27.4974 29.6201 27.4974 27.5229C27.4974 23.4257 26.4002 20.6896 24.2058 19.3146C23.4002 18.8146 22.4558 18.5646 21.3724 18.5646C19.4558 18.5646 18.0947 19.3424 17.2891 20.8979C16.6085 22.2174 16.2544 24.1132 16.2266 26.5854V26.8146Z" fill="black"/>
<path d="M27.5879 58.3197C27.5879 58.3197 32.2924 54.556 32.2924 49.3384C32.2924 46.2839 29.5806 41.2129 23.3112 41.2129C17.0417 41.2129 14.3299 46.2859 14.3299 49.3384C14.3299 54.556 19.0345 58.3197 19.0345 58.3197C13.8089 54.249 4.49292 57.0281 4.49292 65.1636C4.49292 69.2362 7.82078 73.7169 13.0463 73.7169C19.3158 73.7169 22.0276 66.873 22.0276 66.873C22.0276 66.873 22.8239 74.6737 18.1787 78.8494H28.4436C23.7985 74.6757 24.5948 66.873 24.5948 66.873C24.5948 66.873 27.3066 73.7169 33.576 73.7169C38.8035 73.7169 42.1294 69.2342 42.1294 65.1636C42.1294 57.0281 32.8134 54.249 27.5879 58.3197Z" fill="black"/>
<path d="M193.069 315.31C192.846 315.31 192.735 315.205 192.735 314.997C192.735 314.789 193.305 314.372 194.444 313.747C195.583 313.136 196.291 312.733 196.569 312.539C197.471 311.928 198.374 311.261 199.277 310.539C202.249 308.15 203.756 306.198 203.798 304.685C203.687 304.685 203.562 304.719 203.423 304.789C203.27 304.858 203.006 304.969 202.631 305.122C202.242 305.275 201.555 305.351 200.569 305.351C199.569 305.351 198.499 305.094 197.36 304.58C196.208 304.08 195.214 303.4 194.381 302.539C192.603 300.678 191.714 298.4 191.714 295.705C191.714 293.011 192.624 290.726 194.444 288.851C196.249 286.99 198.499 286.06 201.194 286.06C203.874 286.06 206.041 287.164 207.694 289.372C209.333 291.58 210.152 294.15 210.152 297.08C210.152 300.733 208.964 303.914 206.589 306.622C204.534 308.969 201.034 311.497 196.089 314.205C195.534 314.511 194.944 314.768 194.319 314.976C193.694 315.198 193.277 315.31 193.069 315.31ZM206.673 295.872C206.673 293.692 206.263 291.782 205.444 290.143C204.444 288.157 202.978 287.164 201.048 287.164C199.103 287.164 197.638 288.046 196.652 289.81C195.819 291.282 195.402 293.067 195.402 295.164C195.402 299.261 196.499 301.997 198.694 303.372C199.499 303.872 200.444 304.122 201.527 304.122C203.444 304.122 204.805 303.344 205.61 301.789C206.291 300.469 206.645 298.573 206.673 296.101V295.872Z" fill="black"/>
<path d="M195.312 264.987C195.312 264.987 190.607 268.751 190.607 273.968C190.607 277.023 193.319 282.094 199.588 282.094C205.858 282.094 208.57 277.021 208.57 273.968C208.57 268.751 203.865 264.987 203.865 264.987C209.09 269.058 218.406 266.279 218.406 258.143C218.406 254.07 215.079 249.59 209.853 249.59C203.584 249.59 200.872 256.434 200.872 256.434C200.872 256.434 200.076 248.633 204.721 244.457H194.456C199.101 248.631 198.305 256.434 198.305 256.434C198.305 256.434 195.593 249.59 189.323 249.59C184.096 249.59 180.77 254.072 180.77 258.143C180.77 266.279 190.086 269.058 195.312 264.987Z" fill="black"/>
<path d="M83.1638 63.3332C83.1638 63.3332 91.1203 56.968 91.1203 48.1439C91.1203 42.978 86.534 34.4017 75.9309 34.4017C65.3278 34.4017 60.7415 42.9814 60.7415 48.1439C60.7415 56.968 68.698 63.3332 68.698 63.3332C59.8605 56.4488 44.1049 61.149 44.1049 74.9078C44.1049 81.7957 49.7331 89.3736 58.5707 89.3736C69.1737 89.3736 73.76 77.799 73.76 77.799C73.76 77.799 75.1068 90.9917 67.2508 98.0537H84.611C76.755 90.995 78.1018 77.799 78.1018 77.799C78.1018 77.799 82.6881 89.3736 93.2911 89.3736C102.132 89.3736 107.757 81.7923 107.757 74.9078C107.757 61.149 92.0014 56.4488 83.1638 63.3332Z" fill="black"/>
<path d="M68.7578 261.659C68.7578 261.659 60.8013 268.024 60.8013 276.848C60.8013 282.014 65.3876 290.59 75.9907 290.59C86.5937 290.59 91.18 282.011 91.18 276.848C91.18 268.024 83.2235 261.659 83.2235 261.659C92.0611 268.543 107.817 263.843 107.817 250.084C107.817 243.196 102.188 235.618 93.3509 235.618C82.7478 235.618 78.1615 247.193 78.1615 247.193C78.1615 247.193 76.8148 234 84.6708 226.938H67.3105C75.1665 233.997 73.8198 247.193 73.8198 247.193C73.8198 247.193 69.2335 235.618 58.6304 235.618C49.7895 235.618 44.1647 243.2 44.1647 250.084C44.1647 263.843 59.9202 268.543 68.7578 261.659Z" fill="black"/>
<path d="M83.1638 156.268C83.1638 156.268 91.1203 149.902 91.1203 141.078C91.1203 135.912 86.534 127.336 75.9309 127.336C65.3278 127.336 60.7415 135.916 60.7415 141.078C60.7415 149.902 68.698 156.268 68.698 156.268C59.8605 149.383 44.1049 154.083 44.1049 167.842C44.1049 174.73 49.7331 182.308 58.5707 182.308C69.1737 182.308 73.76 170.733 73.76 170.733C73.76 170.733 75.1068 183.926 67.2508 190.988H84.611C76.755 183.929 78.1018 170.733 78.1018 170.733C78.1018 170.733 82.6881 182.308 93.2911 182.308C102.132 182.308 107.757 174.727 107.757 167.842C107.757 154.083 92.0014 149.383 83.1638 156.268Z" fill="black"/>
<path d="M153.544 63.1017C153.544 63.1017 161.5 56.7365 161.5 47.9123C161.5 42.7464 156.914 34.1702 146.311 34.1702C135.708 34.1702 131.122 42.7498 131.122 47.9123C131.122 56.7365 139.078 63.1017 139.078 63.1017C130.241 56.2172 114.485 60.9174 114.485 74.6763C114.485 81.5641 120.113 89.142 128.951 89.142C139.554 89.142 144.14 77.5674 144.14 77.5674C144.14 77.5674 145.487 90.7601 137.631 97.8221H154.991C147.135 90.7635 148.482 77.5674 148.482 77.5674C148.482 77.5674 153.068 89.142 163.671 89.142C172.512 89.142 178.137 81.5607 178.137 74.6763C178.137 60.9174 162.381 56.2172 153.544 63.1017Z" fill="black"/>
<path d="M139.138 261.427C139.138 261.427 131.181 267.792 131.181 276.617C131.181 281.782 135.768 290.359 146.371 290.359C156.974 290.359 161.56 281.779 161.56 276.617C161.56 267.792 153.604 261.427 153.604 261.427C162.441 268.312 178.197 263.611 178.197 249.853C178.197 242.965 172.569 235.387 163.731 235.387C153.128 235.387 148.542 246.961 148.542 246.961C148.542 246.961 147.195 233.769 155.051 226.707H137.691C145.547 233.765 144.2 246.961 144.2 246.961C144.2 246.961 139.614 235.387 129.011 235.387C120.17 235.387 114.545 242.968 114.545 249.853C114.545 263.611 130.3 268.312 139.138 261.427Z" fill="black"/>
<path d="M153.544 156.036C153.544 156.036 161.5 149.671 161.5 140.847C161.5 135.681 156.914 127.104 146.311 127.104C135.708 127.104 131.122 135.684 131.122 140.847C131.122 149.671 139.078 156.036 139.078 156.036C130.241 149.152 114.485 153.852 114.485 167.611C114.485 174.498 120.113 182.076 128.951 182.076C139.554 182.076 144.14 170.502 144.14 170.502C144.14 170.502 145.487 183.694 137.631 190.756H154.991C147.135 183.698 148.482 170.502 148.482 170.502C148.482 170.502 153.068 182.076 163.671 182.076C172.512 182.076 178.137 174.495 178.137 167.611C178.137 153.852 162.381 149.152 153.544 156.036Z" fill="black"/>
</g>
<defs>
<clipPath id="clip0_3_791">
<rect width="222" height="324" fill="white"/>
</clipPath>
</defs>
</svg>
