<svg width="222" height="324" viewBox="0 0 222 324" fill="none" xmlns="http://www.w3.org/2000/svg">
<g clip-path="url(#clip0_3_830)">
<rect width="222" height="324" rx="10" fill="white"/>
<path d="M29.2109 5.86353C29.4331 5.86353 29.5442 5.96769 29.5442 6.17603C29.5442 6.38436 28.9748 6.80103 27.8359 7.42603C26.697 8.03714 25.9887 8.43991 25.7109 8.63436C24.8081 9.24547 23.9053 9.91214 23.0026 10.6344C20.0303 13.0232 18.5234 14.9746 18.4817 16.4885C18.5928 16.4885 18.7178 16.4538 18.8567 16.3844C19.0095 16.3149 19.2734 16.2038 19.6484 16.051C20.0373 15.8982 20.7248 15.8219 21.7109 15.8219C22.7109 15.8219 23.7803 16.0788 24.9192 16.5927C26.072 17.0927 27.0651 17.7732 27.8984 18.6344C29.6762 20.4955 30.5651 22.7732 30.5651 25.4677C30.5651 28.1621 29.6553 30.4469 27.8359 32.3219C26.0303 34.183 23.7803 35.1135 21.0859 35.1135C18.4053 35.1135 16.2387 34.0094 14.5859 31.801C12.947 29.5927 12.1276 27.0232 12.1276 24.0927C12.1276 20.4399 13.3151 17.2594 15.6901 14.551C17.7456 12.2038 21.2456 9.67603 26.1901 6.96769C26.7456 6.66214 27.3359 6.40519 27.9609 6.19686C28.5859 5.97464 29.0026 5.86353 29.2109 5.86353ZM15.6067 25.301C15.6067 27.4816 16.0165 29.3913 16.8359 31.0302C17.8359 33.0163 19.3012 34.0094 21.2317 34.0094C23.1762 34.0094 24.6415 33.1274 25.6276 31.3635C26.4609 29.8913 26.8776 28.1066 26.8776 26.0094C26.8776 21.9121 25.7803 19.176 23.5859 17.801C22.7803 17.301 21.8359 17.051 20.7526 17.051C18.8359 17.051 17.4748 17.8288 16.6692 19.3844C15.9887 20.7038 15.6345 22.5996 15.6067 25.0719V25.301Z" fill="#DF0000"/>
<path d="M193.9 318.308C193.678 318.308 193.567 318.203 193.567 317.995C193.567 317.787 194.137 317.37 195.275 316.745C196.414 316.134 197.123 315.731 197.4 315.537C198.303 314.926 199.206 314.259 200.109 313.537C203.081 311.148 204.588 309.197 204.63 307.683C204.518 307.683 204.393 307.717 204.255 307.787C204.102 307.856 203.838 307.967 203.463 308.12C203.074 308.273 202.387 308.349 201.4 308.349C200.4 308.349 199.331 308.092 198.192 307.578C197.039 307.078 196.046 306.398 195.213 305.537C193.435 303.676 192.546 301.398 192.546 298.703C192.546 296.009 193.456 293.724 195.275 291.849C197.081 289.988 199.331 289.058 202.025 289.058C204.706 289.058 206.873 290.162 208.525 292.37C210.164 294.578 210.984 297.148 210.984 300.078C210.984 303.731 209.796 306.912 207.421 309.62C205.366 311.967 201.866 314.495 196.921 317.203C196.366 317.509 195.775 317.766 195.15 317.974C194.525 318.197 194.109 318.308 193.9 318.308ZM207.505 298.87C207.505 296.69 207.095 294.78 206.275 293.141C205.275 291.155 203.81 290.162 201.88 290.162C199.935 290.162 198.47 291.044 197.484 292.808C196.65 294.28 196.234 296.065 196.234 298.162C196.234 302.259 197.331 304.995 199.525 306.37C200.331 306.87 201.275 307.12 202.359 307.12C204.275 307.12 205.637 306.342 206.442 304.787C207.123 303.467 207.477 301.572 207.505 299.099V298.87Z" fill="#DF0000"/>
<path d="M29.0109 49.6762C24.8421 44.0364 22.6242 38.3047 22.6242 38.3047C22.6242 38.3047 20.4062 44.0364 16.2374 49.6762C12.0666 55.3141 6.87048 58.9814 6.87048 58.9814C6.87048 58.9814 12.0666 62.6467 16.2374 68.2885C20.4062 73.9263 22.6242 79.6581 22.6242 79.6581C22.6242 79.6581 24.8421 73.9263 29.0109 68.2885C33.1817 62.6467 38.3778 58.9814 38.3778 58.9814C38.3778 58.9814 33.1817 55.3141 29.0109 49.6762Z" fill="#DF0000"/>
<path d="M207.215 255.366C203.046 249.726 200.828 243.995 200.828 243.995C200.828 243.995 198.61 249.726 194.441 255.366C190.27 261.004 185.074 264.671 185.074 264.671C185.074 264.671 190.27 268.337 194.441 273.978C198.61 279.616 200.828 285.348 200.828 285.348C200.828 285.348 203.046 279.616 207.215 273.978C211.385 268.337 216.582 264.671 216.582 264.671C216.582 264.671 211.385 261.004 207.215 255.366Z" fill="#DF0000"/>
<path d="M158.031 239.722C150.725 229.838 146.838 219.793 146.838 219.793C146.838 219.793 142.951 229.838 135.645 239.722C128.336 249.602 119.23 256.029 119.23 256.029C119.23 256.029 128.336 262.453 135.645 272.34C142.951 282.22 146.838 292.265 146.838 292.265C146.838 292.265 150.725 282.22 158.031 272.34C165.341 262.453 174.447 256.029 174.447 256.029C174.447 256.029 165.341 249.602 158.031 239.722Z" fill="#DF0000"/>
<path d="M158.031 51.452C150.725 41.5682 146.838 31.5233 146.838 31.5233C146.838 31.5233 142.951 41.5682 135.645 51.452C128.336 61.3324 119.23 67.7594 119.23 67.7594C119.23 67.7594 128.336 74.1829 135.645 84.0702C142.951 93.9506 146.838 103.995 146.838 103.995C146.838 103.995 150.725 93.9506 158.031 84.0702C165.341 74.1829 174.447 67.7594 174.447 67.7594C174.447 67.7594 165.341 61.3324 158.031 51.452Z" fill="#DF0000"/>
<path d="M158.031 144.386C150.725 134.503 146.838 124.458 146.838 124.458C146.838 124.458 142.951 134.503 135.645 144.386C128.336 154.267 119.23 160.694 119.23 160.694C119.23 160.694 128.336 167.117 135.645 177.005C142.951 186.885 146.838 196.93 146.838 196.93C146.838 196.93 150.725 186.885 158.031 177.005C165.341 167.117 174.447 160.694 174.447 160.694C174.447 160.694 165.341 154.267 158.031 144.386Z" fill="#DF0000"/>
<path d="M85.8774 239.879C78.5715 229.996 74.6845 219.951 74.6845 219.951C74.6845 219.951 70.7975 229.996 63.4916 239.879C56.1823 249.76 47.076 256.187 47.076 256.187C47.076 256.187 56.1823 262.61 63.4916 272.498C70.7975 282.378 74.6845 292.423 74.6845 292.423C74.6845 292.423 78.5715 282.378 85.8774 272.498C93.1867 262.61 102.293 256.187 102.293 256.187C102.293 256.187 93.1867 249.76 85.8774 239.879Z" fill="#DF0000"/>
<path d="M85.8774 51.6095C78.5715 41.7257 74.6845 31.6808 74.6845 31.6808C74.6845 31.6808 70.7975 41.7257 63.4916 51.6095C56.1823 61.4899 47.076 67.9169 47.076 67.9169C47.076 67.9169 56.1823 74.3404 63.4916 84.2277C70.7975 94.108 74.6845 104.153 74.6845 104.153C74.6845 104.153 78.5715 94.108 85.8774 84.2277C93.1867 74.3404 102.293 67.9169 102.293 67.9169C102.293 67.9169 93.1867 61.4899 85.8774 51.6095Z" fill="#DF0000"/>
<path d="M85.8774 144.544C78.5715 134.66 74.6845 124.615 74.6845 124.615C74.6845 124.615 70.7975 134.66 63.4916 144.544C56.1823 154.424 47.076 160.851 47.076 160.851C47.076 160.851 56.1823 167.275 63.4916 177.162C70.7975 187.042 74.6845 197.087 74.6845 197.087C74.6845 197.087 78.5715 187.042 85.8774 177.162C93.1867 167.275 102.293 160.851 102.293 160.851C102.293 160.851 93.1867 154.424 85.8774 144.544Z" fill="#DF0000"/>
</g>
<defs>
<clipPath id="clip0_3_830">
<rect width="222" height="324" fill="white"/>
</clipPath>
</defs>
</svg>
