<svg width="222" height="324" viewBox="0 0 222 324" fill="none" xmlns="http://www.w3.org/2000/svg">
<g clip-path="url(#clip0_3_871)">
<rect width="222" height="324" rx="10" fill="white"/>
<path d="M30.4507 7.99683C30.6729 7.99683 30.784 8.10099 30.784 8.30933C30.784 8.51766 30.2146 8.93433 29.0757 9.55933C27.9368 10.1704 27.2285 10.5732 26.9507 10.7677C26.0479 11.3788 25.1451 12.0454 24.2424 12.7677C21.2701 15.1565 19.7632 17.1079 19.7215 18.6218C19.8326 18.6218 19.9576 18.5871 20.0965 18.5177C20.2493 18.4482 20.5132 18.3371 20.8882 18.1843C21.2771 18.0315 21.9646 17.9552 22.9507 17.9552C23.9507 17.9552 25.0201 18.2121 26.159 18.726C27.3118 19.226 28.3049 19.9065 29.1382 20.7677C30.916 22.6288 31.8049 24.9065 31.8049 27.601C31.8049 30.2954 30.8951 32.5802 29.0757 34.4552C27.2701 36.3163 25.0201 37.2468 22.3257 37.2468C19.6451 37.2468 17.4785 36.1427 15.8257 33.9343C14.1868 31.726 13.3674 29.1565 13.3674 26.226C13.3674 22.5732 14.5549 19.3927 16.9299 16.6843C18.9854 14.3371 22.4854 11.8093 27.4299 9.10099C27.9854 8.79544 28.5757 8.53849 29.2007 8.33016C29.8257 8.10794 30.2424 7.99683 30.4507 7.99683ZM16.8465 27.4343C16.8465 29.6149 17.2563 31.5246 18.0757 33.1635C19.0757 35.1496 20.541 36.1427 22.4715 36.1427C24.416 36.1427 25.8813 35.2607 26.8674 33.4968C27.7007 32.0246 28.1174 30.2399 28.1174 28.1427C28.1174 24.0454 27.0201 21.3093 24.8257 19.9343C24.0201 19.4343 23.0757 19.1843 21.9924 19.1843C20.0757 19.1843 18.7146 19.9621 17.909 21.5177C17.2285 22.8371 16.8743 24.7329 16.8465 27.2052V27.4343Z" fill="#DF0000"/>
<path d="M31.1096 43.0432C23.8699 43.0432 22.9032 50.3078 22.9032 50.3078C22.9032 50.3078 21.9366 43.0432 14.6969 43.0432C9.62931 43.0432 5.04395 46.3005 5.04395 52.4452C5.04395 60.5643 19.7313 68.729 22.9032 80.651C25.9215 68.739 40.7625 60.5643 40.7625 52.4452C40.7625 46.3005 36.1771 43.0432 31.1096 43.0432Z" fill="#DF0000"/>
<path d="M193.007 314.041C192.785 314.041 192.674 313.937 192.674 313.729C192.674 313.52 193.243 313.104 194.382 312.479C195.521 311.867 196.229 311.465 196.507 311.27C197.41 310.659 198.312 309.992 199.215 309.27C202.187 306.881 203.694 304.93 203.736 303.416C203.625 303.416 203.5 303.451 203.361 303.52C203.208 303.59 202.944 303.701 202.569 303.854C202.18 304.006 201.493 304.083 200.507 304.083C199.507 304.083 198.437 303.826 197.299 303.312C196.146 302.812 195.153 302.131 194.319 301.27C192.542 299.409 191.653 297.131 191.653 294.437C191.653 291.742 192.562 289.458 194.382 287.583C196.187 285.722 198.437 284.791 201.132 284.791C203.812 284.791 205.979 285.895 207.632 288.104C209.271 290.312 210.09 292.881 210.09 295.812C210.09 299.465 208.903 302.645 206.528 305.354C204.472 307.701 200.972 310.229 196.028 312.937C195.472 313.242 194.882 313.499 194.257 313.708C193.632 313.93 193.215 314.041 193.007 314.041ZM206.611 294.604C206.611 292.423 206.201 290.513 205.382 288.874C204.382 286.888 202.917 285.895 200.986 285.895C199.042 285.895 197.576 286.777 196.59 288.541C195.757 290.013 195.34 291.798 195.34 293.895C195.34 297.992 196.437 300.729 198.632 302.104C199.437 302.604 200.382 302.854 201.465 302.854C203.382 302.854 204.743 302.076 205.549 300.52C206.229 299.201 206.583 297.305 206.611 294.833V294.604Z" fill="#DF0000"/>
<path d="M192.002 278.995C199.241 278.995 200.208 271.73 200.208 271.73C200.208 271.73 201.175 278.995 208.414 278.995C213.482 278.995 218.067 275.737 218.067 269.593C218.067 261.474 203.38 253.309 200.208 241.387C197.19 253.299 182.349 261.474 182.349 269.593C182.349 275.737 186.934 278.995 192.002 278.995Z" fill="#DF0000"/>
<path d="M90.5705 32.261C78.5541 32.261 76.9496 44.3187 76.9496 44.3187C76.9496 44.3187 75.3452 32.261 63.3288 32.261C54.9177 32.261 47.3069 37.6674 47.3069 47.8663C47.3069 61.3424 71.6849 74.8941 76.9496 94.6823C81.9593 74.9107 106.592 61.3424 106.592 47.8663C106.592 37.6674 98.9816 32.261 90.5705 32.261Z" fill="#DF0000"/>
<path d="M63.3289 287.219C75.3454 287.219 76.9498 275.161 76.9498 275.161C76.9498 275.161 78.5542 287.219 90.5706 287.219C98.9818 287.219 106.593 281.812 106.593 271.613C106.593 258.137 82.2145 244.586 76.9498 224.797C71.9401 244.569 47.307 258.137 47.307 271.613C47.307 281.812 54.9178 287.219 63.3289 287.219Z" fill="#DF0000"/>
<path d="M90.5705 127.329C78.5541 127.329 76.9496 139.387 76.9496 139.387C76.9496 139.387 75.3452 127.329 63.3288 127.329C54.9177 127.329 47.3069 132.735 47.3069 142.934C47.3069 156.41 71.6849 169.962 76.9496 189.75C81.9593 169.979 106.592 156.41 106.592 142.934C106.592 132.735 98.9816 127.329 90.5705 127.329Z" fill="#DF0000"/>
<path d="M159.021 31.8198C147.005 31.8198 145.401 43.8775 145.401 43.8775C145.401 43.8775 143.796 31.8198 131.78 31.8198C123.369 31.8198 115.758 37.2262 115.758 47.4251C115.758 60.9012 140.136 74.4529 145.401 94.2411C150.41 74.4695 175.043 60.9012 175.043 47.4251C175.043 37.2262 167.433 31.8198 159.021 31.8198Z" fill="#DF0000"/>
<path d="M131.78 286.778C143.796 286.778 145.4 274.72 145.4 274.72C145.4 274.72 147.005 286.778 159.021 286.778C167.432 286.778 175.043 281.371 175.043 271.172C175.043 257.696 150.665 244.144 145.4 224.356C140.391 244.128 115.758 257.696 115.758 271.172C115.758 281.371 123.368 286.778 131.78 286.778Z" fill="#DF0000"/>
<path d="M159.021 126.887C147.005 126.887 145.401 138.945 145.401 138.945C145.401 138.945 143.796 126.887 131.78 126.887C123.369 126.887 115.758 132.294 115.758 142.493C115.758 155.969 140.136 169.521 145.401 189.309C150.41 169.537 175.043 155.969 175.043 142.493C175.043 132.294 167.433 126.887 159.021 126.887Z" fill="#DF0000"/>
</g>
<defs>
<clipPath id="clip0_3_871">
<rect width="222" height="324" fill="white"/>
</clipPath>
</defs>
</svg>
