<svg width="222" height="324" viewBox="0 0 222 324" fill="none" xmlns="http://www.w3.org/2000/svg">
<g clip-path="url(#clip0_3_912)">
<rect width="222" height="324" rx="10" fill="white"/>
<path d="M30.1455 7.99683C30.3678 7.99683 30.4789 8.10099 30.4789 8.30933C30.4789 8.51766 29.9094 8.93433 28.7705 9.55933C27.6316 10.1704 26.9233 10.5732 26.6455 10.7677C25.7428 11.3788 24.84 12.0454 23.9372 12.7677C20.965 15.1565 19.458 17.1079 19.4164 18.6218C19.5275 18.6218 19.6525 18.5871 19.7914 18.5177C19.9441 18.4482 20.208 18.3371 20.583 18.1843C20.9719 18.0315 21.6594 17.9552 22.6455 17.9552C23.6455 17.9552 24.715 18.2121 25.8539 18.726C27.0066 19.226 27.9997 19.9065 28.833 20.7677C30.6108 22.6288 31.4997 24.9065 31.4997 27.601C31.4997 30.2954 30.59 32.5802 28.7705 34.4552C26.965 36.3163 24.715 37.2468 22.0205 37.2468C19.34 37.2468 17.1733 36.1427 15.5205 33.9343C13.8816 31.726 13.0622 29.1565 13.0622 26.226C13.0622 22.5732 14.2497 19.3927 16.6247 16.6843C18.6803 14.3371 22.1803 11.8093 27.1247 9.10099C27.6803 8.79544 28.2705 8.53849 28.8955 8.33016C29.5205 8.10794 29.9372 7.99683 30.1455 7.99683ZM16.5414 27.4343C16.5414 29.6149 16.9511 31.5246 17.7705 33.1635C18.7705 35.1496 20.2358 36.1427 22.1664 36.1427C24.1108 36.1427 25.5761 35.2607 26.5622 33.4968C27.3955 32.0246 27.8122 30.2399 27.8122 28.1427C27.8122 24.0454 26.715 21.3093 24.5205 19.9343C23.715 19.4343 22.7705 19.1843 21.6872 19.1843C19.7705 19.1843 18.4094 19.9621 17.6039 21.5177C16.9233 22.8371 16.5691 24.7329 16.5414 27.2052V27.4343Z" fill="black"/>
<path d="M38.6416 65.7946C38.1548 58.3334 23.0588 44.29 22.572 40.7773C22.0853 44.2882 6.98925 58.3316 6.50248 65.7946C6.16254 71.0692 9.9119 73.2559 13.3213 73.2559C17.0127 73.2162 20.0615 68.1051 21.1117 67.1114C21.5985 68.4282 17.8873 79.4003 16.7287 79.4003H28.4173C27.2587 79.4003 23.5476 68.4282 24.0344 67.1114C24.9539 68.0242 27.6492 73.1029 31.8268 73.2559C35.2342 73.254 38.9815 71.0692 38.6416 65.7946Z" fill="black"/>
<path d="M103.162 75.8407C102.307 62.7409 75.8024 38.0845 74.9478 31.9172C74.0932 38.0813 47.5887 62.7376 46.7341 75.8407C46.1372 85.1014 52.7201 88.9406 58.7061 88.9406C65.1871 88.8709 70.5399 79.8973 72.3839 78.1527C73.2385 80.4646 66.7228 99.7286 64.6886 99.7286H85.2106C83.1764 99.7286 76.6606 80.4646 77.5153 78.1527C79.1297 79.7552 83.8619 88.6721 91.1966 88.9406C97.1791 88.9374 103.758 85.1014 103.162 75.8407Z" fill="black"/>
<path d="M193.22 316.186C192.998 316.186 192.887 316.082 192.887 315.874C192.887 315.665 193.456 315.249 194.595 314.624C195.734 314.013 196.443 313.61 196.72 313.415C197.623 312.804 198.526 312.138 199.429 311.415C202.401 309.027 203.908 307.075 203.95 305.561C203.838 305.561 203.713 305.596 203.575 305.665C203.422 305.735 203.158 305.846 202.783 305.999C202.394 306.152 201.706 306.228 200.72 306.228C199.72 306.228 198.651 305.971 197.512 305.457C196.359 304.957 195.366 304.277 194.533 303.415C192.755 301.554 191.866 299.277 191.866 296.582C191.866 293.888 192.776 291.603 194.595 289.728C196.401 287.867 198.651 286.936 201.345 286.936C204.026 286.936 206.193 288.04 207.845 290.249C209.484 292.457 210.304 295.027 210.304 297.957C210.304 301.61 209.116 304.79 206.741 307.499C204.686 309.846 201.186 312.374 196.241 315.082C195.686 315.388 195.095 315.645 194.47 315.853C193.845 316.075 193.429 316.186 193.22 316.186ZM206.825 296.749C206.825 294.568 206.415 292.659 205.595 291.02C204.595 289.034 203.13 288.04 201.2 288.04C199.255 288.04 197.79 288.922 196.804 290.686C195.97 292.159 195.554 293.943 195.554 296.04C195.554 300.138 196.651 302.874 198.845 304.249C199.651 304.749 200.595 304.999 201.679 304.999C203.595 304.999 204.956 304.221 205.762 302.665C206.443 301.346 206.797 299.45 206.825 296.978V296.749Z" fill="black"/>
<path d="M184.231 258.352C184.717 265.813 199.813 279.857 200.3 283.369C200.787 279.859 215.883 265.815 216.37 258.352C216.71 253.078 212.96 250.891 209.551 250.891C205.859 250.931 202.811 256.042 201.76 257.035C201.274 255.719 204.985 244.746 206.143 244.746H194.455C195.613 244.746 199.325 255.719 198.838 257.035C197.918 256.123 195.223 251.044 191.045 250.891C187.638 250.893 183.891 253.078 184.231 258.352Z" fill="black"/>
<path d="M46.7945 248.342C47.6492 261.442 74.1536 286.099 75.0082 292.266C75.8629 286.102 102.367 261.445 103.222 248.342C103.819 239.082 97.236 235.242 91.2499 235.242C84.7689 235.312 79.4161 244.286 77.5722 246.03C76.7175 243.719 83.2333 224.455 85.2675 224.455H64.7455C66.7797 224.455 73.2954 243.719 72.4408 246.03C70.8263 244.428 66.0941 235.511 58.7595 235.242C52.777 235.246 46.1977 239.082 46.7945 248.342Z" fill="black"/>
<path d="M103.273 168.776C102.419 155.676 75.9143 131.02 75.0596 124.852C74.205 131.016 47.7005 155.673 46.8459 168.776C46.2491 178.036 52.8319 181.876 58.8179 181.876C65.299 181.806 70.6518 172.832 72.4957 171.088C73.3503 173.4 66.8346 192.664 64.8004 192.664H85.3224C83.2882 192.664 76.7724 173.4 77.6271 171.088C79.2415 172.69 83.9738 181.607 91.3084 181.876C97.2909 181.872 103.87 178.036 103.273 168.776Z" fill="black"/>
<path d="M176.078 75.5754C175.223 62.4755 148.718 37.8192 147.864 31.6519C147.009 37.8159 120.505 62.4722 119.65 75.5754C119.053 84.836 125.636 88.6752 131.622 88.6752C138.103 88.6056 143.456 79.6319 145.3 77.8873C146.155 80.1992 139.639 99.4632 137.605 99.4632H158.127C156.092 99.4632 149.577 80.1992 150.431 77.8873C152.046 79.4898 156.778 88.4067 164.113 88.6752C170.095 88.672 176.674 84.836 176.078 75.5754Z" fill="black"/>
<path d="M119.71 248.077C120.565 261.177 147.069 285.833 147.924 292C148.779 285.836 175.283 261.18 176.138 248.077C176.735 238.816 170.152 234.977 164.166 234.977C157.685 235.047 152.332 244.02 150.488 245.765C149.633 243.453 156.149 224.189 158.183 224.189H137.661C139.695 224.189 146.211 243.453 145.357 245.765C143.742 244.163 139.01 235.246 131.675 234.977C125.693 234.98 119.113 238.816 119.71 248.077Z" fill="black"/>
<path d="M176.189 168.51C175.334 155.411 148.83 130.754 147.975 124.587C147.121 130.751 120.616 155.407 119.762 168.51C119.165 177.771 125.748 181.61 131.734 181.61C138.215 181.541 143.568 172.567 145.411 170.822C146.266 173.134 139.75 192.398 137.716 192.398H158.238C156.204 192.398 149.688 173.134 150.543 170.822C152.157 172.425 156.89 181.342 164.224 181.61C170.207 181.607 176.786 177.771 176.189 168.51Z" fill="black"/>
</g>
<defs>
<clipPath id="clip0_3_912">
<rect width="222" height="324" fill="white"/>
</clipPath>
</defs>
</svg>
