<svg width="222" height="324" viewBox="0 0 222 324" fill="none" xmlns="http://www.w3.org/2000/svg">
<g clip-path="url(#clip0_3_953)">
<rect width="222" height="324" rx="10" fill="white"/>
<path d="M30.914 8.18945C31.3029 8.18945 31.4974 8.46029 31.4974 9.00195C31.4974 9.54362 31.3793 10.1131 31.1432 10.7103L19.4765 36.627H17.1432V36.1478C18.4627 33.2033 19.6224 30.6061 20.6224 28.3561C21.6224 26.1061 22.4974 24.1478 23.2474 22.4811C25.9974 16.3006 27.4765 12.9395 27.6849 12.3978C27.9071 11.8422 27.8307 11.5645 27.4557 11.5645H15.9974C15.7196 11.5645 15.4557 11.6756 15.2057 11.8978C14.9696 12.12 14.8099 12.3561 14.7265 12.6061L13.6015 15.8145C13.5321 16.0645 13.3793 16.1895 13.1432 16.1895C12.8793 16.1895 12.7474 16.0853 12.7474 15.877L13.9974 8.62695C14.1085 8.33529 14.2196 8.18945 14.3307 8.18945H30.914Z" fill="black"/>
<path d="M27.5879 58.3197C27.5879 58.3197 32.2924 54.556 32.2924 49.3384C32.2924 46.2839 29.5806 41.2129 23.3112 41.2129C17.0417 41.2129 14.3299 46.2859 14.3299 49.3384C14.3299 54.556 19.0345 58.3197 19.0345 58.3197C13.8089 54.249 4.49292 57.0281 4.49292 65.1636C4.49292 69.2362 7.82078 73.7169 13.0463 73.7169C19.3158 73.7169 22.0276 66.873 22.0276 66.873C22.0276 66.873 22.8239 74.6737 18.1787 78.8494H28.4436C23.7985 74.6757 24.5948 66.873 24.5948 66.873C24.5948 66.873 27.3066 73.7169 33.576 73.7169C38.8035 73.7169 42.1294 69.2342 42.1294 65.1636C42.1294 57.0281 32.8134 54.249 27.5879 58.3197Z" fill="black"/>
<path d="M191.985 314.497C191.596 314.497 191.402 314.226 191.402 313.685C191.402 313.143 191.52 312.573 191.756 311.976L203.423 286.06H205.756V286.539C204.437 289.483 203.277 292.08 202.277 294.33C201.277 296.58 200.402 298.539 199.652 300.205C196.902 306.386 195.423 309.747 195.214 310.289C194.992 310.844 195.069 311.122 195.444 311.122H206.902C207.18 311.122 207.444 311.011 207.694 310.789C207.93 310.567 208.089 310.33 208.173 310.08L209.298 306.872C209.367 306.622 209.52 306.497 209.756 306.497C210.02 306.497 210.152 306.601 210.152 306.81L208.902 314.06C208.791 314.351 208.68 314.497 208.569 314.497H191.985Z" fill="black"/>
<path d="M195.311 264.987C195.311 264.987 190.607 268.751 190.607 273.968C190.607 277.023 193.319 282.094 199.588 282.094C205.858 282.094 208.569 277.021 208.569 273.968C208.569 268.751 203.865 264.987 203.865 264.987C209.09 269.058 218.406 266.279 218.406 258.143C218.406 254.07 215.079 249.59 209.853 249.59C203.584 249.59 200.872 256.434 200.872 256.434C200.872 256.434 200.075 248.633 204.721 244.457H194.456C199.101 248.631 198.305 256.434 198.305 256.434C198.305 256.434 195.593 249.59 189.323 249.59C184.096 249.59 180.77 254.072 180.77 258.143C180.77 266.279 190.086 269.058 195.311 264.987Z" fill="black"/>
<path d="M83.1637 39.8666C83.1637 39.8666 91.1202 33.5014 91.1202 24.6772C91.1202 19.5113 86.5339 10.9351 75.9308 10.9351C65.3278 10.9351 60.7415 19.5147 60.7415 24.6772C60.7415 33.5014 68.698 39.8666 68.698 39.8666C59.8604 32.9821 44.1049 37.6823 44.1049 51.4412C44.1049 58.329 49.733 65.9069 58.5706 65.9069C69.1737 65.9069 73.76 54.3323 73.76 54.3323C73.76 54.3323 75.1067 67.525 67.2507 74.587H84.611C76.755 67.5284 78.1017 54.3323 78.1017 54.3323C78.1017 54.3323 82.688 65.9069 93.2911 65.9069C102.132 65.9069 107.757 58.3256 107.757 51.4412C107.757 37.6823 92.0013 32.9821 83.1637 39.8666Z" fill="black"/>
<path d="M68.7578 282.992C68.7578 282.992 60.8013 289.357 60.8013 298.181C60.8013 303.347 65.3876 311.924 75.9907 311.924C86.5937 311.924 91.18 303.344 91.18 298.181C91.18 289.357 83.2235 282.992 83.2235 282.992C92.0611 289.877 107.817 285.176 107.817 271.417C107.817 264.53 102.188 256.952 93.3509 256.952C82.7478 256.952 78.1615 268.526 78.1615 268.526C78.1615 268.526 76.8148 255.334 84.6708 248.272H67.3105C75.1665 255.33 73.8198 268.526 73.8198 268.526C73.8198 268.526 69.2335 256.952 58.6304 256.952C49.7895 256.952 44.1647 264.533 44.1647 271.417C44.1647 285.176 59.9202 289.877 68.7578 282.992Z" fill="black"/>
<path d="M83.1637 160.534C83.1637 160.534 91.1202 154.169 91.1202 145.345C91.1202 140.179 86.5339 131.603 75.9308 131.603C65.3278 131.603 60.7415 140.182 60.7415 145.345C60.7415 154.169 68.698 160.534 68.698 160.534C59.8604 153.65 44.1049 158.35 44.1049 172.109C44.1049 178.997 49.733 186.575 58.5706 186.575C69.1737 186.575 73.76 175 73.76 175C73.76 175 75.1067 188.193 67.2507 195.255H84.611C76.755 188.196 78.1017 175 78.1017 175C78.1017 175 82.688 186.575 93.2911 186.575C102.132 186.575 107.757 178.993 107.757 172.109C107.757 158.35 92.0013 153.65 83.1637 160.534Z" fill="black"/>
<path d="M153.544 39.6349C153.544 39.6349 161.5 33.2697 161.5 24.4455C161.5 19.2796 156.914 10.7034 146.311 10.7034C135.708 10.7034 131.122 19.283 131.122 24.4455C131.122 33.2697 139.078 39.6349 139.078 39.6349C130.241 32.7504 114.485 37.4506 114.485 51.2095C114.485 58.0973 120.113 65.6752 128.951 65.6752C139.554 65.6752 144.14 54.1006 144.14 54.1006C144.14 54.1006 145.487 67.2933 137.631 74.3553H154.991C147.135 67.2967 148.482 54.1006 148.482 54.1006C148.482 54.1006 153.068 65.6752 163.671 65.6752C172.512 65.6752 178.137 58.0939 178.137 51.2095C178.137 37.4506 162.381 32.7504 153.544 39.6349Z" fill="black"/>
<path d="M139.138 282.76C139.138 282.76 131.181 289.126 131.181 297.95C131.181 303.116 135.768 311.692 146.371 311.692C156.974 311.692 161.56 303.112 161.56 297.95C161.56 289.126 153.604 282.76 153.604 282.76C162.441 289.645 178.197 284.945 178.197 271.186C178.197 264.298 172.568 256.72 163.731 256.72C153.128 256.72 148.542 268.295 148.542 268.295C148.542 268.295 147.195 255.102 155.051 248.04H137.691C145.547 255.099 144.2 268.295 144.2 268.295C144.2 268.295 139.614 256.72 129.01 256.72C120.17 256.72 114.545 264.301 114.545 271.186C114.545 284.945 130.3 289.645 139.138 282.76Z" fill="black"/>
<path d="M153.544 160.303C153.544 160.303 161.5 153.937 161.5 145.113C161.5 139.947 156.914 131.371 146.311 131.371C135.708 131.371 131.122 139.951 131.122 145.113C131.122 153.937 139.078 160.303 139.078 160.303C130.241 153.418 114.485 158.118 114.485 171.877C114.485 178.765 120.113 186.343 128.951 186.343C139.554 186.343 144.14 174.768 144.14 174.768C144.14 174.768 145.487 187.961 137.631 195.023H154.991C147.135 187.964 148.482 174.768 148.482 174.768C148.482 174.768 153.068 186.343 163.671 186.343C172.512 186.343 178.137 178.762 178.137 171.877C178.137 158.118 162.381 153.418 153.544 160.303Z" fill="black"/>
<path d="M117.741 100.871C117.741 100.871 125.697 94.506 125.697 85.6818C125.697 80.516 121.111 71.9397 110.508 71.9397C99.9048 71.9397 95.3185 80.5193 95.3185 85.6818C95.3185 94.506 103.275 100.871 103.275 100.871C94.4374 93.9867 78.6819 98.6869 78.6819 112.446C78.6819 119.334 84.3101 126.912 93.1476 126.912C103.751 126.912 108.337 115.337 108.337 115.337C108.337 115.337 109.684 128.53 101.828 135.592H119.188C111.332 128.533 112.679 115.337 112.679 115.337C112.679 115.337 117.265 126.912 127.868 126.912C136.709 126.912 142.334 119.33 142.334 112.446C142.334 98.6869 126.578 93.9867 117.741 100.871Z" fill="black"/>
</g>
<defs>
<clipPath id="clip0_3_953">
<rect width="222" height="324" fill="white"/>
</clipPath>
</defs>
</svg>
