<svg width="222" height="324" viewBox="0 0 222 324" fill="none" xmlns="http://www.w3.org/2000/svg">
<g clip-path="url(#clip0_3_996)">
<rect width="222" height="324" rx="10" fill="white"/>
<path d="M30.2943 6.67603C30.6832 6.67603 30.8776 6.94686 30.8776 7.48853C30.8776 8.03019 30.7596 8.59964 30.5235 9.19686L18.8568 35.1135H16.5235V34.6344C17.8429 31.6899 19.0026 29.0927 20.0026 26.8427C21.0026 24.5927 21.8776 22.6344 22.6276 20.9677C25.3776 14.7871 26.8568 11.426 27.0651 10.8844C27.2873 10.3288 27.211 10.051 26.836 10.051H15.3776C15.0998 10.051 14.836 10.1621 14.586 10.3844C14.3498 10.6066 14.1901 10.8427 14.1068 11.0927L12.9818 14.301C12.9123 14.551 12.7596 14.676 12.5235 14.676C12.2596 14.676 12.1276 14.5719 12.1276 14.3635L13.3776 7.11353C13.4887 6.82186 13.5998 6.67603 13.711 6.67603H30.2943Z" fill="#DF0000"/>
<path d="M192.817 317.495C192.428 317.495 192.234 317.224 192.234 316.683C192.234 316.141 192.352 315.572 192.588 314.974L204.255 289.058H206.588V289.537C205.269 292.481 204.109 295.078 203.109 297.328C202.109 299.578 201.234 301.537 200.484 303.203C197.734 309.384 196.255 312.745 196.046 313.287C195.824 313.842 195.901 314.12 196.276 314.12H207.734C208.012 314.12 208.276 314.009 208.526 313.787C208.762 313.565 208.921 313.328 209.005 313.078L210.13 309.87C210.199 309.62 210.352 309.495 210.588 309.495C210.852 309.495 210.984 309.599 210.984 309.808L209.734 317.058C209.623 317.349 209.512 317.495 209.401 317.495H192.817Z" fill="#DF0000"/>
<path d="M29.0109 49.6765C24.8421 44.0367 22.6242 38.3049 22.6242 38.3049C22.6242 38.3049 20.4062 44.0367 16.2374 49.6765C12.0666 55.3143 6.87048 58.9816 6.87048 58.9816C6.87048 58.9816 12.0666 62.647 16.2374 68.2887C20.4062 73.9266 22.6242 79.6583 22.6242 79.6583C22.6242 79.6583 24.8421 73.9266 29.0109 68.2887C33.1817 62.647 38.3778 58.9816 38.3778 58.9816C38.3778 58.9816 33.1817 55.3143 29.0109 49.6765Z" fill="#DF0000"/>
<path d="M207.215 255.366C203.046 249.726 200.828 243.995 200.828 243.995C200.828 243.995 198.61 249.726 194.441 255.366C190.27 261.004 185.074 264.671 185.074 264.671C185.074 264.671 190.27 268.337 194.441 273.978C198.61 279.616 200.828 285.348 200.828 285.348C200.828 285.348 203.046 279.616 207.215 273.978C211.385 268.337 216.582 264.671 216.582 264.671C216.582 264.671 211.385 261.004 207.215 255.366Z" fill="#DF0000"/>
<path d="M160.164 241.855C152.859 231.971 148.972 221.927 148.972 221.927C148.972 221.927 145.085 231.971 137.779 241.855C130.469 251.736 121.363 258.163 121.363 258.163C121.363 258.163 130.469 264.586 137.779 274.473C145.085 284.354 148.972 294.399 148.972 294.399C148.972 294.399 152.859 284.354 160.164 274.473C167.474 264.586 176.58 258.163 176.58 258.163C176.58 258.163 167.474 251.736 160.164 241.855Z" fill="#DF0000"/>
<path d="M160.164 49.3186C152.859 39.4348 148.972 29.3899 148.972 29.3899C148.972 29.3899 145.085 39.4348 137.779 49.3186C130.469 59.199 121.363 65.626 121.363 65.626C121.363 65.626 130.469 72.0495 137.779 81.9368C145.085 91.8172 148.972 101.862 148.972 101.862C148.972 101.862 152.859 91.8172 160.164 81.9368C167.474 72.0495 176.58 65.626 176.58 65.626C176.58 65.626 167.474 59.199 160.164 49.3186Z" fill="#DF0000"/>
<path d="M160.164 144.386C152.859 134.503 148.972 124.458 148.972 124.458C148.972 124.458 145.085 134.503 137.779 144.386C130.469 154.267 121.363 160.694 121.363 160.694C121.363 160.694 130.469 167.117 137.779 177.005C145.085 186.885 148.972 196.93 148.972 196.93C148.972 196.93 152.859 186.885 160.164 177.005C167.474 167.117 176.58 160.694 176.58 160.694C176.58 160.694 167.474 154.267 160.164 144.386Z" fill="#DF0000"/>
<path d="M83.7441 242.013C76.4382 232.129 72.5512 222.084 72.5512 222.084C72.5512 222.084 68.6642 232.129 61.3583 242.013C54.049 251.893 44.9427 258.32 44.9427 258.32C44.9427 258.32 54.049 264.744 61.3583 274.631C68.6642 284.511 72.5512 294.556 72.5512 294.556C72.5512 294.556 76.4382 284.511 83.7441 274.631C91.0534 264.744 100.16 258.32 100.16 258.32C100.16 258.32 91.0534 251.893 83.7441 242.013Z" fill="#DF0000"/>
<path d="M83.7441 49.4761C76.4382 39.5923 72.5512 29.5474 72.5512 29.5474C72.5512 29.5474 68.6642 39.5923 61.3583 49.4761C54.049 59.3564 44.9427 65.7834 44.9427 65.7834C44.9427 65.7834 54.049 72.207 61.3583 82.0943C68.6642 91.9746 72.5512 102.02 72.5512 102.02C72.5512 102.02 76.4382 91.9746 83.7441 82.0943C91.0534 72.207 100.16 65.7834 100.16 65.7834C100.16 65.7834 91.0534 59.3564 83.7441 49.4761Z" fill="#DF0000"/>
<path d="M83.7441 144.544C76.4382 134.66 72.5512 124.615 72.5512 124.615C72.5512 124.615 68.6642 134.66 61.3583 144.544C54.049 154.424 44.9427 160.851 44.9427 160.851C44.9427 160.851 54.049 167.275 61.3583 177.162C68.6642 187.042 72.5512 197.087 72.5512 197.087C72.5512 197.087 76.4382 187.042 83.7441 177.162C91.0534 167.275 100.16 160.851 100.16 160.851C100.16 160.851 91.0534 154.424 83.7441 144.544Z" fill="#DF0000"/>
<path d="M122.144 97.7429C114.838 87.8591 110.951 77.8142 110.951 77.8142C110.951 77.8142 107.064 87.8591 99.7583 97.7429C92.449 107.623 83.3428 114.05 83.3428 114.05C83.3428 114.05 92.449 120.474 99.7583 130.361C107.064 140.241 110.951 150.286 110.951 150.286C110.951 150.286 114.838 140.241 122.144 130.361C129.453 120.474 138.56 114.05 138.56 114.05C138.56 114.05 129.453 107.623 122.144 97.7429Z" fill="#DF0000"/>
</g>
<defs>
<clipPath id="clip0_3_996">
<rect width="222" height="324" fill="white"/>
</clipPath>
</defs>
</svg>
