<svg width="222" height="324" viewBox="0 0 222 324" fill="none" xmlns="http://www.w3.org/2000/svg">
<g clip-path="url(#clip0_3_1041)">
<rect width="222" height="324" rx="10" fill="white"/>
<path d="M31.5339 8.80933C31.9228 8.80933 32.1173 9.08016 32.1173 9.62183C32.1173 10.1635 31.9992 10.7329 31.7631 11.3302L20.0964 37.2468H17.7631V36.7677C19.0825 33.8232 20.2422 31.226 21.2422 28.976C22.2422 26.726 23.1172 24.7677 23.8672 23.101C26.6172 16.9204 28.0964 13.5593 28.3047 13.0177C28.527 12.4621 28.4506 12.1843 28.0756 12.1843H16.6172C16.3395 12.1843 16.0756 12.2954 15.8256 12.5177C15.5895 12.7399 15.4297 12.976 15.3464 13.226L14.2214 16.4343C14.152 16.6843 13.9992 16.8093 13.7631 16.8093C13.4992 16.8093 13.3672 16.7052 13.3672 16.4968L14.6172 9.24683C14.7284 8.95516 14.8395 8.80933 14.9506 8.80933H31.5339Z" fill="#DF0000"/>
<path d="M31.1097 43.0432C23.87 43.0432 22.9033 50.3078 22.9033 50.3078C22.9033 50.3078 21.9367 43.0432 14.697 43.0432C9.62944 43.0432 5.04407 46.3005 5.04407 52.4452C5.04407 60.5643 19.7314 68.729 22.9033 80.651C25.9216 68.739 40.7626 60.5643 40.7626 52.4452C40.7626 46.3005 36.1773 43.0432 31.1097 43.0432Z" fill="#DF0000"/>
<path d="M191.924 313.229C191.535 313.229 191.34 312.958 191.34 312.416C191.34 311.874 191.458 311.305 191.694 310.708L203.361 284.791H205.694V285.27C204.375 288.215 203.215 290.812 202.215 293.062C201.215 295.312 200.34 297.27 199.59 298.937C196.84 305.117 195.361 308.479 195.153 309.02C194.93 309.576 195.007 309.854 195.382 309.854H206.84C207.118 309.854 207.382 309.742 207.632 309.52C207.868 309.298 208.028 309.062 208.111 308.812L209.236 305.604C209.305 305.354 209.458 305.229 209.694 305.229C209.958 305.229 210.09 305.333 210.09 305.541L208.84 312.791C208.729 313.083 208.618 313.229 208.507 313.229H191.924Z" fill="#DF0000"/>
<path d="M192.002 278.995C199.241 278.995 200.208 271.73 200.208 271.73C200.208 271.73 201.175 278.995 208.414 278.995C213.482 278.995 218.067 275.737 218.067 269.593C218.067 261.474 203.38 253.309 200.208 241.387C197.19 253.299 182.349 261.474 182.349 269.593C182.349 275.737 186.934 278.995 192.002 278.995Z" fill="#DF0000"/>
<path d="M86.3039 10.9277C74.2875 10.9277 72.683 22.9854 72.683 22.9854C72.683 22.9854 71.0786 10.9277 59.0622 10.9277C50.6511 10.9277 43.0403 16.3341 43.0403 26.5331C43.0403 40.0091 67.4183 53.5608 72.683 73.349C77.6927 53.5774 102.326 40.0091 102.326 26.5331C102.326 16.3341 94.715 10.9277 86.3039 10.9277Z" fill="#DF0000"/>
<path d="M59.0622 308.552C71.0786 308.552 72.6831 296.495 72.6831 296.495C72.6831 296.495 74.2875 308.552 86.3039 308.552C94.715 308.552 102.326 303.146 102.326 292.947C102.326 279.471 77.9478 265.919 72.6831 246.131C67.6734 265.903 43.0403 279.471 43.0403 292.947C43.0403 303.146 50.6511 308.552 59.0622 308.552Z" fill="#DF0000"/>
<path d="M86.3039 135.862C74.2875 135.862 72.683 147.92 72.683 147.92C72.683 147.92 71.0786 135.862 59.0622 135.862C50.6511 135.862 43.0403 141.268 43.0403 151.467C43.0403 164.943 67.4183 178.495 72.683 198.283C77.6927 178.512 102.326 164.943 102.326 151.467C102.326 141.268 94.715 135.862 86.3039 135.862Z" fill="#DF0000"/>
<path d="M163.288 10.4863C151.272 10.4863 149.667 22.544 149.667 22.544C149.667 22.544 148.063 10.4863 136.046 10.4863C127.635 10.4863 120.024 15.8927 120.024 26.0917C120.024 39.5677 144.402 53.1194 149.667 72.9076C154.677 53.136 179.31 39.5677 179.31 26.0917C179.31 15.8927 171.699 10.4863 163.288 10.4863Z" fill="#DF0000"/>
<path d="M136.046 310.244C148.063 310.244 149.667 298.186 149.667 298.186C149.667 298.186 151.272 310.244 163.288 310.244C171.699 310.244 179.31 304.838 179.31 294.639C179.31 281.163 154.932 267.611 149.667 247.823C144.658 267.594 120.024 281.163 120.024 294.639C120.024 304.838 127.635 310.244 136.046 310.244Z" fill="#DF0000"/>
<path d="M163.288 135.421C151.272 135.421 149.667 147.479 149.667 147.479C149.667 147.479 148.063 135.421 136.046 135.421C127.635 135.421 120.024 140.827 120.024 151.026C120.024 164.502 144.402 178.054 149.667 197.842C154.677 178.071 179.31 164.502 179.31 151.026C179.31 140.827 171.699 135.421 163.288 135.421Z" fill="#DF0000"/>
<path d="M125.192 71.0627C113.175 71.0627 111.571 83.1205 111.571 83.1205C111.571 83.1205 109.967 71.0627 97.9501 71.0627C89.539 71.0627 81.9282 76.4691 81.9282 86.6681C81.9282 100.144 106.306 113.696 111.571 133.484C116.581 113.712 141.214 100.144 141.214 86.6681C141.214 76.4691 133.603 71.0627 125.192 71.0627Z" fill="#DF0000"/>
</g>
<defs>
<clipPath id="clip0_3_1041">
<rect width="222" height="324" fill="white"/>
</clipPath>
</defs>
</svg>
