<svg width="222" height="324" viewBox="0 0 222 324" fill="none" xmlns="http://www.w3.org/2000/svg">
<g clip-path="url(#clip0_3_1086)">
<rect width="222" height="324" rx="10" fill="white"/>
<path d="M31.2289 8.80933C31.6178 8.80933 31.8123 9.08016 31.8123 9.62183C31.8123 10.1635 31.6942 10.7329 31.4581 11.3302L19.7914 37.2468H17.4581V36.7677C18.7775 33.8232 19.9373 31.226 20.9373 28.976C21.9373 26.726 22.8123 24.7677 23.5623 23.101C26.3123 16.9204 27.7914 13.5593 27.9998 13.0177C28.222 12.4621 28.1456 12.1843 27.7706 12.1843H16.3123C16.0345 12.1843 15.7706 12.2954 15.5206 12.5177C15.2845 12.7399 15.1248 12.976 15.0414 13.226L13.9164 16.4343C13.847 16.6843 13.6942 16.8093 13.4581 16.8093C13.1942 16.8093 13.0623 16.7052 13.0623 16.4968L14.3123 9.24683C14.4234 8.95516 14.5345 8.80933 14.6456 8.80933H31.2289Z" fill="black"/>
<path d="M38.6417 65.7946C38.1549 58.3334 23.0589 44.29 22.5722 40.7773C22.0854 44.2882 6.98938 58.3316 6.5026 65.7946C6.16267 71.0692 9.91203 73.2559 13.3214 73.2559C17.0128 73.2162 20.0616 68.1051 21.1118 67.1114C21.5986 68.4282 17.8875 79.4003 16.7289 79.4003H28.4175C27.2589 79.4003 23.5477 68.4282 24.0345 67.1114C24.954 68.0242 27.6493 73.1029 31.8269 73.2559C35.2343 73.254 38.9816 71.0692 38.6417 65.7946Z" fill="black"/>
<path d="M101.028 69.4408C100.174 56.341 73.6691 31.6846 72.8145 25.5173C71.9599 31.6814 45.4554 56.3377 44.6008 69.4408C44.0039 78.7015 50.5868 82.5407 56.5728 82.5407C63.0538 82.471 68.4066 73.4974 70.2506 71.7528C71.1052 74.0647 64.5895 93.3287 62.5553 93.3287H83.0773C81.0431 93.3287 74.5273 74.0647 75.382 71.7528C76.9964 73.3553 81.7286 82.2722 89.0633 82.5407C95.0457 82.5375 101.625 78.7015 101.028 69.4408Z" fill="black"/>
<path d="M192.137 315.374C191.748 315.374 191.554 315.103 191.554 314.561C191.554 314.02 191.672 313.45 191.908 312.853L203.575 286.936H205.908V287.415C204.588 290.36 203.429 292.957 202.429 295.207C201.429 297.457 200.554 299.415 199.804 301.082C197.054 307.263 195.575 310.624 195.366 311.165C195.144 311.721 195.22 311.999 195.595 311.999H207.054C207.331 311.999 207.595 311.888 207.845 311.665C208.081 311.443 208.241 311.207 208.325 310.957L209.45 307.749C209.519 307.499 209.672 307.374 209.908 307.374C210.172 307.374 210.304 307.478 210.304 307.686L209.054 314.936C208.943 315.228 208.831 315.374 208.72 315.374H192.137Z" fill="black"/>
<path d="M184.231 258.352C184.717 265.813 199.813 279.857 200.3 283.369C200.787 279.859 215.883 265.815 216.37 258.352C216.71 253.078 212.96 250.891 209.551 250.891C205.859 250.931 202.811 256.042 201.76 257.035C201.274 255.719 204.985 244.746 206.143 244.746H194.455C195.613 244.746 199.325 255.719 198.838 257.035C197.918 256.123 195.223 251.044 191.045 250.891C187.638 250.893 183.891 253.078 184.231 258.352Z" fill="black"/>
<path d="M44.6611 254.742C45.5157 267.842 72.0202 292.498 72.8748 298.666C73.7295 292.502 100.234 267.845 101.089 254.742C101.685 245.482 95.1025 241.642 89.1165 241.642C82.6355 241.712 77.2827 250.686 75.4387 252.43C74.5841 250.118 81.0999 230.854 83.134 230.854H62.6121C64.6463 230.854 71.162 250.118 70.3074 252.43C68.6929 250.828 63.9607 241.911 56.6261 241.642C50.6436 241.646 44.0643 245.482 44.6611 254.742Z" fill="black"/>
<path d="M101.14 168.776C100.285 155.676 73.781 131.02 72.9263 124.852C72.0717 131.016 45.5672 155.673 44.7126 168.776C44.1158 178.036 50.6986 181.876 56.6846 181.876C63.1657 181.806 68.5185 172.832 70.3624 171.088C71.217 173.4 64.7013 192.664 62.6671 192.664H83.1891C81.1549 192.664 74.6391 173.4 75.4938 171.088C77.1082 172.69 81.8405 181.607 89.1751 181.876C95.1576 181.872 101.737 178.036 101.14 168.776Z" fill="black"/>
<path d="M178.211 69.1752C177.356 56.0753 150.852 31.419 149.997 25.2517C149.142 31.4158 122.638 56.0721 121.783 69.1752C121.187 78.4359 127.769 82.2751 133.755 82.2751C140.236 82.2054 145.589 73.2318 147.433 71.4871C148.288 73.7991 141.772 93.063 139.738 93.063H160.26C158.226 93.063 151.71 73.7991 152.565 71.4871C154.179 73.0897 158.911 82.0065 166.246 82.2751C172.228 82.2719 178.808 78.4359 178.211 69.1752Z" fill="black"/>
<path d="M121.844 254.477C122.698 267.577 149.203 292.233 150.057 298.4C150.912 292.236 177.417 267.58 178.271 254.477C178.868 245.216 172.285 241.377 166.299 241.377C159.818 241.447 154.465 250.42 152.621 252.165C151.767 249.853 158.282 230.589 160.317 230.589H139.795C141.829 230.589 148.345 249.853 147.49 252.165C145.876 250.562 141.143 241.646 133.809 241.377C127.826 241.38 121.247 245.216 121.844 254.477Z" fill="black"/>
<path d="M178.323 168.51C177.468 155.411 150.963 130.754 150.109 124.587C149.254 130.751 122.75 155.407 121.895 168.51C121.298 177.771 127.881 181.61 133.867 181.61C140.348 181.541 145.701 172.567 147.545 170.822C148.4 173.134 141.884 192.398 139.85 192.398H160.372C158.337 192.398 151.822 173.134 152.676 170.822C154.291 172.425 159.023 181.342 166.358 181.61C172.34 181.607 178.919 177.771 178.323 168.51Z" fill="black"/>
<path d="M139.54 121.937C138.685 108.837 112.181 84.1805 111.326 78.0132C110.472 84.1773 83.9671 108.834 83.1125 121.937C82.5157 131.197 89.0985 135.037 95.0845 135.037C101.566 134.967 106.918 125.993 108.762 124.249C109.617 126.561 103.101 145.825 101.067 145.825H121.589C119.555 145.825 113.039 126.561 113.894 124.249C115.508 125.851 120.24 134.768 127.575 135.037C133.557 135.033 140.137 131.197 139.54 121.937Z" fill="black"/>
</g>
<defs>
<clipPath id="clip0_3_1086">
<rect width="222" height="324" fill="white"/>
</clipPath>
</defs>
</svg>
