<svg width="222" height="324" viewBox="0 0 222 324" fill="none" xmlns="http://www.w3.org/2000/svg">
<g clip-path="url(#clip0_3_1131)">
<rect width="222" height="324" rx="10" fill="white"/>
<path d="M14.4558 29.7312C14.4558 27.2312 15.4003 25.2589 17.2891 23.8145C17.2891 23.8145 17.7614 23.4673 18.7058 22.7728C19.303 22.3145 19.6016 22.0228 19.6016 21.8978C19.6016 21.7589 19.2405 21.3492 18.5183 20.6687C17.7961 19.9742 17.0669 19.0784 16.3308 17.9812C15.5947 16.8839 15.2266 15.7173 15.2266 14.4812C15.2266 12.245 15.8447 10.4951 17.0808 9.23116C18.3308 7.96727 19.935 7.33533 21.8933 7.33533C23.8516 7.33533 25.5114 7.94644 26.8725 9.16866C28.2475 10.377 28.935 11.8909 28.935 13.7103C28.935 14.9464 28.5878 16.12 27.8933 17.2312C27.4628 17.8701 26.8725 18.4742 26.1225 19.0437C25.3864 19.6131 24.8655 20.0089 24.56 20.2312C24.2683 20.4395 24.1225 20.5853 24.1225 20.6687C24.1225 20.7381 24.3447 20.9464 24.7891 21.2937C26.2614 22.4742 27.3308 23.5298 27.9975 24.4603C29.0114 25.8492 29.5183 27.502 29.5183 29.4187C29.5183 31.3214 28.803 32.9951 27.3725 34.4395C25.9558 35.8839 24.2336 36.6062 22.2058 36.6062C20.178 36.6062 18.3794 35.9603 16.81 34.6687C15.2405 33.3631 14.4558 31.7173 14.4558 29.7312ZM17.1016 29.7937C17.1016 31.4187 17.5878 32.8075 18.56 33.9603C19.5322 35.1131 20.678 35.6895 21.9975 35.6895C23.3308 35.6895 24.4558 35.1964 25.3725 34.2103C26.303 33.2103 26.7683 31.7659 26.7683 29.877C26.7683 28.6548 25.9558 27.2312 24.3308 25.6062C24.178 25.4534 23.9489 25.2103 23.6433 24.877C23.3378 24.5437 22.8586 24.0784 22.2058 23.4812C21.5669 22.8839 21.06 22.5853 20.685 22.5853C20.31 22.5853 20.0183 22.7034 19.81 22.9395C19.6155 23.1756 19.4419 23.377 19.2891 23.5437C17.8308 25.1131 17.1016 27.1131 17.1016 29.5437V29.7937ZM19.2475 16.377C19.8725 17.127 20.9628 18.1548 22.5183 19.4603C22.7405 19.6548 22.9905 19.752 23.2683 19.752C23.5461 19.752 23.7405 19.7173 23.8516 19.6478C23.9766 19.5784 24.2475 19.3353 24.6641 18.9187C25.0947 18.4881 25.5114 17.7589 25.9141 16.7312C26.3169 15.7034 26.5183 14.7728 26.5183 13.9395C26.5183 12.2728 26.1225 10.9048 25.3308 9.83533C24.553 8.75199 23.4905 8.21033 22.1433 8.21033C20.81 8.21033 19.7405 8.63394 18.935 9.48116C18.1433 10.3284 17.7475 11.3839 17.7475 12.6478C17.7475 13.8978 18.2475 15.1409 19.2475 16.377Z" fill="black"/>
<path d="M27.5879 58.3197C27.5879 58.3197 32.2924 54.556 32.2924 49.3384C32.2924 46.2839 29.5806 41.2129 23.3112 41.2129C17.0417 41.2129 14.3299 46.2859 14.3299 49.3384C14.3299 54.556 19.0345 58.3197 19.0345 58.3197C13.8089 54.249 4.49292 57.0281 4.49292 65.1636C4.49292 69.2362 7.82078 73.7169 13.0463 73.7169C19.3158 73.7169 22.0276 66.873 22.0276 66.873C22.0276 66.873 22.8239 74.6737 18.1787 78.8494H28.4436C23.7985 74.6757 24.5948 66.873 24.5948 66.873C24.5948 66.873 27.3066 73.7169 33.576 73.7169C38.8035 73.7169 42.1294 69.2342 42.1294 65.1636C42.1294 57.0281 32.8134 54.249 27.5879 58.3197Z" fill="black"/>
<path d="M208.444 292.955C208.444 295.455 207.499 297.428 205.61 298.872C205.61 298.872 205.138 299.219 204.194 299.914C203.596 300.372 203.298 300.664 203.298 300.789C203.298 300.928 203.659 301.337 204.381 302.018C205.103 302.712 205.832 303.608 206.569 304.705C207.305 305.803 207.673 306.969 207.673 308.205C207.673 310.441 207.055 312.191 205.819 313.455C204.569 314.719 202.964 315.351 201.006 315.351C199.048 315.351 197.388 314.74 196.027 313.518C194.652 312.31 193.964 310.796 193.964 308.976C193.964 307.74 194.312 306.566 195.006 305.455C195.437 304.816 196.027 304.212 196.777 303.643C197.513 303.073 198.034 302.678 198.339 302.455C198.631 302.247 198.777 302.101 198.777 302.018C198.777 301.948 198.555 301.74 198.11 301.393C196.638 300.212 195.569 299.157 194.902 298.226C193.888 296.837 193.381 295.185 193.381 293.268C193.381 291.365 194.096 289.691 195.527 288.247C196.944 286.803 198.666 286.08 200.694 286.08C202.721 286.08 204.52 286.726 206.089 288.018C207.659 289.323 208.444 290.969 208.444 292.955ZM205.798 292.893C205.798 291.268 205.312 289.879 204.339 288.726C203.367 287.573 202.221 286.997 200.902 286.997C199.569 286.997 198.444 287.49 197.527 288.476C196.596 289.476 196.131 290.921 196.131 292.81C196.131 294.032 196.944 295.455 198.569 297.08C198.721 297.233 198.951 297.476 199.256 297.81C199.562 298.143 200.041 298.608 200.694 299.205C201.332 299.803 201.839 300.101 202.214 300.101C202.589 300.101 202.881 299.983 203.089 299.747C203.284 299.511 203.457 299.31 203.61 299.143C205.069 297.573 205.798 295.573 205.798 293.143V292.893ZM203.652 306.31C203.027 305.56 201.937 304.532 200.381 303.226C200.159 303.032 199.909 302.935 199.631 302.935C199.353 302.935 199.159 302.969 199.048 303.039C198.923 303.108 198.652 303.351 198.235 303.768C197.805 304.198 197.388 304.928 196.985 305.955C196.582 306.983 196.381 307.914 196.381 308.747C196.381 310.414 196.777 311.782 197.569 312.851C198.346 313.935 199.409 314.476 200.756 314.476C202.089 314.476 203.159 314.053 203.964 313.205C204.756 312.358 205.152 311.303 205.152 310.039C205.152 308.789 204.652 307.546 203.652 306.31Z" fill="black"/>
<path d="M195.312 264.987C195.312 264.987 190.607 268.751 190.607 273.968C190.607 277.023 193.319 282.094 199.588 282.094C205.858 282.094 208.57 277.021 208.57 273.968C208.57 268.751 203.865 264.987 203.865 264.987C209.09 269.058 218.406 266.279 218.406 258.143C218.406 254.07 215.079 249.59 209.853 249.59C203.584 249.59 200.872 256.434 200.872 256.434C200.872 256.434 200.076 248.633 204.721 244.457H194.456C199.101 248.631 198.305 256.434 198.305 256.434C198.305 256.434 195.593 249.59 189.323 249.59C184.096 249.59 180.77 254.072 180.77 258.143C180.77 266.279 190.086 269.058 195.312 264.987Z" fill="black"/>
<path d="M83.1638 39.8666C83.1638 39.8666 91.1203 33.5014 91.1203 24.6772C91.1203 19.5113 86.534 10.9351 75.931 10.9351C65.3279 10.9351 60.7416 19.5147 60.7416 24.6772C60.7416 33.5014 68.6981 39.8666 68.6981 39.8666C59.8605 32.9821 44.105 37.6823 44.105 51.4412C44.105 58.329 49.7332 65.9069 58.5707 65.9069C69.1738 65.9069 73.7601 54.3323 73.7601 54.3323C73.7601 54.3323 75.1068 67.525 67.2508 74.587H84.6111C76.7551 67.5284 78.1018 54.3323 78.1018 54.3323C78.1018 54.3323 82.6881 65.9069 93.2912 65.9069C102.132 65.9069 107.757 58.3256 107.757 51.4412C107.757 37.6823 92.0014 32.9821 83.1638 39.8666Z" fill="black"/>
<path d="M68.7578 282.992C68.7578 282.992 60.8013 289.357 60.8013 298.181C60.8013 303.347 65.3876 311.924 75.9907 311.924C86.5937 311.924 91.18 303.344 91.18 298.181C91.18 289.357 83.2235 282.992 83.2235 282.992C92.0611 289.877 107.817 285.176 107.817 271.417C107.817 264.53 102.188 256.952 93.3509 256.952C82.7478 256.952 78.1615 268.526 78.1615 268.526C78.1615 268.526 76.8148 255.334 84.6708 248.272H67.3105C75.1665 255.33 73.8198 268.526 73.8198 268.526C73.8198 268.526 69.2335 256.952 58.6304 256.952C49.7895 256.952 44.1647 264.533 44.1647 271.417C44.1647 285.176 59.9202 289.877 68.7578 282.992Z" fill="black"/>
<path d="M83.1638 160.534C83.1638 160.534 91.1203 154.169 91.1203 145.345C91.1203 140.179 86.534 131.603 75.931 131.603C65.3279 131.603 60.7416 140.182 60.7416 145.345C60.7416 154.169 68.6981 160.534 68.6981 160.534C59.8605 153.65 44.105 158.35 44.105 172.109C44.105 178.997 49.7332 186.575 58.5707 186.575C69.1738 186.575 73.7601 175 73.7601 175C73.7601 175 75.1068 188.193 67.2508 195.255H84.6111C76.7551 188.196 78.1018 175 78.1018 175C78.1018 175 82.6881 186.575 93.2912 186.575C102.132 186.575 107.757 178.993 107.757 172.109C107.757 158.35 92.0014 153.65 83.1638 160.534Z" fill="black"/>
<path d="M153.544 39.6349C153.544 39.6349 161.5 33.2697 161.5 24.4455C161.5 19.2796 156.914 10.7034 146.311 10.7034C135.708 10.7034 131.122 19.283 131.122 24.4455C131.122 33.2697 139.078 39.6349 139.078 39.6349C130.241 32.7504 114.485 37.4506 114.485 51.2095C114.485 58.0973 120.113 65.6752 128.951 65.6752C139.554 65.6752 144.14 54.1006 144.14 54.1006C144.14 54.1006 145.487 67.2933 137.631 74.3553H154.991C147.135 67.2967 148.482 54.1006 148.482 54.1006C148.482 54.1006 153.068 65.6752 163.671 65.6752C172.512 65.6752 178.137 58.0939 178.137 51.2095C178.137 37.4506 162.381 32.7504 153.544 39.6349Z" fill="black"/>
<path d="M139.138 282.76C139.138 282.76 131.181 289.126 131.181 297.95C131.181 303.116 135.768 311.692 146.371 311.692C156.974 311.692 161.56 303.112 161.56 297.95C161.56 289.126 153.604 282.76 153.604 282.76C162.441 289.645 178.197 284.945 178.197 271.186C178.197 264.298 172.569 256.72 163.731 256.72C153.128 256.72 148.542 268.295 148.542 268.295C148.542 268.295 147.195 255.102 155.051 248.04H137.691C145.547 255.099 144.2 268.295 144.2 268.295C144.2 268.295 139.614 256.72 129.011 256.72C120.17 256.72 114.545 264.301 114.545 271.186C114.545 284.945 130.3 289.645 139.138 282.76Z" fill="black"/>
<path d="M153.544 160.303C153.544 160.303 161.5 153.937 161.5 145.113C161.5 139.947 156.914 131.371 146.311 131.371C135.708 131.371 131.122 139.951 131.122 145.113C131.122 153.937 139.078 160.303 139.078 160.303C130.241 153.418 114.485 158.118 114.485 171.877C114.485 178.765 120.113 186.343 128.951 186.343C139.554 186.343 144.14 174.768 144.14 174.768C144.14 174.768 145.487 187.961 137.631 195.023H154.991C147.135 187.964 148.482 174.768 148.482 174.768C148.482 174.768 153.068 186.343 163.671 186.343C172.512 186.343 178.137 178.762 178.137 171.877C178.137 158.118 162.381 153.418 153.544 160.303Z" fill="black"/>
<path d="M117.741 100.871C117.741 100.871 125.697 94.506 125.697 85.6818C125.697 80.516 121.111 71.9397 110.508 71.9397C99.9048 71.9397 95.3185 80.5193 95.3185 85.6818C95.3185 94.506 103.275 100.871 103.275 100.871C94.4374 93.9867 78.6819 98.6869 78.6819 112.446C78.6819 119.334 84.3101 126.912 93.1476 126.912C103.751 126.912 108.337 115.337 108.337 115.337C108.337 115.337 109.684 128.53 101.828 135.592H119.188C111.332 128.533 112.679 115.337 112.679 115.337C112.679 115.337 117.265 126.912 127.868 126.912C136.709 126.912 142.334 119.33 142.334 112.446C142.334 98.6869 126.578 93.9867 117.741 100.871Z" fill="black"/>
<path d="M104.093 226.081C104.093 226.081 96.137 232.447 96.137 241.271C96.137 246.437 100.723 255.013 111.326 255.013C121.929 255.013 126.516 246.433 126.516 241.271C126.516 232.447 118.559 226.081 118.559 226.081C127.397 232.966 143.152 228.266 143.152 214.507C143.152 207.619 137.524 200.041 128.687 200.041C118.084 200.041 113.497 211.616 113.497 211.616C113.497 211.616 112.15 198.423 120.006 191.361H102.646C110.502 198.42 109.155 211.616 109.155 211.616C109.155 211.616 104.569 200.041 93.9661 200.041C85.1252 200.041 79.5004 207.622 79.5004 214.507C79.5004 228.266 95.2559 232.966 104.093 226.081Z" fill="black"/>
</g>
<defs>
<clipPath id="clip0_3_1131">
<rect width="222" height="324" fill="white"/>
</clipPath>
</defs>
</svg>
