<svg width="222" height="324" viewBox="0 0 222 324" fill="none" xmlns="http://www.w3.org/2000/svg">
<g clip-path="url(#clip0_3_1178)">
<rect width="222" height="324" rx="10" fill="white"/>
<path d="M13.8359 28.2177C13.8359 25.7177 14.7804 23.7455 16.6693 22.3011C16.6693 22.3011 17.1415 21.9538 18.0859 21.2594C18.6832 20.8011 18.9818 20.5094 18.9818 20.3844C18.9818 20.2455 18.6207 19.8358 17.8984 19.1552C17.1762 18.4608 16.447 17.565 15.7109 16.4677C14.9748 15.3705 14.6068 14.2038 14.6068 12.9677C14.6068 10.7316 15.2248 8.98162 16.4609 7.71773C17.7109 6.45384 19.3151 5.8219 21.2734 5.8219C23.2318 5.8219 24.8915 6.43301 26.2526 7.65523C27.6276 8.86357 28.3151 10.3775 28.3151 12.1969C28.3151 13.433 27.9679 14.6066 27.2734 15.7177C26.8429 16.3566 26.2526 16.9608 25.5026 17.5302C24.7665 18.0997 24.2457 18.4955 23.9401 18.7177C23.6484 18.9261 23.5026 19.0719 23.5026 19.1552C23.5026 19.2247 23.7248 19.433 24.1693 19.7802C25.6415 20.9608 26.7109 22.0163 27.3776 22.9469C28.3915 24.3358 28.8984 25.9886 28.8984 27.9052C28.8984 29.808 28.1832 31.4816 26.7526 32.9261C25.3359 34.3705 23.6137 35.0927 21.5859 35.0927C19.5582 35.0927 17.7595 34.4469 16.1901 33.1552C14.6207 31.8497 13.8359 30.2038 13.8359 28.2177ZM16.4818 28.2802C16.4818 29.9052 16.9679 31.2941 17.9401 32.4469C18.9123 33.5997 20.0582 34.1761 21.3776 34.1761C22.7109 34.1761 23.8359 33.683 24.7526 32.6969C25.6832 31.6969 26.1484 30.2525 26.1484 28.3636C26.1484 27.1413 25.3359 25.7177 23.7109 24.0927C23.5582 23.94 23.329 23.6969 23.0234 23.3636C22.7179 23.0302 22.2387 22.565 21.5859 21.9677C20.947 21.3705 20.4401 21.0719 20.0651 21.0719C19.6901 21.0719 19.3984 21.19 19.1901 21.4261C18.9957 21.6622 18.822 21.8636 18.6693 22.0302C17.2109 23.5997 16.4818 25.5997 16.4818 28.0302V28.2802ZM18.6276 14.8636C19.2526 15.6136 20.3429 16.6413 21.8984 17.9469C22.1207 18.1413 22.3707 18.2386 22.6484 18.2386C22.9262 18.2386 23.1207 18.2038 23.2318 18.1344C23.3568 18.065 23.6276 17.8219 24.0443 17.4052C24.4748 16.9747 24.8915 16.2455 25.2943 15.2177C25.697 14.19 25.8984 13.2594 25.8984 12.4261C25.8984 10.7594 25.5026 9.39134 24.7109 8.3219C23.9332 7.23857 22.8707 6.6969 21.5234 6.6969C20.1901 6.6969 19.1207 7.12051 18.3151 7.96773C17.5234 8.81496 17.1276 9.87051 17.1276 11.1344C17.1276 12.3844 17.6276 13.6275 18.6276 14.8636Z" fill="#DF0000"/>
<path d="M209.276 295.954C209.276 298.454 208.331 300.426 206.442 301.87C206.442 301.87 205.97 302.217 205.026 302.912C204.428 303.37 204.13 303.662 204.13 303.787C204.13 303.926 204.491 304.335 205.213 305.016C205.935 305.71 206.664 306.606 207.401 307.704C208.137 308.801 208.505 309.967 208.505 311.204C208.505 313.44 207.887 315.19 206.651 316.454C205.401 317.717 203.796 318.349 201.838 318.349C199.88 318.349 198.22 317.738 196.859 316.516C195.484 315.308 194.796 313.794 194.796 311.974C194.796 310.738 195.144 309.565 195.838 308.454C196.269 307.815 196.859 307.21 197.609 306.641C198.345 306.072 198.866 305.676 199.171 305.454C199.463 305.245 199.609 305.099 199.609 305.016C199.609 304.947 199.387 304.738 198.942 304.391C197.47 303.21 196.401 302.155 195.734 301.224C194.72 299.835 194.213 298.183 194.213 296.266C194.213 294.363 194.928 292.69 196.359 291.245C197.776 289.801 199.498 289.079 201.526 289.079C203.553 289.079 205.352 289.724 206.921 291.016C208.491 292.322 209.276 293.967 209.276 295.954ZM206.63 295.891C206.63 294.266 206.144 292.877 205.171 291.724C204.199 290.572 203.053 289.995 201.734 289.995C200.401 289.995 199.276 290.488 198.359 291.474C197.428 292.474 196.963 293.919 196.963 295.808C196.963 297.03 197.776 298.454 199.401 300.079C199.553 300.231 199.782 300.474 200.088 300.808C200.394 301.141 200.873 301.606 201.526 302.204C202.164 302.801 202.671 303.099 203.046 303.099C203.421 303.099 203.713 302.981 203.921 302.745C204.116 302.509 204.289 302.308 204.442 302.141C205.901 300.572 206.63 298.572 206.63 296.141V295.891ZM204.484 309.308C203.859 308.558 202.769 307.53 201.213 306.224C200.991 306.03 200.741 305.933 200.463 305.933C200.185 305.933 199.991 305.967 199.88 306.037C199.755 306.106 199.484 306.349 199.067 306.766C198.637 307.197 198.22 307.926 197.817 308.954C197.414 309.981 197.213 310.912 197.213 311.745C197.213 313.412 197.609 314.78 198.401 315.849C199.178 316.933 200.241 317.474 201.588 317.474C202.921 317.474 203.991 317.051 204.796 316.204C205.588 315.356 205.984 314.301 205.984 313.037C205.984 311.787 205.484 310.544 204.484 309.308Z" fill="#DF0000"/>
<path d="M29.0109 49.6765C24.8421 44.0367 22.6242 38.3049 22.6242 38.3049C22.6242 38.3049 20.4062 44.0367 16.2374 49.6765C12.0666 55.3143 6.87048 58.9816 6.87048 58.9816C6.87048 58.9816 12.0666 62.647 16.2374 68.2887C20.4062 73.9266 22.6242 79.6583 22.6242 79.6583C22.6242 79.6583 24.8421 73.9266 29.0109 68.2887C33.1817 62.647 38.3778 58.9816 38.3778 58.9816C38.3778 58.9816 33.1817 55.3143 29.0109 49.6765Z" fill="#DF0000"/>
<path d="M207.215 255.366C203.046 249.726 200.828 243.995 200.828 243.995C200.828 243.995 198.61 249.726 194.441 255.366C190.27 261.004 185.074 264.671 185.074 264.671C185.074 264.671 190.27 268.337 194.441 273.978C198.61 279.616 200.828 285.348 200.828 285.348C200.828 285.348 203.046 279.616 207.215 273.978C211.385 268.337 216.582 264.671 216.582 264.671C216.582 264.671 211.385 261.004 207.215 255.366Z" fill="#DF0000"/>
<path d="M160.165 241.855C152.859 231.971 148.972 221.927 148.972 221.927C148.972 221.927 145.085 231.971 137.779 241.855C130.469 251.736 121.363 258.163 121.363 258.163C121.363 258.163 130.469 264.586 137.779 274.473C145.085 284.354 148.972 294.399 148.972 294.399C148.972 294.399 152.859 284.354 160.165 274.473C167.474 264.586 176.58 258.163 176.58 258.163C176.58 258.163 167.474 251.736 160.165 241.855Z" fill="#DF0000"/>
<path d="M160.165 49.3186C152.859 39.4348 148.972 29.3899 148.972 29.3899C148.972 29.3899 145.085 39.4348 137.779 49.3186C130.469 59.199 121.363 65.626 121.363 65.626C121.363 65.626 130.469 72.0495 137.779 81.9368C145.085 91.8172 148.972 101.862 148.972 101.862C148.972 101.862 152.859 91.8172 160.165 81.9368C167.474 72.0495 176.58 65.626 176.58 65.626C176.58 65.626 167.474 59.199 160.165 49.3186Z" fill="#DF0000"/>
<path d="M160.165 144.386C152.859 134.503 148.972 124.458 148.972 124.458C148.972 124.458 145.085 134.503 137.779 144.386C130.469 154.267 121.363 160.694 121.363 160.694C121.363 160.694 130.469 167.117 137.779 177.005C145.085 186.885 148.972 196.93 148.972 196.93C148.972 196.93 152.859 186.885 160.165 177.005C167.474 167.117 176.58 160.694 176.58 160.694C176.58 160.694 167.474 154.267 160.165 144.386Z" fill="#DF0000"/>
<path d="M83.7441 242.013C76.4382 232.129 72.5512 222.084 72.5512 222.084C72.5512 222.084 68.6642 232.129 61.3583 242.013C54.049 251.893 44.9427 258.32 44.9427 258.32C44.9427 258.32 54.049 264.744 61.3583 274.631C68.6642 284.511 72.5512 294.556 72.5512 294.556C72.5512 294.556 76.4382 284.511 83.7441 274.631C91.0534 264.744 100.16 258.32 100.16 258.32C100.16 258.32 91.0534 251.893 83.7441 242.013Z" fill="#DF0000"/>
<path d="M83.7441 49.4761C76.4382 39.5923 72.5512 29.5474 72.5512 29.5474C72.5512 29.5474 68.6642 39.5923 61.3583 49.4761C54.049 59.3564 44.9427 65.7834 44.9427 65.7834C44.9427 65.7834 54.049 72.207 61.3583 82.0943C68.6642 91.9746 72.5512 102.02 72.5512 102.02C72.5512 102.02 76.4382 91.9746 83.7441 82.0943C91.0534 72.207 100.16 65.7834 100.16 65.7834C100.16 65.7834 91.0534 59.3564 83.7441 49.4761Z" fill="#DF0000"/>
<path d="M83.7441 144.544C76.4382 134.66 72.5512 124.615 72.5512 124.615C72.5512 124.615 68.6642 134.66 61.3583 144.544C54.049 154.424 44.9427 160.851 44.9427 160.851C44.9427 160.851 54.049 167.275 61.3583 177.162C68.6642 187.042 72.5512 197.087 72.5512 197.087C72.5512 197.087 76.4382 187.042 83.7441 177.162C91.0534 167.275 100.16 160.851 100.16 160.851C100.16 160.851 91.0534 154.424 83.7441 144.544Z" fill="#DF0000"/>
<path d="M122.144 97.7429C114.838 87.8591 110.951 77.8142 110.951 77.8142C110.951 77.8142 107.064 87.8591 99.7583 97.7429C92.449 107.623 83.3428 114.05 83.3428 114.05C83.3428 114.05 92.449 120.474 99.7583 130.361C107.064 140.241 110.951 150.286 110.951 150.286C110.951 150.286 114.838 140.241 122.144 130.361C129.453 120.474 138.56 114.05 138.56 114.05C138.56 114.05 129.453 107.623 122.144 97.7429Z" fill="#DF0000"/>
<path d="M122.144 192.924C114.838 183.04 110.951 172.996 110.951 172.996C110.951 172.996 107.064 183.04 99.7583 192.924C92.449 202.805 83.3428 209.232 83.3428 209.232C83.3428 209.232 92.449 215.655 99.7583 225.542C107.064 235.423 110.951 245.468 110.951 245.468C110.951 245.468 114.838 235.423 122.144 225.542C129.453 215.655 138.56 209.232 138.56 209.232C138.56 209.232 129.453 202.805 122.144 192.924Z" fill="#DF0000"/>
</g>
<defs>
<clipPath id="clip0_3_1178">
<rect width="222" height="324" fill="white"/>
</clipPath>
</defs>
</svg>
