<svg width="222" height="324" viewBox="0 0 222 324" fill="none" xmlns="http://www.w3.org/2000/svg">
<g clip-path="url(#clip0_3_1227)">
<rect width="222" height="324" rx="10" fill="white"/>
<path d="M15.0756 30.3509C15.0756 27.8509 16.02 25.8787 17.9089 24.4342C17.9089 24.4342 18.3811 24.087 19.3256 23.3926C19.9228 22.9342 20.2214 22.6426 20.2214 22.5176C20.2214 22.3787 19.8603 21.969 19.1381 21.2884C18.4158 20.594 17.6867 19.6981 16.9506 18.6009C16.2145 17.5037 15.8464 16.337 15.8464 15.1009C15.8464 12.8648 16.4645 11.1148 17.7006 9.85091C18.9506 8.58702 20.5547 7.95508 22.5131 7.95508C24.4714 7.95508 26.1311 8.56619 27.4922 9.78841C28.8672 10.9967 29.5547 12.5106 29.5547 14.3301C29.5547 15.5662 29.2075 16.7398 28.5131 17.8509C28.0825 18.4898 27.4922 19.094 26.7422 19.6634C26.0061 20.2329 25.4853 20.6287 25.1797 20.8509C24.8881 21.0592 24.7422 21.2051 24.7422 21.2884C24.7422 21.3579 24.9645 21.5662 25.4089 21.9134C26.8811 23.094 27.9506 24.1495 28.6172 25.0801C29.6311 26.469 30.1381 28.1217 30.1381 30.0384C30.1381 31.9412 29.4228 33.6148 27.9922 35.0592C26.5756 36.5037 24.8533 37.2259 22.8256 37.2259C20.7978 37.2259 18.9992 36.5801 17.4297 35.2884C15.8603 33.9829 15.0756 32.337 15.0756 30.3509ZM17.7214 30.4134C17.7214 32.0384 18.2075 33.4273 19.1797 34.5801C20.152 35.7329 21.2978 36.3092 22.6172 36.3092C23.9506 36.3092 25.0756 35.8162 25.9922 34.8301C26.9228 33.8301 27.3881 32.3856 27.3881 30.4967C27.3881 29.2745 26.5756 27.8509 24.9506 26.2259C24.7978 26.0731 24.5686 25.8301 24.2631 25.4967C23.9575 25.1634 23.4783 24.6981 22.8256 24.1009C22.1867 23.5037 21.6797 23.2051 21.3047 23.2051C20.9297 23.2051 20.6381 23.3231 20.4297 23.5592C20.2353 23.7954 20.0617 23.9967 19.9089 24.1634C18.4506 25.7329 17.7214 27.7329 17.7214 30.1634V30.4134ZM19.8672 16.9967C20.4922 17.7467 21.5825 18.7745 23.1381 20.0801C23.3603 20.2745 23.6103 20.3717 23.8881 20.3717C24.1658 20.3717 24.3603 20.337 24.4714 20.2676C24.5964 20.1981 24.8672 19.9551 25.2839 19.5384C25.7145 19.1079 26.1311 18.3787 26.5339 17.3509C26.9367 16.3231 27.1381 15.3926 27.1381 14.5592C27.1381 12.8926 26.7422 11.5245 25.9506 10.4551C25.1728 9.37175 24.1103 8.83008 22.7631 8.83008C21.4297 8.83008 20.3603 9.25369 19.5547 10.1009C18.7631 10.9481 18.3672 12.0037 18.3672 13.2676C18.3672 14.5176 18.8672 15.7606 19.8672 16.9967Z" fill="#DF0000"/>
<path d="M31.1097 43.0432C23.87 43.0432 22.9033 50.3078 22.9033 50.3078C22.9033 50.3078 21.9367 43.0432 14.697 43.0432C9.62944 43.0432 5.04407 46.3005 5.04407 52.4452C5.04407 60.5643 19.7314 68.729 22.9033 80.651C25.9216 68.739 40.7626 60.5643 40.7626 52.4452C40.7626 46.3005 36.1773 43.0432 31.1097 43.0432Z" fill="#DF0000"/>
<path d="M208.382 291.687C208.382 294.187 207.437 296.159 205.549 297.604C205.549 297.604 205.076 297.951 204.132 298.645C203.535 299.104 203.236 299.395 203.236 299.52C203.236 299.659 203.597 300.069 204.319 300.749C205.042 301.444 205.771 302.34 206.507 303.437C207.243 304.534 207.611 305.701 207.611 306.937C207.611 309.173 206.993 310.923 205.757 312.187C204.507 313.451 202.903 314.083 200.944 314.083C198.986 314.083 197.326 313.472 195.965 312.249C194.59 311.041 193.903 309.527 193.903 307.708C193.903 306.472 194.25 305.298 194.944 304.187C195.375 303.548 195.965 302.944 196.715 302.374C197.451 301.805 197.972 301.409 198.278 301.187C198.569 300.979 198.715 300.833 198.715 300.749C198.715 300.68 198.493 300.472 198.049 300.124C196.576 298.944 195.507 297.888 194.84 296.958C193.826 295.569 193.319 293.916 193.319 291.999C193.319 290.097 194.035 288.423 195.465 286.979C196.882 285.534 198.604 284.812 200.632 284.812C202.66 284.812 204.458 285.458 206.028 286.749C207.597 288.055 208.382 289.701 208.382 291.687ZM205.736 291.624C205.736 289.999 205.25 288.611 204.278 287.458C203.305 286.305 202.16 285.729 200.84 285.729C199.507 285.729 198.382 286.222 197.465 287.208C196.535 288.208 196.069 289.652 196.069 291.541C196.069 292.763 196.882 294.187 198.507 295.812C198.66 295.965 198.889 296.208 199.194 296.541C199.5 296.874 199.979 297.34 200.632 297.937C201.271 298.534 201.778 298.833 202.153 298.833C202.528 298.833 202.819 298.715 203.028 298.479C203.222 298.242 203.396 298.041 203.549 297.874C205.007 296.305 205.736 294.305 205.736 291.874V291.624ZM203.59 305.041C202.965 304.291 201.875 303.263 200.319 301.958C200.097 301.763 199.847 301.666 199.569 301.666C199.292 301.666 199.097 301.701 198.986 301.77C198.861 301.84 198.59 302.083 198.174 302.499C197.743 302.93 197.326 303.659 196.924 304.687C196.521 305.715 196.319 306.645 196.319 307.479C196.319 309.145 196.715 310.513 197.507 311.583C198.285 312.666 199.347 313.208 200.694 313.208C202.028 313.208 203.097 312.784 203.903 311.937C204.694 311.09 205.09 310.034 205.09 308.77C205.09 307.52 204.59 306.277 203.59 305.041Z" fill="#DF0000"/>
<path d="M192.002 278.995C199.241 278.995 200.208 271.73 200.208 271.73C200.208 271.73 201.175 278.995 208.414 278.995C213.482 278.995 218.067 275.737 218.067 269.593C218.067 261.474 203.38 253.309 200.208 241.387C197.19 253.299 182.349 261.474 182.349 269.593C182.349 275.737 186.934 278.995 192.002 278.995Z" fill="#DF0000"/>
<path d="M86.3039 10.9277C74.2875 10.9277 72.683 22.9854 72.683 22.9854C72.683 22.9854 71.0786 10.9277 59.0622 10.9277C50.6511 10.9277 43.0403 16.3341 43.0403 26.5331C43.0403 40.0091 67.4183 53.5608 72.683 73.349C77.6927 53.5774 102.326 40.0091 102.326 26.5331C102.326 16.3341 94.715 10.9277 86.3039 10.9277Z" fill="#DF0000"/>
<path d="M59.0622 308.552C71.0786 308.552 72.6831 296.495 72.6831 296.495C72.6831 296.495 74.2875 308.552 86.3039 308.552C94.715 308.552 102.326 303.146 102.326 292.947C102.326 279.471 77.9478 265.919 72.6831 246.131C67.6734 265.903 43.0403 279.471 43.0403 292.947C43.0403 303.146 50.6511 308.552 59.0622 308.552Z" fill="#DF0000"/>
<path d="M86.3039 135.862C74.2875 135.862 72.683 147.92 72.683 147.92C72.683 147.92 71.0786 135.862 59.0622 135.862C50.6511 135.862 43.0403 141.268 43.0403 151.467C43.0403 164.943 67.4183 178.495 72.683 198.283C77.6927 178.512 102.326 164.943 102.326 151.467C102.326 141.268 94.715 135.862 86.3039 135.862Z" fill="#DF0000"/>
<path d="M163.288 10.4863C151.272 10.4863 149.667 22.544 149.667 22.544C149.667 22.544 148.063 10.4863 136.046 10.4863C127.635 10.4863 120.024 15.8927 120.024 26.0917C120.024 39.5677 144.402 53.1194 149.667 72.9076C154.677 53.136 179.31 39.5677 179.31 26.0917C179.31 15.8927 171.699 10.4863 163.288 10.4863Z" fill="#DF0000"/>
<path d="M136.046 310.244C148.063 310.244 149.667 298.186 149.667 298.186C149.667 298.186 151.272 310.244 163.288 310.244C171.699 310.244 179.31 304.838 179.31 294.639C179.31 281.163 154.932 267.611 149.667 247.823C144.658 267.594 120.024 281.163 120.024 294.639C120.024 304.838 127.635 310.244 136.046 310.244Z" fill="#DF0000"/>
<path d="M163.288 135.421C151.272 135.421 149.667 147.479 149.667 147.479C149.667 147.479 148.063 135.421 136.046 135.421C127.635 135.421 120.024 140.827 120.024 151.026C120.024 164.502 144.402 178.054 149.667 197.842C154.677 178.071 179.31 164.502 179.31 151.026C179.31 140.827 171.699 135.421 163.288 135.421Z" fill="#DF0000"/>
<path d="M125.192 71.0627C113.175 71.0627 111.571 83.1205 111.571 83.1205C111.571 83.1205 109.967 71.0627 97.9501 71.0627C89.539 71.0627 81.9282 76.4691 81.9282 86.6681C81.9282 100.144 106.306 113.696 111.571 133.484C116.581 113.712 141.214 100.144 141.214 86.6681C141.214 76.4691 133.603 71.0627 125.192 71.0627Z" fill="#DF0000"/>
<path d="M97.3304 248.154C109.347 248.154 110.951 236.097 110.951 236.097C110.951 236.097 112.556 248.154 124.572 248.154C132.983 248.154 140.594 242.748 140.594 232.549C140.594 219.073 116.216 205.521 110.951 185.733C105.942 205.505 81.3085 219.073 81.3085 232.549C81.3085 242.748 88.9193 248.154 97.3304 248.154Z" fill="#DF0000"/>
</g>
<defs>
<clipPath id="clip0_3_1227">
<rect width="222" height="324" fill="white"/>
</clipPath>
</defs>
</svg>
