<svg width="222" height="324" viewBox="0 0 222 324" fill="none" xmlns="http://www.w3.org/2000/svg">
<g clip-path="url(#clip0_3_1276)">
<rect width="222" height="324" rx="10" fill="white"/>
<path d="M14.7705 30.3509C14.7705 27.8509 15.715 25.8787 17.6038 24.4342C17.6038 24.4342 18.0761 24.087 19.0205 23.3926C19.6177 22.9342 19.9163 22.6426 19.9163 22.5176C19.9163 22.3787 19.5552 21.969 18.833 21.2884C18.1108 20.594 17.3816 19.6981 16.6455 18.6009C15.9094 17.5037 15.5413 16.337 15.5413 15.1009C15.5413 12.8648 16.1594 11.1148 17.3955 9.85091C18.6455 8.58702 20.2497 7.95508 22.208 7.95508C24.1663 7.95508 25.8261 8.56619 27.1872 9.78841C28.5622 10.9967 29.2497 12.5106 29.2497 14.3301C29.2497 15.5662 28.9025 16.7398 28.208 17.8509C27.7775 18.4898 27.1872 19.094 26.4372 19.6634C25.7011 20.2329 25.1802 20.6287 24.8747 20.8509C24.583 21.0592 24.4372 21.2051 24.4372 21.2884C24.4372 21.3579 24.6594 21.5662 25.1038 21.9134C26.5761 23.094 27.6455 24.1495 28.3122 25.0801C29.3261 26.469 29.833 28.1217 29.833 30.0384C29.833 31.9412 29.1177 33.6148 27.6872 35.0592C26.2705 36.5037 24.5483 37.2259 22.5205 37.2259C20.4927 37.2259 18.6941 36.5801 17.1247 35.2884C15.5552 33.9829 14.7705 32.337 14.7705 30.3509ZM17.4163 30.4134C17.4163 32.0384 17.9025 33.4273 18.8747 34.5801C19.8469 35.7329 20.9927 36.3092 22.3122 36.3092C23.6455 36.3092 24.7705 35.8162 25.6872 34.8301C26.6177 33.8301 27.083 32.3856 27.083 30.4967C27.083 29.2745 26.2705 27.8509 24.6455 26.2259C24.4927 26.0731 24.2636 25.8301 23.958 25.4967C23.6525 25.1634 23.1733 24.6981 22.5205 24.1009C21.8816 23.5037 21.3747 23.2051 20.9997 23.2051C20.6247 23.2051 20.333 23.3231 20.1247 23.5592C19.9302 23.7954 19.7566 23.9967 19.6038 24.1634C18.1455 25.7329 17.4163 27.7329 17.4163 30.1634V30.4134ZM19.5622 16.9967C20.1872 17.7467 21.2775 18.7745 22.833 20.0801C23.0552 20.2745 23.3052 20.3717 23.583 20.3717C23.8608 20.3717 24.0552 20.337 24.1663 20.2676C24.2913 20.1981 24.5622 19.9551 24.9788 19.5384C25.4094 19.1079 25.8261 18.3787 26.2288 17.3509C26.6316 16.3231 26.833 15.3926 26.833 14.5592C26.833 12.8926 26.4372 11.5245 25.6455 10.4551C24.8677 9.37175 23.8052 8.83008 22.458 8.83008C21.1247 8.83008 20.0552 9.25369 19.2497 10.1009C18.458 10.9481 18.0622 12.0037 18.0622 13.2676C18.0622 14.5176 18.5622 15.7606 19.5622 16.9967Z" fill="black"/>
<path d="M38.6416 65.7946C38.1548 58.3334 23.0588 44.29 22.572 40.7773C22.0853 44.2882 6.98925 58.3316 6.50248 65.7946C6.16254 71.0692 9.9119 73.2559 13.3213 73.2559C17.0127 73.2162 20.0615 68.1051 21.1117 67.1114C21.5985 68.4282 17.8873 79.4003 16.7287 79.4003H28.4173C27.2587 79.4003 23.5476 68.4282 24.0344 67.1114C24.9539 68.0242 27.6492 73.1029 31.8268 73.2559C35.2342 73.254 38.9815 71.0692 38.6416 65.7946Z" fill="black"/>
<path d="M101.028 69.4408C100.174 56.341 73.6691 31.6846 72.8145 25.5173C71.9599 31.6814 45.4554 56.3377 44.6008 69.4408C44.0039 78.7015 50.5868 82.5407 56.5728 82.5407C63.0538 82.471 68.4066 73.4974 70.2506 71.7528C71.1052 74.0647 64.5895 93.3287 62.5553 93.3287H83.0773C81.0431 93.3287 74.5273 74.0647 75.382 71.7528C76.9964 73.3553 81.7286 82.2722 89.0633 82.5407C95.0457 82.5375 101.625 78.7015 101.028 69.4408Z" fill="black"/>
<path d="M208.595 293.832C208.595 296.332 207.651 298.304 205.762 299.749C205.762 299.749 205.29 300.096 204.345 300.791C203.748 301.249 203.449 301.541 203.449 301.666C203.449 301.804 203.81 302.214 204.533 302.895C205.255 303.589 205.984 304.485 206.72 305.582C207.456 306.679 207.824 307.846 207.824 309.082C207.824 311.318 207.206 313.068 205.97 314.332C204.72 315.596 203.116 316.228 201.158 316.228C199.199 316.228 197.54 315.617 196.179 314.395C194.804 313.186 194.116 311.672 194.116 309.853C194.116 308.617 194.463 307.443 195.158 306.332C195.588 305.693 196.179 305.089 196.929 304.52C197.665 303.95 198.185 303.554 198.491 303.332C198.783 303.124 198.929 302.978 198.929 302.895C198.929 302.825 198.706 302.617 198.262 302.27C196.79 301.089 195.72 300.034 195.054 299.103C194.04 297.714 193.533 296.061 193.533 294.145C193.533 292.242 194.248 290.568 195.679 289.124C197.095 287.679 198.817 286.957 200.845 286.957C202.873 286.957 204.672 287.603 206.241 288.895C207.81 290.2 208.595 291.846 208.595 293.832ZM205.949 293.77C205.949 292.145 205.463 290.756 204.491 289.603C203.519 288.45 202.373 287.874 201.054 287.874C199.72 287.874 198.595 288.367 197.679 289.353C196.748 290.353 196.283 291.797 196.283 293.686C196.283 294.909 197.095 296.332 198.72 297.957C198.873 298.11 199.102 298.353 199.408 298.686C199.713 299.02 200.192 299.485 200.845 300.082C201.484 300.679 201.991 300.978 202.366 300.978C202.741 300.978 203.033 300.86 203.241 300.624C203.435 300.388 203.609 300.186 203.762 300.02C205.22 298.45 205.949 296.45 205.949 294.02V293.77ZM203.804 307.186C203.179 306.436 202.088 305.409 200.533 304.103C200.31 303.909 200.06 303.811 199.783 303.811C199.505 303.811 199.31 303.846 199.199 303.916C199.074 303.985 198.804 304.228 198.387 304.645C197.956 305.075 197.54 305.804 197.137 306.832C196.734 307.86 196.533 308.791 196.533 309.624C196.533 311.291 196.929 312.659 197.72 313.728C198.498 314.811 199.56 315.353 200.908 315.353C202.241 315.353 203.31 314.929 204.116 314.082C204.908 313.235 205.304 312.179 205.304 310.916C205.304 309.666 204.804 308.422 203.804 307.186Z" fill="black"/>
<path d="M184.23 258.352C184.717 265.813 199.813 279.857 200.3 283.369C200.787 279.859 215.883 265.815 216.37 258.352C216.71 253.078 212.96 250.891 209.551 250.891C205.859 250.931 202.811 256.042 201.76 257.035C201.274 255.719 204.985 244.746 206.143 244.746H194.455C195.613 244.746 199.324 255.719 198.838 257.035C197.918 256.123 195.223 251.044 191.045 250.891C187.638 250.893 183.891 253.078 184.23 258.352Z" fill="black"/>
<path d="M44.6612 254.742C45.5159 267.842 72.0203 292.498 72.8749 298.666C73.7296 292.502 100.234 267.845 101.089 254.742C101.686 245.482 95.1027 241.642 89.1166 241.642C82.6356 241.712 77.2828 250.686 75.4389 252.43C74.5842 250.118 81.1 230.854 83.1342 230.854H62.6122C64.6464 230.854 71.1621 250.118 70.3075 252.43C68.693 250.828 63.9608 241.911 56.6262 241.642C50.6437 241.646 44.0644 245.482 44.6612 254.742Z" fill="black"/>
<path d="M101.14 168.776C100.285 155.676 73.781 131.02 72.9263 124.852C72.0717 131.016 45.5672 155.673 44.7126 168.776C44.1158 178.036 50.6986 181.876 56.6846 181.876C63.1657 181.806 68.5185 172.832 70.3624 171.088C71.217 173.4 64.7013 192.664 62.6671 192.664H83.1891C81.1549 192.664 74.6391 173.4 75.4938 171.088C77.1082 172.69 81.8405 181.607 89.1751 181.876C95.1576 181.872 101.737 178.036 101.14 168.776Z" fill="black"/>
<path d="M178.211 69.1752C177.356 56.0753 150.852 31.419 149.997 25.2517C149.142 31.4158 122.638 56.0721 121.783 69.1752C121.187 78.4359 127.769 82.2751 133.755 82.2751C140.236 82.2054 145.589 73.2318 147.433 71.4871C148.288 73.7991 141.772 93.063 139.738 93.063H160.26C158.226 93.063 151.71 73.7991 152.565 71.4871C154.179 73.0897 158.911 82.0065 166.246 82.2751C172.228 82.2719 178.808 78.4359 178.211 69.1752Z" fill="black"/>
<path d="M121.844 254.477C122.698 267.577 149.203 292.233 150.057 298.4C150.912 292.236 177.416 267.58 178.271 254.477C178.868 245.216 172.285 241.377 166.299 241.377C159.818 241.447 154.465 250.42 152.621 252.165C151.767 249.853 158.282 230.589 160.317 230.589H139.795C141.829 230.589 148.345 249.853 147.49 252.165C145.875 250.562 141.143 241.646 133.809 241.377C127.826 241.38 121.247 245.216 121.844 254.477Z" fill="black"/>
<path d="M178.323 168.51C177.468 155.411 150.964 130.754 150.109 124.587C149.254 130.751 122.75 155.407 121.895 168.51C121.298 177.771 127.881 181.61 133.867 181.61C140.348 181.541 145.701 172.567 147.545 170.822C148.4 173.134 141.884 192.398 139.85 192.398H160.372C158.337 192.398 151.822 173.134 152.676 170.822C154.291 172.425 159.023 181.342 166.358 181.61C172.34 181.607 178.92 177.771 178.323 168.51Z" fill="black"/>
<path d="M139.54 121.937C138.685 108.837 112.181 84.1805 111.326 78.0132C110.472 84.1773 83.9671 108.834 83.1125 121.937C82.5157 131.197 89.0985 135.037 95.0845 135.037C101.566 134.967 106.918 125.993 108.762 124.249C109.617 126.561 103.101 145.825 101.067 145.825H121.589C119.555 145.825 113.039 126.561 113.894 124.249C115.508 125.851 120.24 134.768 127.575 135.037C133.557 135.033 140.137 131.197 139.54 121.937Z" fill="black"/>
<path d="M82.6742 205.718C83.5288 218.818 110.033 243.474 110.888 249.642C111.743 243.478 138.247 218.821 139.102 205.718C139.698 196.457 133.116 192.618 127.13 192.618C120.649 192.688 115.296 201.662 113.452 203.406C112.597 201.094 119.113 181.83 121.147 181.83H100.625C102.659 181.83 109.175 201.094 108.32 203.406C106.706 201.804 101.974 192.887 94.6391 192.618C88.6566 192.621 82.0773 196.457 82.6742 205.718Z" fill="black"/>
</g>
<defs>
<clipPath id="clip0_3_1276">
<rect width="222" height="324" fill="white"/>
</clipPath>
</defs>
</svg>
