<svg width="222" height="324" viewBox="0 0 222 324" fill="none" xmlns="http://www.w3.org/2000/svg">
<g clip-path="url(#clip0_3_1325)">
<rect width="222" height="324" rx="10" fill="white"/>
<path d="M13.3517 36.5852C13.2684 36.5852 13.2267 36.5088 13.2267 36.356C13.2267 36.2172 13.3656 36.0574 13.6434 35.8769C18.8378 33.6269 22.5947 30.6894 24.9142 27.0644C25.2892 26.4672 25.4767 26.106 25.4767 25.981C25.4767 25.856 25.4142 25.7935 25.2892 25.7935L23.1642 26.3144C22.4697 26.4949 21.5947 26.5852 20.5392 26.5852C19.4975 26.5852 18.4628 26.3144 17.435 25.7727C16.4072 25.2172 15.5322 24.4949 14.81 23.606C13.3378 21.8144 12.6017 19.6547 12.6017 17.1269C12.6017 14.5991 13.4281 12.3352 15.0809 10.3352C16.7475 8.33521 18.9697 7.33521 21.7475 7.33521C24.5392 7.33521 26.8517 8.40465 28.685 10.5435C30.5184 12.6824 31.435 15.2796 31.435 18.3352C31.435 22.0713 30.2961 25.3908 28.0184 28.2935C25.7545 31.1963 22.7753 33.4463 19.0809 35.0435C16.7753 36.0713 14.8656 36.5852 13.3517 36.5852ZM16.3517 17.5852C16.3517 19.5852 16.9142 21.3908 18.0392 23.0019C19.1642 24.5991 20.6156 25.3977 22.3934 25.3977C23.4767 25.3977 24.3586 25.2519 25.0392 24.9602C25.7336 24.6685 26.2059 24.4185 26.4559 24.2102C27.192 23.613 27.56 21.7727 27.56 18.6894C27.56 16.731 27.4559 15.2796 27.2475 14.3352C26.8586 12.4602 26.2267 11.0088 25.3517 9.98104C24.4767 8.95326 23.2406 8.43937 21.6434 8.43937C19.1572 8.43937 17.5253 10.0713 16.7475 13.3352C16.4836 14.4324 16.3517 15.6685 16.3517 17.0435V17.5852Z" fill="black"/>
<path d="M27.5879 58.3197C27.5879 58.3197 32.2924 54.556 32.2924 49.3384C32.2924 46.2839 29.5806 41.2129 23.3112 41.2129C17.0417 41.2129 14.3299 46.2859 14.3299 49.3384C14.3299 54.556 19.0345 58.3197 19.0345 58.3197C13.8089 54.249 4.49292 57.0281 4.49292 65.1636C4.49292 69.2362 7.82078 73.7169 13.0463 73.7169C19.3158 73.7169 22.0276 66.873 22.0276 66.873C22.0276 66.873 22.8239 74.6737 18.1787 78.8494H28.4436C23.7985 74.6757 24.5948 66.873 24.5948 66.873C24.5948 66.873 27.3066 73.7169 33.576 73.7169C38.8035 73.7169 42.1294 69.2342 42.1294 65.1636C42.1294 57.0281 32.8134 54.249 27.5879 58.3197Z" fill="black"/>
<path d="M209.548 286.101C209.631 286.101 209.673 286.178 209.673 286.33C209.673 286.469 209.534 286.629 209.256 286.81C204.062 289.06 200.305 291.997 197.985 295.622C197.61 296.219 197.423 296.58 197.423 296.705C197.423 296.83 197.485 296.893 197.61 296.893L199.735 296.372C200.43 296.192 201.305 296.101 202.36 296.101C203.402 296.101 204.437 296.372 205.464 296.914C206.492 297.469 207.367 298.192 208.089 299.08C209.562 300.872 210.298 303.032 210.298 305.56C210.298 308.087 209.471 310.351 207.819 312.351C206.152 314.351 203.93 315.351 201.152 315.351C198.36 315.351 196.048 314.282 194.214 312.143C192.381 310.004 191.464 307.407 191.464 304.351C191.464 300.615 192.603 297.296 194.881 294.393C197.145 291.49 200.124 289.24 203.819 287.643C206.124 286.615 208.034 286.101 209.548 286.101ZM206.548 305.101C206.548 303.101 205.985 301.296 204.86 299.685C203.735 298.087 202.284 297.289 200.506 297.289C199.423 297.289 198.541 297.435 197.86 297.726C197.166 298.018 196.694 298.268 196.444 298.476C195.707 299.074 195.339 300.914 195.339 303.997C195.339 305.955 195.444 307.407 195.652 308.351C196.041 310.226 196.673 311.678 197.548 312.705C198.423 313.733 199.659 314.247 201.256 314.247C203.742 314.247 205.374 312.615 206.152 309.351C206.416 308.254 206.548 307.018 206.548 305.643V305.101Z" fill="black"/>
<path d="M195.311 264.987C195.311 264.987 190.607 268.751 190.607 273.968C190.607 277.023 193.319 282.094 199.588 282.094C205.858 282.094 208.569 277.021 208.569 273.968C208.569 268.751 203.865 264.987 203.865 264.987C209.09 269.058 218.406 266.279 218.406 258.143C218.406 254.07 215.079 249.59 209.853 249.59C203.584 249.59 200.872 256.434 200.872 256.434C200.872 256.434 200.075 248.633 204.721 244.457H194.456C199.101 248.631 198.305 256.434 198.305 256.434C198.305 256.434 195.593 249.59 189.323 249.59C184.096 249.59 180.77 254.072 180.77 258.143C180.77 266.279 190.086 269.058 195.311 264.987Z" fill="black"/>
<path d="M76.7637 33.4667C76.7637 33.4667 84.7202 27.1015 84.7202 18.2773C84.7202 13.1114 80.1339 4.53516 69.5308 4.53516C58.9277 4.53516 54.3414 13.1148 54.3414 18.2773C54.3414 27.1015 62.2979 33.4667 62.2979 33.4667C53.4604 26.5822 37.7048 31.2824 37.7048 45.0413C37.7048 51.9291 43.333 59.507 52.1706 59.507C62.7737 59.507 67.36 47.9324 67.36 47.9324C67.36 47.9324 68.7067 61.1251 60.8507 68.1871H78.2109C70.3549 61.1285 71.7017 47.9324 71.7017 47.9324C71.7017 47.9324 76.288 59.507 86.8911 59.507C95.732 59.507 101.357 51.9257 101.357 45.0413C101.357 31.2824 85.6013 26.5822 76.7637 33.4667Z" fill="black"/>
<path d="M76.1472 124.268C76.1472 124.268 84.1037 117.902 84.1037 109.078C84.1037 103.912 79.5174 95.3362 68.9144 95.3362C58.3113 95.3362 53.725 103.916 53.725 109.078C53.725 117.902 61.6815 124.268 61.6815 124.268C52.8439 117.383 37.0884 122.083 37.0884 135.842C37.0884 142.73 42.7166 150.308 51.5541 150.308C62.1572 150.308 66.7435 138.733 66.7435 138.733C66.7435 138.733 68.0902 151.926 60.2342 158.988H77.5945C69.7385 151.929 71.0852 138.733 71.0852 138.733C71.0852 138.733 75.6715 150.308 86.2746 150.308C95.1155 150.308 100.74 142.727 100.74 135.842C100.74 122.083 84.9848 117.383 76.1472 124.268Z" fill="black"/>
<path d="M162.077 33.235C162.077 33.235 170.034 26.8698 170.034 18.0456C170.034 12.8797 165.447 4.30347 154.844 4.30347C144.241 4.30347 139.655 12.8831 139.655 18.0456C139.655 26.8698 147.611 33.235 147.611 33.235C138.774 26.3505 123.018 31.0507 123.018 44.8096C123.018 51.6974 128.646 59.2753 137.484 59.2753C148.087 59.2753 152.673 47.7007 152.673 47.7007C152.673 47.7007 154.02 60.8934 146.164 67.9554H163.524C155.668 60.8968 157.015 47.7007 157.015 47.7007C157.015 47.7007 161.601 59.2753 172.205 59.2753C181.045 59.2753 186.67 51.694 186.67 44.8096C186.67 31.0507 170.915 26.3505 162.077 33.235Z" fill="black"/>
<path d="M162.077 124.036C162.077 124.036 170.034 117.671 170.034 108.847C170.034 103.681 165.447 95.1045 154.844 95.1045C144.241 95.1045 139.655 103.684 139.655 108.847C139.655 117.671 147.611 124.036 147.611 124.036C138.774 117.152 123.018 121.852 123.018 135.611C123.018 142.498 128.646 150.076 137.484 150.076C148.087 150.076 152.673 138.502 152.673 138.502C152.673 138.502 154.02 151.694 146.164 158.756H163.524C155.668 151.698 157.015 138.502 157.015 138.502C157.015 138.502 161.601 150.076 172.205 150.076C181.045 150.076 186.67 142.495 186.67 135.611C186.67 121.852 170.915 117.152 162.077 124.036Z" fill="black"/>
<path d="M119.435 79.0414C119.435 79.0414 127.392 72.6762 127.392 63.852C127.392 58.6861 122.806 50.1099 112.202 50.1099C101.599 50.1099 97.0131 58.6895 97.0131 63.852C97.0131 72.6762 104.97 79.0414 104.97 79.0414C96.132 72.1569 80.3765 76.8571 80.3765 90.616C80.3765 97.5038 86.0046 105.082 94.8422 105.082C105.445 105.082 110.032 93.5071 110.032 93.5071C110.032 93.5071 111.378 106.7 103.522 113.762H120.883C113.027 106.703 114.373 93.5071 114.373 93.5071C114.373 93.5071 118.96 105.082 129.563 105.082C138.404 105.082 144.028 97.5004 144.028 90.616C144.028 76.8571 128.273 72.1569 119.435 79.0414Z" fill="black"/>
<path d="M146.75 290.403C146.75 290.403 138.794 296.768 138.794 305.592C138.794 310.758 143.38 319.334 153.983 319.334C164.586 319.334 169.172 310.755 169.172 305.592C169.172 296.768 161.216 290.403 161.216 290.403C170.053 297.287 185.809 292.587 185.809 278.828C185.809 271.94 180.181 264.362 171.343 264.362C160.74 264.362 156.154 275.937 156.154 275.937C156.154 275.937 154.807 262.744 162.663 255.682H145.303C153.159 262.741 151.812 275.937 151.812 275.937C151.812 275.937 147.226 264.362 136.623 264.362C127.782 264.362 122.157 271.944 122.157 278.828C122.157 292.587 137.913 297.287 146.75 290.403Z" fill="black"/>
<path d="M147.611 199.602C147.611 199.602 139.655 205.967 139.655 214.791C139.655 219.957 144.241 228.533 154.844 228.533C165.447 228.533 170.033 219.954 170.033 214.791C170.033 205.967 162.077 199.602 162.077 199.602C170.914 206.486 186.67 201.786 186.67 188.027C186.67 181.139 181.042 173.561 172.204 173.561C161.601 173.561 157.015 185.136 157.015 185.136C157.015 185.136 155.668 171.943 163.524 164.881H146.164C154.02 171.94 152.673 185.136 152.673 185.136C152.673 185.136 148.087 173.561 137.484 173.561C128.643 173.561 123.018 181.143 123.018 188.027C123.018 201.786 138.774 206.486 147.611 199.602Z" fill="black"/>
<path d="M61.4366 290.635C61.4366 290.635 53.4801 297 53.4801 305.824C53.4801 310.99 58.0664 319.566 68.6695 319.566C79.2726 319.566 83.8589 310.986 83.8589 305.824C83.8589 297 75.9024 290.635 75.9024 290.635C84.7399 297.519 100.495 292.819 100.495 279.06C100.495 272.172 94.8673 264.594 86.0297 264.594C75.4267 264.594 70.8404 276.169 70.8404 276.169C70.8404 276.169 69.4936 262.976 77.3496 255.914H59.9894C67.8454 262.973 66.4986 276.169 66.4986 276.169C66.4986 276.169 61.9123 264.594 51.3093 264.594C42.4683 264.594 36.8435 272.175 36.8435 279.06C36.8435 292.819 52.599 297.519 61.4366 290.635Z" fill="black"/>
<path d="M61.6815 199.834C61.6815 199.834 53.725 206.199 53.725 215.023C53.725 220.189 58.3113 228.765 68.9144 228.765C79.5174 228.765 84.1037 220.185 84.1037 215.023C84.1037 206.199 76.1472 199.834 76.1472 199.834C84.9848 206.718 100.74 202.018 100.74 188.259C100.74 181.371 95.1122 173.793 86.2746 173.793C75.6715 173.793 71.0852 185.368 71.0852 185.368C71.0852 185.368 69.7385 172.175 77.5945 165.113H60.2342C68.0902 172.172 66.7435 185.368 66.7435 185.368C66.7435 185.368 62.1572 173.793 51.5541 173.793C42.7132 173.793 37.0884 181.374 37.0884 188.259C37.0884 202.018 52.8439 206.718 61.6815 199.834Z" fill="black"/>
</g>
<defs>
<clipPath id="clip0_3_1325">
<rect width="222" height="324" fill="white"/>
</clipPath>
</defs>
</svg>
