<svg width="222" height="324" viewBox="0 0 222 324" fill="none" xmlns="http://www.w3.org/2000/svg">
<g clip-path="url(#clip0_3_1367)">
<rect width="222" height="324" rx="10" fill="white"/>
<path d="M12.7318 35.0718C12.6485 35.0718 12.6068 34.9954 12.6068 34.8426C12.6068 34.7037 12.7457 34.544 13.0235 34.3634C18.2179 32.1134 21.9749 29.1759 24.2943 25.5509C24.6693 24.9537 24.8568 24.5926 24.8568 24.4676C24.8568 24.3426 24.7943 24.2801 24.6693 24.2801L22.5443 24.8009C21.8499 24.9815 20.9749 25.0718 19.9193 25.0718C18.8776 25.0718 17.8429 24.8009 16.8151 24.2593C15.7874 23.7037 14.9124 22.9815 14.1901 22.0926C12.7179 20.3009 11.9818 18.1412 11.9818 15.6134C11.9818 13.0857 12.8082 10.8218 14.461 8.82178C16.1276 6.82178 18.3499 5.82178 21.1276 5.82178C23.9193 5.82178 26.2318 6.89122 28.0651 9.03011C29.8985 11.169 30.8151 13.7662 30.8151 16.8218C30.8151 20.5579 29.6763 23.8773 27.3985 26.7801C25.1346 29.6829 22.1554 31.9329 18.461 33.5301C16.1554 34.5579 14.2457 35.0718 12.7318 35.0718ZM15.7318 16.0718C15.7318 18.0718 16.2943 19.8773 17.4193 21.4884C18.5443 23.0857 19.9957 23.8843 21.7735 23.8843C22.8568 23.8843 23.7388 23.7384 24.4193 23.4468C25.1138 23.1551 25.586 22.9051 25.836 22.6968C26.5721 22.0996 26.9401 20.2593 26.9401 17.1759C26.9401 15.2176 26.836 13.7662 26.6276 12.8218C26.2388 10.9468 25.6068 9.49539 24.7318 8.46761C23.8568 7.43983 22.6207 6.92594 21.0235 6.92594C18.5374 6.92594 16.9054 8.55789 16.1276 11.8218C15.8638 12.919 15.7318 14.1551 15.7318 15.5301V16.0718Z" fill="#DF0000"/>
<path d="M210.38 289.099C210.463 289.099 210.505 289.176 210.505 289.329C210.505 289.467 210.366 289.627 210.088 289.808C204.894 292.058 201.137 294.995 198.817 298.62C198.442 299.217 198.255 299.579 198.255 299.704C198.255 299.829 198.317 299.891 198.442 299.891L200.567 299.37C201.262 299.19 202.137 299.099 203.192 299.099C204.234 299.099 205.269 299.37 206.296 299.912C207.324 300.467 208.199 301.19 208.921 302.079C210.394 303.87 211.13 306.03 211.13 308.558C211.13 311.085 210.303 313.349 208.65 315.349C206.984 317.349 204.762 318.349 201.984 318.349C199.192 318.349 196.88 317.28 195.046 315.141C193.213 313.002 192.296 310.405 192.296 307.349C192.296 303.613 193.435 300.294 195.713 297.391C197.977 294.488 200.956 292.238 204.65 290.641C206.956 289.613 208.866 289.099 210.38 289.099ZM207.38 308.099C207.38 306.099 206.817 304.294 205.692 302.683C204.567 301.085 203.116 300.287 201.338 300.287C200.255 300.287 199.373 300.433 198.692 300.724C197.998 301.016 197.525 301.266 197.275 301.474C196.539 302.072 196.171 303.912 196.171 306.995C196.171 308.954 196.275 310.405 196.484 311.349C196.873 313.224 197.505 314.676 198.38 315.704C199.255 316.731 200.491 317.245 202.088 317.245C204.574 317.245 206.206 315.613 206.984 312.349C207.248 311.252 207.38 310.016 207.38 308.641V308.099Z" fill="#DF0000"/>
<path d="M29.0109 49.6765C24.8421 44.0367 22.6242 38.3049 22.6242 38.3049C22.6242 38.3049 20.4062 44.0367 16.2374 49.6765C12.0666 55.3143 6.87048 58.9816 6.87048 58.9816C6.87048 58.9816 12.0666 62.647 16.2374 68.2887C20.4062 73.9266 22.6242 79.6583 22.6242 79.6583C22.6242 79.6583 24.8421 73.9266 29.0109 68.2887C33.1817 62.647 38.3778 58.9816 38.3778 58.9816C38.3778 58.9816 33.1817 55.3143 29.0109 49.6765Z" fill="#DF0000"/>
<path d="M207.215 255.366C203.046 249.726 200.828 243.995 200.828 243.995C200.828 243.995 198.61 249.726 194.441 255.366C190.27 261.004 185.074 264.671 185.074 264.671C185.074 264.671 190.27 268.337 194.441 273.978C198.61 279.616 200.828 285.348 200.828 285.348C200.828 285.348 203.046 279.616 207.215 273.978C211.385 268.337 216.582 264.671 216.582 264.671C216.582 264.671 211.385 261.004 207.215 255.366Z" fill="#DF0000"/>
<path d="M83.3646 264.912C76.0587 255.029 72.1717 244.984 72.1717 244.984C72.1717 244.984 68.2847 255.029 60.9788 264.912C53.6694 274.793 44.5632 281.22 44.5632 281.22C44.5632 281.22 53.6694 287.643 60.9788 297.531C68.2847 307.411 72.1717 317.456 72.1717 317.456C72.1717 317.456 76.0587 307.411 83.3646 297.531C90.6739 287.643 99.7801 281.22 99.7801 281.22C99.7801 281.22 90.6739 274.793 83.3646 264.912Z" fill="#DF0000"/>
<path d="M83.3646 25.852C76.0587 15.9682 72.1717 5.92334 72.1717 5.92334C72.1717 5.92334 68.2847 15.9682 60.9788 25.852C53.6694 35.7324 44.5632 42.1594 44.5632 42.1594C44.5632 42.1594 53.6694 48.583 60.9788 58.4702C68.2847 68.3506 72.1717 78.3955 72.1717 78.3955C72.1717 78.3955 76.0587 68.3506 83.3646 58.4702C90.6739 48.583 99.7801 42.1594 99.7801 42.1594C99.7801 42.1594 90.6739 35.7324 83.3646 25.852Z" fill="#DF0000"/>
<path d="M83.3646 185.27C76.0587 175.386 72.1717 165.341 72.1717 165.341C72.1717 165.341 68.2847 175.386 60.9788 185.27C53.6694 195.15 44.5632 201.577 44.5632 201.577C44.5632 201.577 53.6694 208 60.9788 217.888C68.2847 227.768 72.1717 237.813 72.1717 237.813C72.1717 237.813 76.0587 227.768 83.3646 217.888C90.6739 208 99.7801 201.577 99.7801 201.577C99.7801 201.577 90.6739 195.15 83.3646 185.27Z" fill="#DF0000"/>
<path d="M83.3646 105.495C76.0587 95.6108 72.1717 85.5659 72.1717 85.5659C72.1717 85.5659 68.2847 95.6108 60.9788 105.495C53.6694 115.375 44.5632 121.802 44.5632 121.802C44.5632 121.802 53.6694 128.226 60.9788 138.113C68.2847 147.993 72.1717 158.038 72.1717 158.038C72.1717 158.038 76.0587 147.993 83.3646 138.113C90.6739 128.226 99.7801 121.802 99.7801 121.802C99.7801 121.802 90.6739 115.375 83.3646 105.495Z" fill="#DF0000"/>
<path d="M161.721 264.912C154.415 255.029 150.528 244.984 150.528 244.984C150.528 244.984 146.641 255.029 139.335 264.912C132.026 274.793 122.919 281.22 122.919 281.22C122.919 281.22 132.026 287.643 139.335 297.531C146.641 307.411 150.528 317.456 150.528 317.456C150.528 317.456 154.415 307.411 161.721 297.531C169.03 287.643 178.136 281.22 178.136 281.22C178.136 281.22 169.03 274.793 161.721 264.912Z" fill="#DF0000"/>
<path d="M161.721 25.852C154.415 15.9682 150.528 5.92334 150.528 5.92334C150.528 5.92334 146.641 15.9682 139.335 25.852C132.026 35.7324 122.919 42.1594 122.919 42.1594C122.919 42.1594 132.026 48.583 139.335 58.4702C146.641 68.3506 150.528 78.3955 150.528 78.3955C150.528 78.3955 154.415 68.3506 161.721 58.4702C169.03 48.583 178.136 42.1594 178.136 42.1594C178.136 42.1594 169.03 35.7324 161.721 25.852Z" fill="#DF0000"/>
<path d="M161.721 185.27C154.415 175.386 150.528 165.341 150.528 165.341C150.528 165.341 146.641 175.386 139.335 185.27C132.026 195.15 122.919 201.577 122.919 201.577C122.919 201.577 132.026 208 139.335 217.888C146.641 227.768 150.528 237.813 150.528 237.813C150.528 237.813 154.415 227.768 161.721 217.888C169.03 208 178.136 201.577 178.136 201.577C178.136 201.577 169.03 195.15 161.721 185.27Z" fill="#DF0000"/>
<path d="M161.721 105.495C154.415 95.6108 150.528 85.5659 150.528 85.5659C150.528 85.5659 146.641 95.6108 139.335 105.495C132.026 115.375 122.919 121.802 122.919 121.802C122.919 121.802 132.026 128.226 139.335 138.113C146.641 147.993 150.528 158.038 150.528 158.038C150.528 158.038 154.415 147.993 161.721 138.113C169.03 128.226 178.136 121.802 178.136 121.802C178.136 121.802 169.03 115.375 161.721 105.495Z" fill="#DF0000"/>
<path d="M122.144 66.1313C114.838 56.2475 110.951 46.2026 110.951 46.2026C110.951 46.2026 107.064 56.2475 99.7583 66.1313C92.449 76.0117 83.3428 82.4387 83.3428 82.4387C83.3428 82.4387 92.449 88.8623 99.7583 98.7495C107.064 108.63 110.951 118.675 110.951 118.675C110.951 118.675 114.838 108.63 122.144 98.7495C129.453 88.8623 138.56 82.4387 138.56 82.4387C138.56 82.4387 129.453 76.0117 122.144 66.1313Z" fill="#DF0000"/>
</g>
<defs>
<clipPath id="clip0_3_1367">
<rect width="222" height="324" fill="white"/>
</clipPath>
</defs>
</svg>
