<svg width="222" height="324" viewBox="0 0 222 324" fill="none" xmlns="http://www.w3.org/2000/svg">
<g clip-path="url(#clip0_3_1411)">
<rect width="222" height="324" rx="10" fill="white"/>
<path d="M31.1097 43.0432C23.87 43.0432 22.9033 50.3078 22.9033 50.3078C22.9033 50.3078 21.9367 43.0432 14.697 43.0432C9.62944 43.0432 5.04407 46.3005 5.04407 52.4452C5.04407 60.5643 19.7314 68.729 22.9033 80.651C25.9216 68.739 40.7626 60.5643 40.7626 52.4452C40.7626 46.3005 36.1773 43.0432 31.1097 43.0432Z" fill="#DF0000"/>
<path d="M192.002 278.995C199.241 278.995 200.208 271.73 200.208 271.73C200.208 271.73 201.175 278.995 208.414 278.995C213.482 278.995 218.067 275.737 218.067 269.593C218.067 261.474 203.38 253.309 200.208 241.387C197.19 253.299 182.349 261.474 182.349 269.593C182.349 275.737 186.934 278.995 192.002 278.995Z" fill="#DF0000"/>
<path d="M86.3039 8.79443C74.2875 8.79443 72.683 20.8521 72.683 20.8521C72.683 20.8521 71.0786 8.79443 59.0622 8.79443C50.6511 8.79443 43.0403 14.2008 43.0403 24.3998C43.0403 37.8758 67.4183 51.4275 72.683 71.2157C77.6927 51.4441 102.326 37.8758 102.326 24.3998C102.326 14.2008 94.715 8.79443 86.3039 8.79443Z" fill="#DF0000"/>
<path d="M59.0622 314.952C71.0786 314.952 72.6831 302.894 72.6831 302.894C72.6831 302.894 74.2875 314.952 86.3039 314.952C94.715 314.952 102.326 309.546 102.326 299.347C102.326 285.871 77.9478 272.319 72.6831 252.531C67.6734 272.302 43.0403 285.871 43.0403 299.347C43.0403 309.546 50.6511 314.952 59.0622 314.952Z" fill="#DF0000"/>
<path d="M86.3039 95.7742C74.2875 95.7742 72.683 107.832 72.683 107.832C72.683 107.832 71.0786 95.7742 59.0622 95.7742C50.6511 95.7742 43.0403 101.181 43.0403 111.379C43.0403 124.856 67.4183 138.407 72.683 158.195C77.6927 138.424 102.326 124.856 102.326 111.379C102.326 101.181 94.715 95.7742 86.3039 95.7742Z" fill="#DF0000"/>
<path d="M59.0622 225.019C71.0786 225.019 72.6831 212.961 72.6831 212.961C72.6831 212.961 74.2875 225.019 86.3039 225.019C94.715 225.019 102.326 219.612 102.326 209.413C102.326 195.937 77.9478 182.385 72.6831 162.597C67.6734 182.369 43.0403 195.937 43.0403 209.413C43.0403 219.612 50.6511 225.019 59.0622 225.019Z" fill="#DF0000"/>
<path d="M162.942 9.59277C150.926 9.59277 149.321 21.6505 149.321 21.6505C149.321 21.6505 147.717 9.59277 135.7 9.59277C127.289 9.59277 119.678 14.9992 119.678 25.1981C119.678 38.6742 144.056 52.2259 149.321 72.0141C154.331 52.2425 178.964 38.6742 178.964 25.1981C178.964 14.9992 171.353 9.59277 162.942 9.59277Z" fill="#DF0000"/>
<path d="M135.7 315.75C147.717 315.75 149.321 303.693 149.321 303.693C149.321 303.693 150.926 315.75 162.942 315.75C171.353 315.75 178.964 310.344 178.964 300.145C178.964 286.669 154.586 273.117 149.321 253.329C144.311 273.101 119.678 286.669 119.678 300.145C119.678 310.344 127.289 315.75 135.7 315.75Z" fill="#DF0000"/>
<path d="M162.942 96.5725C150.926 96.5725 149.321 108.63 149.321 108.63C149.321 108.63 147.717 96.5725 135.7 96.5725C127.289 96.5725 119.678 101.979 119.678 112.178C119.678 125.654 144.056 139.206 149.321 158.994C154.331 139.222 178.964 125.654 178.964 112.178C178.964 101.979 171.353 96.5725 162.942 96.5725Z" fill="#DF0000"/>
<path d="M135.7 225.817C147.717 225.817 149.321 213.759 149.321 213.759C149.321 213.759 150.926 225.817 162.942 225.817C171.353 225.817 178.964 220.411 178.964 210.212C178.964 196.736 154.586 183.184 149.321 163.396C144.311 183.167 119.678 196.736 119.678 210.212C119.678 220.411 127.289 225.817 135.7 225.817Z" fill="#DF0000"/>
<path d="M124.572 52.3955C112.556 52.3955 110.951 64.4532 110.951 64.4532C110.951 64.4532 109.347 52.3955 97.3304 52.3955C88.9192 52.3955 81.3085 57.8019 81.3085 68.0008C81.3085 81.4769 105.686 95.0286 110.951 114.817C115.961 95.0452 140.594 81.4769 140.594 68.0008C140.594 57.8019 132.983 52.3955 124.572 52.3955Z" fill="#DF0000"/>
<path d="M13.9293 37.2051C13.846 37.2051 13.8043 37.1287 13.8043 36.9759C13.8043 36.837 13.9432 36.6773 14.221 36.4967C19.4154 34.2467 23.1724 31.3092 25.4918 27.6842C25.8668 27.087 26.0543 26.7259 26.0543 26.6009C26.0543 26.4759 25.9918 26.4134 25.8668 26.4134L23.7418 26.9342C23.0474 27.1148 22.1724 27.2051 21.1168 27.2051C20.0752 27.2051 19.0404 26.9342 18.0127 26.3926C16.9849 25.837 16.1099 25.1148 15.3877 24.2259C13.9154 22.4342 13.1793 20.2745 13.1793 17.7467C13.1793 15.219 14.0057 12.9551 15.6585 10.9551C17.3252 8.95508 19.5474 7.95508 22.3252 7.95508C25.1168 7.95508 27.4293 9.02452 29.2627 11.1634C31.096 13.3023 32.0127 15.8995 32.0127 18.9551C32.0127 22.6912 30.8738 26.0106 28.596 28.9134C26.3321 31.8162 23.3529 34.0662 19.6585 35.6634C17.3529 36.6912 15.4432 37.2051 13.9293 37.2051ZM16.9293 18.2051C16.9293 20.2051 17.4918 22.0106 18.6168 23.6217C19.7418 25.219 21.1932 26.0176 22.971 26.0176C24.0543 26.0176 24.9363 25.8717 25.6168 25.5801C26.3113 25.2884 26.7835 25.0384 27.0335 24.8301C27.7696 24.2329 28.1377 22.3926 28.1377 19.3092C28.1377 17.3509 28.0335 15.8995 27.8252 14.9551C27.4363 13.0801 26.8043 11.6287 25.9293 10.6009C25.0543 9.57313 23.8182 9.05925 22.221 9.05925C19.7349 9.05925 18.1029 10.6912 17.3252 13.9551C17.0613 15.0523 16.9293 16.2884 16.9293 17.6634V18.2051Z" fill="#DF0000"/>
<path d="M209.486 284.833C209.57 284.833 209.611 284.909 209.611 285.062C209.611 285.201 209.472 285.36 209.195 285.541C204 287.791 200.243 290.728 197.924 294.353C197.549 294.951 197.361 295.312 197.361 295.437C197.361 295.562 197.424 295.624 197.549 295.624L199.674 295.103C200.368 294.923 201.243 294.833 202.299 294.833C203.34 294.833 204.375 295.103 205.403 295.645C206.431 296.201 207.306 296.923 208.028 297.812C209.5 299.603 210.236 301.763 210.236 304.291C210.236 306.819 209.41 309.083 207.757 311.083C206.09 313.083 203.868 314.083 201.09 314.083C198.299 314.083 195.986 313.013 194.153 310.874C192.32 308.735 191.403 306.138 191.403 303.083C191.403 299.346 192.542 296.027 194.82 293.124C197.083 290.221 200.063 287.971 203.757 286.374C206.063 285.346 207.972 284.833 209.486 284.833ZM206.486 303.833C206.486 301.833 205.924 300.027 204.799 298.416C203.674 296.819 202.222 296.02 200.445 296.02C199.361 296.02 198.479 296.166 197.799 296.458C197.104 296.749 196.632 296.999 196.382 297.208C195.646 297.805 195.278 299.645 195.278 302.728C195.278 304.687 195.382 306.138 195.59 307.083C195.979 308.958 196.611 310.409 197.486 311.437C198.361 312.464 199.597 312.978 201.195 312.978C203.681 312.978 205.313 311.346 206.09 308.083C206.354 306.985 206.486 305.749 206.486 304.374V303.833Z" fill="#DF0000"/>
</g>
<defs>
<clipPath id="clip0_3_1411">
<rect width="222" height="324" fill="white"/>
</clipPath>
</defs>
</svg>
