<svg width="222" height="324" viewBox="0 0 222 324" fill="none" xmlns="http://www.w3.org/2000/svg">
<g clip-path="url(#clip0_3_1464)">
<rect width="222" height="324" rx="10" fill="white"/>
<path d="M13.6665 37.2052C13.5832 37.2052 13.5415 37.1288 13.5415 36.976C13.5415 36.8371 13.6804 36.6774 13.9582 36.4969C19.1526 34.2469 22.9096 31.3094 25.229 27.6844C25.604 27.0871 25.7915 26.726 25.7915 26.601C25.7915 26.476 25.729 26.4135 25.604 26.4135L23.479 26.9344C22.7846 27.1149 21.9096 27.2052 20.854 27.2052C19.8123 27.2052 18.7776 26.9344 17.7498 26.3927C16.7221 25.8371 15.8471 25.1149 15.1248 24.226C13.6526 22.4344 12.9165 20.2746 12.9165 17.7469C12.9165 15.2191 13.7429 12.9552 15.3957 10.9552C17.0623 8.9552 19.2846 7.9552 22.0623 7.9552C24.854 7.9552 27.1665 9.02465 28.9998 11.1635C30.8332 13.3024 31.7498 15.8996 31.7498 18.9552C31.7498 22.6913 30.6109 26.0108 28.3332 28.9135C26.0693 31.8163 23.0901 34.0663 19.3957 35.6635C17.0901 36.6913 15.1804 37.2052 13.6665 37.2052ZM16.6665 18.2052C16.6665 20.2052 17.229 22.0108 18.354 23.6219C19.479 25.2191 20.9304 26.0177 22.7082 26.0177C23.7915 26.0177 24.6734 25.8719 25.354 25.5802C26.0484 25.2885 26.5207 25.0385 26.7707 24.8302C27.5068 24.233 27.8748 22.3927 27.8748 19.3094C27.8748 17.351 27.7707 15.8996 27.5623 14.9552C27.1734 13.0802 26.5415 11.6288 25.6665 10.601C24.7915 9.57326 23.5554 9.05937 21.9582 9.05937C19.4721 9.05937 17.8401 10.6913 17.0623 13.9552C16.7984 15.0524 16.6665 16.2885 16.6665 17.6635V18.2052Z" fill="black"/>
<path d="M38.6416 65.7946C38.1548 58.3334 23.0588 44.29 22.572 40.7773C22.0853 44.2882 6.98925 58.3316 6.50248 65.7946C6.16254 71.0692 9.9119 73.2559 13.3213 73.2559C17.0127 73.2162 20.0615 68.1051 21.1117 67.1114C21.5985 68.4282 17.8873 79.4003 16.7287 79.4003H28.4173C27.2587 79.4003 23.5476 68.4282 24.0344 67.1114C24.9539 68.0242 27.6492 73.1029 31.8268 73.2559C35.2342 73.254 38.9815 71.0692 38.6416 65.7946Z" fill="black"/>
<path d="M98.8949 52.3742C98.0403 39.2743 71.5358 14.618 70.6812 8.45068C69.8266 14.6148 43.3221 39.2711 42.4675 52.3742C41.8706 61.6348 48.4535 65.4741 54.4395 65.4741C60.9205 65.4044 66.2733 56.4307 68.1173 54.6861C68.9719 56.9981 62.4562 76.262 60.422 76.262H80.9439C78.9098 76.262 72.394 56.9981 73.2487 54.6861C74.8631 56.2886 79.5953 65.2055 86.93 65.4741C92.9124 65.4708 99.4918 61.6348 98.8949 52.3742Z" fill="black"/>
<path d="M209.699 286.978C209.783 286.978 209.824 287.054 209.824 287.207C209.824 287.346 209.686 287.506 209.408 287.686C204.213 289.936 200.456 292.874 198.137 296.499C197.762 297.096 197.574 297.457 197.574 297.582C197.574 297.707 197.637 297.77 197.762 297.77L199.887 297.249C200.581 297.068 201.456 296.978 202.512 296.978C203.554 296.978 204.588 297.249 205.616 297.79C206.644 298.346 207.519 299.068 208.241 299.957C209.713 301.749 210.449 303.908 210.449 306.436C210.449 308.964 209.623 311.228 207.97 313.228C206.304 315.228 204.081 316.228 201.304 316.228C198.512 316.228 196.199 315.158 194.366 313.02C192.533 310.881 191.616 308.283 191.616 305.228C191.616 301.492 192.755 298.172 195.033 295.27C197.297 292.367 200.276 290.117 203.97 288.52C206.276 287.492 208.186 286.978 209.699 286.978ZM206.699 305.978C206.699 303.978 206.137 302.172 205.012 300.561C203.887 298.964 202.436 298.165 200.658 298.165C199.574 298.165 198.693 298.311 198.012 298.603C197.318 298.895 196.845 299.145 196.595 299.353C195.859 299.95 195.491 301.79 195.491 304.874C195.491 306.832 195.595 308.283 195.804 309.228C196.193 311.103 196.824 312.554 197.699 313.582C198.574 314.61 199.811 315.124 201.408 315.124C203.894 315.124 205.526 313.492 206.304 310.228C206.568 309.131 206.699 307.895 206.699 306.52V305.978Z" fill="black"/>
<path d="M184.231 258.352C184.717 265.813 199.813 279.857 200.3 283.369C200.787 279.859 215.883 265.815 216.37 258.352C216.71 253.078 212.96 250.891 209.551 250.891C205.859 250.931 202.811 256.042 201.76 257.035C201.274 255.719 204.985 244.746 206.143 244.746H194.455C195.613 244.746 199.325 255.719 198.838 257.035C197.918 256.123 195.223 251.044 191.045 250.891C187.638 250.893 183.891 253.078 184.231 258.352Z" fill="black"/>
<path d="M99.3334 136.284C98.4788 123.184 71.9743 98.5279 71.1197 92.3606C70.265 98.5247 43.7606 123.181 42.906 136.284C42.3091 145.545 48.892 149.384 54.878 149.384C61.359 149.314 66.7118 140.341 68.5558 138.596C69.4104 140.908 62.8946 160.172 60.8605 160.172H81.3824C79.3482 160.172 72.8325 140.908 73.6871 138.596C75.3016 140.199 80.0338 149.115 87.3684 149.384C93.3509 149.381 99.9302 145.545 99.3334 136.284Z" fill="black"/>
<path d="M43.5053 273.533C44.36 286.632 70.8644 311.289 71.7191 317.456C72.5737 311.292 99.0782 286.636 99.9328 273.533C100.53 264.272 93.9468 260.433 87.9608 260.433C81.4797 260.502 76.1269 269.476 74.283 271.221C73.4283 268.909 79.9441 249.645 81.9783 249.645H61.4563C63.4905 249.645 70.0063 268.909 69.1516 271.221C67.5372 269.618 62.8049 260.701 55.4703 260.433C49.4878 260.436 42.9085 264.272 43.5053 273.533Z" fill="black"/>
<path d="M43.0669 191.756C43.9215 204.856 70.4259 229.512 71.2806 235.679C72.1352 229.515 98.6397 204.859 99.4943 191.756C100.091 182.495 93.5083 178.656 87.5223 178.656C81.0413 178.726 75.6884 187.699 73.8445 189.444C72.9899 187.132 79.5056 167.868 81.5398 167.868H61.0178C63.052 167.868 69.5678 187.132 68.7131 189.444C67.0987 187.841 62.3664 178.924 55.0318 178.656C49.0493 178.659 42.47 182.495 43.0669 191.756Z" fill="black"/>
<path d="M181.518 52.1235C180.663 39.0236 154.159 14.3673 153.304 8.19995C152.45 14.364 125.945 39.0203 125.091 52.1235C124.494 61.3841 131.077 65.2233 137.063 65.2233C143.544 65.1536 148.896 56.18 150.74 54.4354C151.595 56.7473 145.079 76.0113 143.045 76.0113H163.567C161.533 76.0113 155.017 56.7473 155.872 54.4354C157.486 56.0379 162.218 64.9548 169.553 65.2233C175.535 65.2201 182.115 61.3841 181.518 52.1235Z" fill="black"/>
<path d="M181.956 136.034C181.102 122.934 154.597 98.2774 153.743 92.1101C152.888 98.2742 126.384 122.931 125.529 136.034C124.932 145.294 131.515 149.133 137.501 149.133C143.982 149.064 149.335 140.09 151.179 138.346C152.033 140.657 145.518 159.921 143.484 159.921H164.005C161.971 159.921 155.456 140.657 156.31 138.346C157.925 139.948 162.657 148.865 169.991 149.133C175.974 149.13 182.553 145.294 181.956 136.034Z" fill="black"/>
<path d="M126.128 273.282C126.983 286.382 153.487 311.038 154.342 317.205C155.197 311.041 181.701 286.385 182.556 273.282C183.153 264.021 176.57 260.182 170.584 260.182C164.103 260.252 158.75 269.225 156.906 270.97C156.051 268.658 162.567 249.394 164.601 249.394H144.079C146.114 249.394 152.629 268.658 151.775 270.97C150.16 269.367 145.428 260.45 138.093 260.182C132.111 260.185 125.532 264.021 126.128 273.282Z" fill="black"/>
<path d="M125.69 191.505C126.545 204.605 153.049 229.261 153.904 235.429C154.758 229.265 181.263 204.608 182.117 191.505C182.714 182.245 176.131 178.405 170.145 178.405C163.664 178.475 158.312 187.449 156.468 189.193C155.613 186.881 162.129 167.617 164.163 167.617H143.641C145.675 167.617 152.191 186.881 151.336 189.193C149.722 187.591 144.99 178.674 137.655 178.405C131.673 178.409 125.093 182.245 125.69 191.505Z" fill="black"/>
<path d="M140.417 95.581C139.562 82.4811 113.057 57.8248 112.203 51.6575C111.348 57.8215 84.8437 82.4779 83.9891 95.581C83.3922 104.842 89.9751 108.681 95.9611 108.681C102.442 108.611 107.795 99.6375 109.639 97.8929C110.494 100.205 103.978 119.469 101.944 119.469H122.466C120.431 119.469 113.916 100.205 114.77 97.8929C116.385 99.4954 121.117 108.412 128.452 108.681C134.434 108.678 141.013 104.842 140.417 95.581Z" fill="black"/>
</g>
<defs>
<clipPath id="clip0_3_1464">
<rect width="222" height="324" fill="white"/>
</clipPath>
</defs>
</svg>
