<svg width="222" height="324" viewBox="0 0 222 324" fill="none" xmlns="http://www.w3.org/2000/svg">
<g clip-path="url(#clip0_3_1759)">
<rect width="222" height="324" rx="10" fill="white"/>
<path d="M20.0308 35.8978C20.0308 36.0089 19.9752 36.0645 19.8641 36.0645H9.2183C9.10719 36.0645 9.05164 36.0089 9.05164 35.8978V35.3978C9.05164 35.2867 9.14191 35.2311 9.32247 35.2311C11.2252 35.1478 12.51 34.1339 13.1766 32.1895L21.6766 7.58529C21.6905 7.55751 21.6975 7.52279 21.6975 7.48112L21.4683 6.79362C21.4683 6.72418 21.4961 6.68945 21.5516 6.68945H25.7183C25.7461 6.70334 25.7808 6.71723 25.8225 6.73112C25.878 6.74501 25.9197 6.78668 25.9475 6.85612L34.76 31.5853C34.9544 31.9603 35.1072 32.3006 35.2183 32.6061C35.3433 32.9117 35.4822 33.1895 35.635 33.4395C35.9683 34.0089 36.5169 34.4464 37.2808 34.752C37.9197 35.0714 38.503 35.2311 39.0308 35.2311C39.1419 35.2311 39.1975 35.2936 39.1975 35.4186V35.8978C39.1975 36.0089 39.1419 36.0645 39.0308 36.0645H26.2808C26.1697 36.0645 26.1141 36.0089 26.1141 35.8978V35.3978C26.1141 35.2867 26.3711 35.2172 26.885 35.1895C27.3989 35.1617 27.8225 35.1339 28.1558 35.1061C30.0864 34.8978 31.0516 34.245 31.0516 33.1478C31.0516 33.0645 31.0377 32.9672 31.01 32.8561L27.8641 23.9811C27.8502 23.9533 27.8225 23.8908 27.7808 23.7936C27.6141 23.3214 27.3225 23.0853 26.9058 23.0853H19.51C19.0933 23.0853 18.7669 23.3145 18.5308 23.7728C18.4891 23.87 18.4683 23.9256 18.4683 23.9395L15.3433 33.0853V33.2728C15.3433 33.6339 15.5308 33.9603 15.9058 34.252C16.753 34.9047 17.8919 35.2311 19.3225 35.2311H19.8641C19.9752 35.2311 20.0308 35.2867 20.0308 35.3978V35.8978ZM26.1975 20.7728C26.4475 20.7728 26.5725 20.6686 26.5725 20.4603C26.5725 20.3492 26.5447 20.2242 26.4891 20.0853L23.385 11.5436C23.2461 11.1686 23.1419 10.9811 23.0725 10.9811C23.003 10.9811 22.8919 11.1756 22.7391 11.5645L19.8225 20.0853C19.7669 20.2242 19.7391 20.377 19.7391 20.5436C19.7391 20.6964 19.8433 20.7728 20.0516 20.7728H26.1975Z" fill="black"/>
<path d="M128.754 151.254C128.754 151.254 147.666 136.125 147.666 115.151C147.666 102.873 136.765 82.488 111.563 82.488C86.3609 82.488 75.4599 102.881 75.4599 115.151C75.4599 136.125 94.3714 151.254 94.3714 151.254C73.3657 134.891 35.9171 146.062 35.9171 178.765C35.9171 195.137 49.2945 213.148 70.3001 213.148C95.5021 213.148 106.403 185.637 106.403 185.637C106.403 185.637 109.604 216.994 90.9315 233.78H132.194C113.522 217.002 116.723 185.637 116.723 185.637C116.723 185.637 127.624 213.148 152.826 213.148C173.839 213.148 187.209 195.129 187.209 178.765C187.209 146.062 149.76 134.891 128.754 151.254Z" fill="black"/>
<path d="M19.6213 55.5571V257.383H202.997V55.5571H19.6213ZM111.502 82.3905C136.704 82.3905 147.612 102.778 147.612 115.056C147.612 136.03 128.698 151.157 128.698 151.157C149.704 134.794 187.149 145.966 187.149 178.669C187.149 195.033 173.779 213.053 152.766 213.053C127.564 213.053 116.665 185.541 116.665 185.541C116.665 185.541 113.462 216.907 132.134 233.684H90.8705C109.543 216.899 106.349 185.541 106.349 185.541C106.349 185.541 95.4493 213.053 70.2474 213.053C49.2417 213.053 35.8639 195.041 35.8639 178.669C35.8639 145.966 73.3093 134.794 94.3149 151.157C94.3149 151.157 75.401 136.03 75.401 115.056C75.401 102.785 86.3003 82.3905 111.502 82.3905Z" fill="#FFFEFF"/>
<path d="M27.5879 58.3197C27.5879 58.3197 32.2924 54.556 32.2924 49.3384C32.2924 46.2839 29.5806 41.2129 23.3112 41.2129C17.0417 41.2129 14.3299 46.2859 14.3299 49.3384C14.3299 54.556 19.0345 58.3197 19.0345 58.3197C13.8089 54.249 4.49292 57.0281 4.49292 65.1636C4.49292 69.2362 7.82078 73.7169 13.0463 73.7169C19.3158 73.7169 22.0276 66.873 22.0276 66.873C22.0276 66.873 22.8239 74.6737 18.1787 78.8494H28.4436C23.7985 74.6757 24.5948 66.873 24.5948 66.873C24.5948 66.873 27.3066 73.7169 33.576 73.7169C38.8035 73.7169 42.1294 69.2342 42.1294 65.1636C42.1294 57.0281 32.8134 54.249 27.5879 58.3197Z" fill="black"/>
<path d="M202.869 286.789C202.869 286.678 202.924 286.622 203.035 286.622H213.681C213.792 286.622 213.848 286.678 213.848 286.789V287.289C213.848 287.4 213.758 287.455 213.577 287.455C211.674 287.539 210.389 288.553 209.723 290.497L201.223 315.101C201.209 315.129 201.202 315.164 201.202 315.205L201.431 315.893C201.431 315.962 201.403 315.997 201.348 315.997H197.181C197.153 315.983 197.119 315.969 197.077 315.955C197.021 315.942 196.98 315.9 196.952 315.83L188.139 291.101C187.945 290.726 187.792 290.386 187.681 290.08C187.556 289.775 187.417 289.497 187.264 289.247C186.931 288.678 186.382 288.24 185.619 287.935C184.98 287.615 184.396 287.455 183.869 287.455C183.757 287.455 183.702 287.393 183.702 287.268V286.789C183.702 286.678 183.757 286.622 183.869 286.622H196.619C196.73 286.622 196.785 286.678 196.785 286.789V287.289C196.785 287.4 196.528 287.469 196.014 287.497C195.501 287.525 195.077 287.553 194.744 287.58C192.813 287.789 191.848 288.442 191.848 289.539C191.848 289.622 191.862 289.719 191.889 289.83L195.035 298.705C195.049 298.733 195.077 298.796 195.119 298.893C195.285 299.365 195.577 299.601 195.994 299.601H203.389C203.806 299.601 204.133 299.372 204.369 298.914C204.41 298.817 204.431 298.761 204.431 298.747L207.556 289.601V289.414C207.556 289.053 207.369 288.726 206.994 288.435C206.146 287.782 205.008 287.455 203.577 287.455H203.035C202.924 287.455 202.869 287.4 202.869 287.289V286.789ZM196.702 301.914C196.452 301.914 196.327 302.018 196.327 302.226C196.327 302.337 196.355 302.462 196.41 302.601L199.514 311.143C199.653 311.518 199.758 311.705 199.827 311.705C199.896 311.705 200.008 311.511 200.16 311.122L203.077 302.601C203.133 302.462 203.16 302.31 203.16 302.143C203.16 301.99 203.056 301.914 202.848 301.914H196.702Z" fill="black"/>
<path d="M195.312 264.987C195.312 264.987 190.607 268.751 190.607 273.968C190.607 277.023 193.319 282.094 199.588 282.094C205.858 282.094 208.57 277.021 208.57 273.968C208.57 268.751 203.865 264.987 203.865 264.987C209.09 269.058 218.406 266.279 218.406 258.143C218.406 254.07 215.079 249.59 209.853 249.59C203.584 249.59 200.872 256.434 200.872 256.434C200.872 256.434 200.076 248.633 204.721 244.457H194.456C199.101 248.631 198.305 256.434 198.305 256.434C198.305 256.434 195.593 249.59 189.323 249.59C184.096 249.59 180.77 254.072 180.77 258.143C180.77 266.279 190.086 269.058 195.312 264.987Z" fill="black"/>
</g>
<defs>
<clipPath id="clip0_3_1759">
<rect width="222" height="324" fill="white"/>
</clipPath>
</defs>
</svg>
