<svg width="222" height="324" viewBox="0 0 222 324" fill="none" xmlns="http://www.w3.org/2000/svg">
<g clip-path="url(#clip0_3_1836)">
<rect width="222" height="324" rx="10" fill="white"/>
<path d="M19.4109 36.5177C19.4109 36.6288 19.3554 36.6843 19.2443 36.6843H8.59843C8.48732 36.6843 8.43176 36.6288 8.43176 36.5177V36.0177C8.43176 35.9065 8.52204 35.851 8.7026 35.851C10.6054 35.7677 11.8901 34.7538 12.5568 32.8093L21.0568 8.20516C21.0707 8.17738 21.0776 8.14266 21.0776 8.10099L20.8484 7.41349C20.8484 7.34405 20.8762 7.30933 20.9318 7.30933H25.0984C25.1262 7.32322 25.1609 7.3371 25.2026 7.35099C25.2582 7.36488 25.2998 7.40655 25.3276 7.47599L34.1401 32.2052C34.3345 32.5802 34.4873 32.9204 34.5984 33.226C34.7234 33.5315 34.8623 33.8093 35.0151 34.0593C35.3484 34.6288 35.897 35.0663 36.6609 35.3718C37.2998 35.6913 37.8832 35.851 38.4109 35.851C38.522 35.851 38.5776 35.9135 38.5776 36.0385V36.5177C38.5776 36.6288 38.522 36.6843 38.4109 36.6843H25.6609C25.5498 36.6843 25.4943 36.6288 25.4943 36.5177V36.0177C25.4943 35.9065 25.7512 35.8371 26.2651 35.8093C26.779 35.7815 27.2026 35.7538 27.5359 35.726C29.4665 35.5177 30.4318 34.8649 30.4318 33.7677C30.4318 33.6843 30.4179 33.5871 30.3901 33.476L27.2443 24.601C27.2304 24.5732 27.2026 24.5107 27.1609 24.4135C26.9943 23.9413 26.7026 23.7052 26.2859 23.7052H18.8901C18.4734 23.7052 18.147 23.9343 17.9109 24.3927C17.8693 24.4899 17.8484 24.5454 17.8484 24.5593L14.7234 33.7052V33.8927C14.7234 34.2538 14.9109 34.5802 15.2859 34.8718C16.1332 35.5246 17.272 35.851 18.7026 35.851H19.2443C19.3554 35.851 19.4109 35.9065 19.4109 36.0177V36.5177ZM25.5776 21.3927C25.8276 21.3927 25.9526 21.2885 25.9526 21.0802C25.9526 20.969 25.9248 20.844 25.8693 20.7052L22.7651 12.1635C22.6262 11.7885 22.522 11.601 22.4526 11.601C22.3832 11.601 22.272 11.7954 22.1193 12.1843L19.2026 20.7052C19.147 20.844 19.1193 20.9968 19.1193 21.1635C19.1193 21.3163 19.2234 21.3927 19.4318 21.3927H25.5776Z" fill="#DF0000"/>
<path d="M203.701 285.52C203.701 285.409 203.756 285.354 203.867 285.354H214.513C214.624 285.354 214.68 285.409 214.68 285.52V286.02C214.68 286.131 214.589 286.187 214.409 286.187C212.506 286.27 211.221 287.284 210.555 289.229L202.055 313.833C202.041 313.86 202.034 313.895 202.034 313.937L202.263 314.624C202.263 314.694 202.235 314.729 202.18 314.729H198.013C197.985 314.715 197.951 314.701 197.909 314.687C197.853 314.673 197.812 314.631 197.784 314.562L188.971 289.833C188.777 289.458 188.624 289.117 188.513 288.812C188.388 288.506 188.249 288.229 188.096 287.979C187.763 287.409 187.214 286.972 186.451 286.666C185.812 286.347 185.228 286.187 184.701 286.187C184.589 286.187 184.534 286.124 184.534 285.999V285.52C184.534 285.409 184.589 285.354 184.701 285.354H197.451C197.562 285.354 197.617 285.409 197.617 285.52V286.02C197.617 286.131 197.36 286.201 196.846 286.229C196.332 286.256 195.909 286.284 195.576 286.312C193.645 286.52 192.68 287.173 192.68 288.27C192.68 288.354 192.694 288.451 192.721 288.562L195.867 297.437C195.881 297.465 195.909 297.527 195.951 297.624C196.117 298.097 196.409 298.333 196.826 298.333H204.221C204.638 298.333 204.964 298.104 205.201 297.645C205.242 297.548 205.263 297.492 205.263 297.479L208.388 288.333V288.145C208.388 287.784 208.201 287.458 207.826 287.166C206.978 286.513 205.839 286.187 204.409 286.187H203.867C203.756 286.187 203.701 286.131 203.701 286.02V285.52ZM197.534 300.645C197.284 300.645 197.159 300.749 197.159 300.958C197.159 301.069 197.187 301.194 197.242 301.333L200.346 309.874C200.485 310.249 200.589 310.437 200.659 310.437C200.728 310.437 200.839 310.242 200.992 309.854L203.909 301.333C203.964 301.194 203.992 301.041 203.992 300.874C203.992 300.722 203.888 300.645 203.68 300.645H197.534Z" fill="#DF0000"/>
<path d="M135.448 118.354C118.649 95.6281 109.712 72.5315 109.712 72.5315C109.712 72.5315 100.774 95.6281 83.9752 118.354C67.1685 141.073 46.2302 155.851 46.2302 155.851C46.2302 155.851 67.1685 170.621 83.9752 193.355C100.774 216.073 109.712 239.17 109.712 239.17C109.712 239.17 118.649 216.073 135.448 193.355C152.254 170.621 173.193 155.851 173.193 155.851C173.193 155.851 152.254 141.073 135.448 118.354Z" fill="#DF0000"/>
<path d="M29.0108 49.6765C24.842 44.0367 22.624 38.3049 22.624 38.3049C22.624 38.3049 20.4061 44.0367 16.2372 49.6765C12.0665 55.3143 6.87036 58.9816 6.87036 58.9816C6.87036 58.9816 12.0665 62.647 16.2372 68.2887C20.4061 73.9266 22.624 79.6583 22.624 79.6583C22.624 79.6583 24.842 73.9266 29.0108 68.2887C33.1816 62.647 38.3777 58.9816 38.3777 58.9816C38.3777 58.9816 33.1816 55.3143 29.0108 49.6765Z" fill="#DF0000"/>
<path d="M207.215 255.366C203.046 249.726 200.828 243.995 200.828 243.995C200.828 243.995 198.61 249.726 194.441 255.366C190.27 261.004 185.074 264.671 185.074 264.671C185.074 264.671 190.27 268.337 194.441 273.978C198.61 279.616 200.828 285.348 200.828 285.348C200.828 285.348 203.046 279.616 207.215 273.978C211.385 268.337 216.582 264.671 216.582 264.671C216.582 264.671 211.385 261.004 207.215 255.366Z" fill="#DF0000"/>
</g>
<defs>
<clipPath id="clip0_3_1836">
<rect width="222" height="324" fill="white"/>
</clipPath>
</defs>
</svg>
