<svg width="222" height="324" viewBox="0 0 222 324" fill="none" xmlns="http://www.w3.org/2000/svg">
<g clip-path="url(#clip0_3_1860)">
<rect width="222" height="324" rx="10" fill="white"/>
<path d="M19.4108 36.5177C19.4108 36.6288 19.3553 36.6843 19.2441 36.6843H8.59831C8.4872 36.6843 8.43164 36.6288 8.43164 36.5177V36.0177C8.43164 35.9065 8.52192 35.851 8.70247 35.851C10.6053 35.7677 11.89 34.7538 12.5566 32.8093L21.0566 8.20516C21.0705 8.17738 21.0775 8.14266 21.0775 8.10099L20.8483 7.41349C20.8483 7.34405 20.8761 7.30933 20.9316 7.30933H25.0983C25.1261 7.32322 25.1608 7.3371 25.2025 7.35099C25.258 7.36488 25.2997 7.40655 25.3275 7.47599L34.14 32.2052C34.3344 32.5802 34.4872 32.9204 34.5983 33.226C34.7233 33.5315 34.8622 33.8093 35.015 34.0593C35.3483 34.6288 35.8969 35.0663 36.6608 35.3718C37.2997 35.6913 37.883 35.851 38.4108 35.851C38.5219 35.851 38.5775 35.9135 38.5775 36.0385V36.5177C38.5775 36.6288 38.5219 36.6843 38.4108 36.6843H25.6608C25.5497 36.6843 25.4941 36.6288 25.4941 36.5177V36.0177C25.4941 35.9065 25.7511 35.8371 26.265 35.8093C26.7789 35.7815 27.2025 35.7538 27.5358 35.726C29.4664 35.5177 30.4316 34.8649 30.4316 33.7677C30.4316 33.6843 30.4178 33.5871 30.39 33.476L27.2441 24.601C27.2303 24.5732 27.2025 24.5107 27.1608 24.4135C26.9941 23.9413 26.7025 23.7052 26.2858 23.7052H18.89C18.4733 23.7052 18.1469 23.9343 17.9108 24.3927C17.8691 24.4899 17.8483 24.5454 17.8483 24.5593L14.7233 33.7052V33.8927C14.7233 34.2538 14.9108 34.5802 15.2858 34.8718C16.133 35.5246 17.2719 35.851 18.7025 35.851H19.2441C19.3553 35.851 19.4108 35.9065 19.4108 36.0177V36.5177ZM25.5775 21.3927C25.8275 21.3927 25.9525 21.2885 25.9525 21.0802C25.9525 20.969 25.9247 20.844 25.8691 20.7052L22.765 12.1635C22.6261 11.7885 22.5219 11.601 22.4525 11.601C22.383 11.601 22.2719 11.7954 22.1191 12.1843L19.2025 20.7052C19.1469 20.844 19.1191 20.9968 19.1191 21.1635C19.1191 21.3163 19.2233 21.3927 19.4316 21.3927H25.5775Z" fill="#DF0000"/>
<path d="M144.31 86.3738C114.796 86.3738 110.856 115.989 110.856 115.989C110.856 115.989 106.915 86.3738 77.4012 86.3738C56.7424 86.3738 38.0493 99.6525 38.0493 124.702C38.0493 157.801 97.9249 191.086 110.856 239.688C123.16 191.127 183.662 157.801 183.662 124.702C183.662 99.6525 164.969 86.3738 144.31 86.3738Z" fill="#DF0000"/>
<path d="M31.1097 43.0432C23.87 43.0432 22.9033 50.3078 22.9033 50.3078C22.9033 50.3078 21.9367 43.0432 14.697 43.0432C9.62944 43.0432 5.04407 46.3005 5.04407 52.4452C5.04407 60.5643 19.7314 68.729 22.9033 80.651C25.9216 68.739 40.7626 60.5643 40.7626 52.4452C40.7626 46.3005 36.1773 43.0432 31.1097 43.0432Z" fill="#DF0000"/>
<path d="M203.701 285.52C203.701 285.409 203.756 285.354 203.867 285.354H214.513C214.624 285.354 214.68 285.409 214.68 285.52V286.02C214.68 286.131 214.589 286.187 214.409 286.187C212.506 286.27 211.221 287.284 210.555 289.229L202.055 313.833C202.041 313.86 202.034 313.895 202.034 313.937L202.263 314.624C202.263 314.694 202.235 314.729 202.18 314.729H198.013C197.985 314.715 197.951 314.701 197.909 314.687C197.853 314.673 197.812 314.631 197.784 314.562L188.971 289.833C188.777 289.458 188.624 289.117 188.513 288.812C188.388 288.506 188.249 288.229 188.096 287.979C187.763 287.409 187.214 286.972 186.451 286.666C185.812 286.347 185.228 286.187 184.701 286.187C184.589 286.187 184.534 286.124 184.534 285.999V285.52C184.534 285.409 184.589 285.354 184.701 285.354H197.451C197.562 285.354 197.617 285.409 197.617 285.52V286.02C197.617 286.131 197.36 286.201 196.846 286.229C196.332 286.256 195.909 286.284 195.576 286.312C193.645 286.52 192.68 287.173 192.68 288.27C192.68 288.354 192.694 288.451 192.721 288.562L195.867 297.437C195.881 297.465 195.909 297.527 195.951 297.624C196.117 298.097 196.409 298.333 196.826 298.333H204.221C204.638 298.333 204.964 298.104 205.201 297.645C205.242 297.548 205.263 297.492 205.263 297.479L208.388 288.333V288.145C208.388 287.784 208.201 287.458 207.826 287.166C206.978 286.513 205.839 286.187 204.409 286.187H203.867C203.756 286.187 203.701 286.131 203.701 286.02V285.52ZM197.534 300.645C197.284 300.645 197.159 300.749 197.159 300.958C197.159 301.069 197.187 301.194 197.242 301.333L200.346 309.874C200.485 310.249 200.589 310.437 200.659 310.437C200.728 310.437 200.839 310.242 200.992 309.854L203.909 301.333C203.964 301.194 203.992 301.041 203.992 300.874C203.992 300.722 203.888 300.645 203.68 300.645H197.534Z" fill="#DF0000"/>
<path d="M192.002 278.995C199.241 278.995 200.208 271.73 200.208 271.73C200.208 271.73 201.175 278.995 208.414 278.995C213.482 278.995 218.067 275.737 218.067 269.593C218.067 261.474 203.38 253.309 200.208 241.387C197.19 253.299 182.349 261.474 182.349 269.593C182.349 275.737 186.934 278.995 192.002 278.995Z" fill="#DF0000"/>
</g>
<defs>
<clipPath id="clip0_3_1860">
<rect width="222" height="324" fill="white"/>
</clipPath>
</defs>
</svg>
