<svg width="222" height="324" viewBox="0 0 222 324" fill="none" xmlns="http://www.w3.org/2000/svg">
<g clip-path="url(#clip0_3_1883)">
<rect width="222" height="324" rx="10" fill="white"/>
<path d="M19.4108 36.5177C19.4108 36.6288 19.3553 36.6843 19.2441 36.6843H8.59831C8.4872 36.6843 8.43164 36.6288 8.43164 36.5177V36.0177C8.43164 35.9065 8.52192 35.851 8.70247 35.851C10.6053 35.7677 11.89 34.7538 12.5566 32.8093L21.0566 8.20516C21.0705 8.17738 21.0775 8.14266 21.0775 8.10099L20.8483 7.41349C20.8483 7.34405 20.8761 7.30933 20.9316 7.30933H25.0983C25.1261 7.32322 25.1608 7.3371 25.2025 7.35099C25.258 7.36488 25.2997 7.40655 25.3275 7.47599L34.14 32.2052C34.3344 32.5802 34.4872 32.9204 34.5983 33.226C34.7233 33.5315 34.8622 33.8093 35.015 34.0593C35.3483 34.6288 35.8969 35.0663 36.6608 35.3718C37.2997 35.6913 37.883 35.851 38.4108 35.851C38.5219 35.851 38.5775 35.9135 38.5775 36.0385V36.5177C38.5775 36.6288 38.5219 36.6843 38.4108 36.6843H25.6608C25.5497 36.6843 25.4941 36.6288 25.4941 36.5177V36.0177C25.4941 35.9065 25.7511 35.8371 26.265 35.8093C26.7789 35.7815 27.2025 35.7538 27.5358 35.726C29.4664 35.5177 30.4316 34.8649 30.4316 33.7677C30.4316 33.6843 30.4178 33.5871 30.39 33.476L27.2441 24.601C27.2303 24.5732 27.2025 24.5107 27.1608 24.4135C26.9941 23.9413 26.7025 23.7052 26.2858 23.7052H18.89C18.4733 23.7052 18.1469 23.9343 17.9108 24.3927C17.8691 24.4899 17.8483 24.5454 17.8483 24.5593L14.7233 33.7052V33.8927C14.7233 34.2538 14.9108 34.5802 15.2858 34.8718C16.133 35.5246 17.2719 35.851 18.7025 35.851H19.2441C19.3553 35.851 19.4108 35.9065 19.4108 36.0177V36.5177ZM25.5775 21.3927C25.8275 21.3927 25.9525 21.2885 25.9525 21.0802C25.9525 20.969 25.9247 20.844 25.8691 20.7052L22.765 12.1635C22.6261 11.7885 22.5219 11.601 22.4525 11.601C22.383 11.601 22.2719 11.7954 22.1191 12.1843L19.2025 20.7052C19.1469 20.844 19.1191 20.9968 19.1191 21.1635C19.1191 21.3163 19.2233 21.3927 19.4316 21.3927H25.5775Z" fill="black"/>
<path d="M214.607 290.462L202.878 321.004H198.523L186.023 290.462H190.628L194.19 299.712H206.961L210.315 290.462H214.607ZM205.794 303.004H195.44L198.628 311.462C199.6 314.032 200.322 316.143 200.794 317.795C201.183 315.837 201.732 313.893 202.44 311.962L205.794 303.004Z" fill="black"/>
<path d="M179.066 183.91C177.031 152.718 113.921 94.0091 111.886 79.3242C109.851 94.0014 46.7423 152.71 44.7073 183.91C43.2862 205.96 58.9605 215.101 73.2136 215.101C88.6455 214.935 101.391 193.569 105.782 189.414C107.816 194.919 92.302 240.788 87.4584 240.788H136.323C131.479 240.788 115.965 194.919 118 189.414C121.844 193.23 133.112 214.462 150.576 215.101C164.821 215.094 180.487 205.96 179.066 183.91Z" fill="black"/>
<path d="M18.7393 48.8145V275.041H198.06V48.8145H18.7393ZM111.888 79.3261C113.923 94.0109 177.025 152.72 179.06 183.911C180.481 205.962 164.82 215.094 150.576 215.102C133.111 214.462 121.839 193.23 117.995 189.415C115.96 194.919 131.473 240.789 136.317 240.789H87.4587C92.3023 240.789 107.816 194.919 105.781 189.415C101.39 193.569 88.6402 214.936 73.2084 215.102C58.9552 215.102 43.2866 205.962 44.7077 183.911C46.7426 152.712 109.853 94.0032 111.888 79.3261Z" fill="#FFFEFF"/>
<path d="M38.6416 65.7949C38.1548 58.3336 23.0588 44.2903 22.572 40.7776C22.0853 44.2884 6.98925 58.3318 6.50248 65.7949C6.16254 71.0694 9.9119 73.2561 13.3213 73.2561C17.0127 73.2164 20.0615 68.1053 21.1117 67.1117C21.5985 68.4285 17.8873 79.4005 16.7287 79.4005H28.4173C27.2587 79.4005 23.5476 68.4285 24.0344 67.1117C24.9539 68.0244 27.6492 73.1031 31.8268 73.2561C35.2342 73.2543 38.9815 71.0694 38.6416 65.7949Z" fill="black"/>
<path d="M184.23 258.352C184.717 265.813 199.813 279.856 200.3 283.369C200.786 279.858 215.882 265.815 216.369 258.352C216.709 253.077 212.96 250.89 209.55 250.89C205.859 250.93 202.81 256.041 201.76 257.035C201.273 255.718 204.984 244.746 206.143 244.746H194.454C195.613 244.746 199.324 255.718 198.837 257.035C197.918 256.122 195.222 251.043 191.045 250.89C187.638 250.892 183.89 253.077 184.23 258.352Z" fill="black"/>
</g>
<defs>
<clipPath id="clip0_3_1883">
<rect width="222" height="324" fill="white"/>
</clipPath>
</defs>
</svg>
